<?xml version="1.0" encoding="utf-8"?>
<!-- Generator: Adobe Illustrator 27.5.0, SVG Export Plug-In . SVG Version: 6.00 Build 0)  -->
<svg version="1.1" xmlns="http://www.w3.org/2000/svg" xmlns:xlink="http://www.w3.org/1999/xlink" x="0px" y="0px"
	 viewBox="0 0 500 500" style="enable-background:new 0 0 500 500;" xml:space="preserve">
<g id="BACKGROUND">
	<rect style="fill:#FFFFFF;" width="500" height="500"/>
</g>
<g id="OBJECTS">
	<g>
		<path style="fill:#C6E3EB;" d="M471.438,294.362c-1.446,4.229-2.965,8.361-4.57,12.396
			c-27.733,69.929-78.388,109.961-150.516,125.019c-15.86,3.318-32.753,5.42-50.666,6.368c-19.372,1.033-38.902,0.328-58.055-2.285
			c-83.796-11.387-160.178-59.283-182.576-158.683c-4.898-21.718-5.688-52.416-0.401-83.273
			C34.875,134.221,67.81,73.929,137.714,76.846c106.024,4.412,109.427,97.225,199.165,94.15
			C426.618,167.921,503.486,200.589,471.438,294.362z"/>
		<rect x="267.171" y="281.239" style="fill:#E7F0F2;" width="12.334" height="5.139"/>
		<rect x="53.383" y="295.115" style="fill:#E7F0F2;" width="12.334" height="5.139"/>
		<rect x="406.955" y="194.388" style="fill:#E7F0F2;" width="12.334" height="5.139"/>
		<rect x="449.61" y="253.488" style="fill:#E7F0F2;" width="12.334" height="5.139"/>
		<rect x="219.891" y="288.948" style="fill:#E7F0F2;" width="12.334" height="5.139"/>
		<rect x="328.326" y="242.182" style="fill:#E7F0F2;" width="12.334" height="5.139"/>
		<rect x="285.671" y="231.904" style="fill:#E7F0F2;" width="12.334" height="5.139"/>
		<path style="fill:#C6E3EB;" d="M304.168,125.426c31.747,31.217,61.93,27.623,72.081,9.944
			c10.151-17.679-35.15-56.351-60.563-53.036C290.273,85.649,291.052,112.529,304.168,125.426z"/>
		<g>
			<defs>
				<path id="SVGID_1_" d="M471.438,294.362c-1.446,4.229-2.965,8.361-4.57,12.396c-27.733,69.929-78.388,109.961-150.516,125.019
					c-15.86,3.318-32.753,5.42-50.666,6.368c-19.372,1.033-38.902,0.328-58.055-2.285
					c-83.796-11.387-160.178-59.283-182.576-158.683c-4.898-21.718-5.688-52.416-0.401-83.273
					C34.875,134.221,67.81,73.929,137.714,76.846c58.813,2.447,82.225,30.017,113.585,56.272
					c20.871,17.473,55.481-0.205,95.44-1.574C436.478,128.469,503.486,200.589,471.438,294.362z"/>
			</defs>
			<clipPath id="SVGID_00000168092631499965177930000009694379203878961047_">
				<use xlink:href="#SVGID_1_"  style="overflow:visible;"/>
			</clipPath>
			<g style="clip-path:url(#SVGID_00000168092631499965177930000009694379203878961047_);">
				<rect x="-26.201" y="61.527" style="fill:#A8D3DD;" width="276.401" height="207.124"/>
				<rect x="-14.891" y="72.838" style="fill:#DFECEF;" width="253.78" height="184.503"/>
				<rect x="103.766" y="68.551" style="fill:#A8D3DD;" width="9.897" height="194.4"/>
				
					<rect x="103.766" y="35.075" transform="matrix(-1.836970e-16 1 -1 -1.836970e-16 274.4658 57.0371)" style="fill:#A8D3DD;" width="9.897" height="261.354"/>
				<polygon style="opacity:0.4;fill:#FFFFFF;" points="184.883,56.302 58.428,268.651 120.463,268.651 244.532,61.869 				"/>
			</g>
			<g style="clip-path:url(#SVGID_00000168092631499965177930000009694379203878961047_);">
				<path style="fill:#5C78A8;" d="M425.114,285.221c9.392,35.48,6.63,72.262,6.077,73.96c-0.553,1.698-96.858,0-96.858,0
					l6.913-59.177l56.245-24.006L425.114,285.221z"/>
				<path style="opacity:0.3;fill:#465776;" d="M337.57,334.007c9.679-5.668,32.564,9.253,50.962,4.55
					c18.398-4.703,27.372,7.311,24.68,14.174c-2.692,6.862-4.487,7.72-4.487,7.72l22.467-1.271c0,0,1.64-29.451,0.804-36.121
					c-0.835-6.67-90.749-23.056-90.749-23.056L337.57,334.007z"/>
				<path style="opacity:0.3;fill:#465776;" d="M341.154,318.393c6.769-4.835,15.858,15.278,37.518,12.57
					c21.66-2.708,29.202,4.255,40.419,4.448c11.217,0.193,13.537-11.41,13.537-11.41l-16.051-8.316l-39.452-11.41l-21.273-2.127
					h-8.896l-4.835,9.283l0.773,7.736"/>
				<path style="fill:#5C78A8;" d="M333.603,273.798c-7.77,15.341-12.884,25.547-8.557,34.211
					c4.327,8.664,24.388-27.489,24.388-27.489L333.603,273.798z"/>
				<g>
					<path style="fill:#5C78A8;" d="M142.181,228.42c-15.745-2.305-38.896-1.85-52.241,26.663
						c-13.344,28.513-19.801,62.519-6.887,76.724l-1.291,29.271H194.11l-2.583-23.245c0,0,12.053-3.013,12.483-17.649
						c0.43-14.635-11.532-71.015-24.105-82.641C167.332,225.918,142.181,228.42,142.181,228.42z"/>
					<path style="opacity:0.3;fill:#465776;" d="M110.019,292.663c-0.206-5.763,3.293-29.229,3.293-29.229l6.587,24.083
						L110.019,292.663z"/>
					<path style="opacity:0.3;fill:#465776;" d="M83.053,331.807c11.416,10.783,43.92-0.174,64.801-25.336
						c0,0-11.991,18.763,1.401,29.47c13.392,10.707,21.027-0.967,24.92,0c3.893,0.967,0.571-13.237,0-23.382l17.352,25.275
						l2.583,23.245H81.762L83.053,331.807z"/>
					<path style="opacity:0.52;fill:#465776;" d="M153.41,360.449l-4.111,0.633H81.764l1.289-29.278
						c9.667,9.133,34.456,2.678,54.501-14.8c-5.933,17.134-14.134,21.391-26.345,26.369c-12.467,5.089-21.367,15.032-1.033,11.987
						c20.345-3.056,21.111-0.256,32.045-0.767C153.154,354.082,153.41,360.449,153.41,360.449z"/>
					<path style="fill:#465776;" d="M132.795,227.567c-1.007,10.268,3.702,14.682,7.546,16.564c2.803,1.373,4.694,4.094,4.81,7.213
						l0.238,6.361c0.086,2.293,1.97,4.108,4.264,4.108l0,0c2.357,0,4.268-1.911,4.268-4.268v-7.613c0-2.551,1.113-5.044,3.187-6.53
						c2.322-1.665,4.902-5.466,3.903-14.123C161.011,229.279,145.902,226.277,132.795,227.567z"/>
					<path style="fill:#F0A181;" d="M137.936,285.025c4.414-2.62,6.776-16.561,10.42-17.149c3.644-0.588,0.884,4.766,2.544,6.138
						c1.66,1.372,4.796-3.21,5.188-9.09c0.392-5.88,3.136-5.096,2.94,0c0,0,0.685-7.252,2.204-7.252c1.52,0,1.716,7.644,1.716,7.644
						s0.196-3.086,1.96-3.503c1.764-0.417,0.98,5.463,0.98,5.463s0.784-3.332,1.764-2.744c0.98,0.588,1.665,12.936-6.42,21.364
						c-8.084,8.428-21.202,9.604-21.202,9.604L137.936,285.025z"/>
					<path style="fill:#F0A181;" d="M194.44,290.698c-7.919-4.505-2.771-17.678-6.18-19.091c-3.41-1.413-1.961,4.434-3.892,5.385
						c-1.932,0.952-3.926-4.23-2.95-10.042c0.976-5.812-1.875-5.682-2.861-0.679c0,0,1.008-7.214-0.471-7.565
						c-1.479-0.351-3.434,7.042-3.434,7.042s0.521-3.048-1.099-3.861c-1.62-0.813-2.215,5.089-2.215,5.089s0.006-3.423-1.083-3.077
						c-1.089,0.346-4.605,12.202,1.315,22.269c5.921,10.066,18.413,14.238,18.413,14.238L194.44,290.698z"/>
					<path style="fill:#5C78A8;" d="M171.737,295.5c8.522-8.293,22.703-9.51,22.703-9.51s10.618,26.784,9.582,38.756
						c-1.036,11.972-13.616,16.233-19.907,10.552C177.825,329.616,171.737,295.5,171.737,295.5z"/>
					<path style="fill:none;stroke:#465776;stroke-width:1.1689;stroke-linecap:round;stroke-miterlimit:10;" d="M184.115,335.298
						c-6.29-5.682-12.378-39.798-12.378-39.798c8.522-8.293,22.703-9.51,22.703-9.51s10.618,26.784,9.582,38.756"/>
					<g>
						<path style="fill:#653930;" d="M121.617,182.633c-7.623,15.068,12.72,35.697,23.105,39.411
							c10.384,3.714-8.38-50.697-8.38-50.697L121.617,182.633z"/>
						<path style="fill:#512A24;" d="M130.309,211.336c-7.567-8.233-13.345-19.5-8.689-28.7l0.011-0.011
							c1.2-0.422,2.6-0.822,4.178-1.2v0.011c0,0-0.989,3.889-0.256,6.267c-0.011,1.422,0.056,2.633,0.167,3.589
							C126.243,196.058,128.865,206.058,130.309,211.336z"/>
						<path style="fill:#F0A181;" d="M186.216,183.253c1.901,20.149-3.53,37.939-16.592,41.155
							c-8.391,2.066-14.517,1.351-14.517,1.351v5.322c0,3.569-2.893,6.463-6.463,6.463h0c-3.569,0-6.463-2.893-6.463-6.463v-6.843
							c-8.674-9.685-9.504-15.967-9.504-15.967s-8.364-28.512,0-33.074c8.364-4.562,44.099-3.802,44.099-3.802L186.216,183.253z"/>
						<path style="fill:#653930;" d="M136.814,179.589c1.014,5.233-1.154,19.748-1.154,19.748s-5.206-9.134-8.454-9.874
							c-3.249-0.74-1.396-8.032-1.396-8.032l3.149-7.229l7.413,0.65L136.814,179.589z"/>
						<path style="fill:#F0A181;" d="M132.795,196.304c-1.83-6.014-6.39-8.147-9.674-5.491c-4.62,3.736,0.025,20.013,9.556,17.458
							L132.795,196.304z"/>
						<ellipse style="fill:#020202;" cx="159.299" cy="192.814" rx="1.712" ry="3.851"/>
						<path style="fill:#020202;" d="M177.599,194.258c0,2.127-0.766,3.851-1.712,3.851c-0.945,0-1.712-1.724-1.712-3.851
							c0-2.127,0.766-3.851,1.712-3.851C176.833,190.407,177.599,192.131,177.599,194.258z"/>
						<path style="fill:#FFFFFF;" d="M164.566,207.328l-12.145-2.882c0,0,1.316,8.807,6.878,9.991
							C164.862,215.622,164.566,207.328,164.566,207.328z"/>
						<path style="fill:#425371;" d="M186.217,183.259c-18.339-7.134-52.307-4.958-64.606-0.62c0,0,0.036-2.127,0.632-5.226
							c1.701-8.641,7.851-24.889,30.176-23.905c23.601,1.033,30.747,13.988,32.898,22.459
							C186.387,180.16,186.217,183.259,186.217,183.259z"/>
						<polygon style="fill:#EA825E;" points="155.106,225.759 146.693,225.759 155.106,231.081 						"/>
						<path style="fill:#EA825E;" d="M130.04,196.665c-1.774-4.768-5.487-1.418-5.092,1.183c0.395,2.6,3.609,5.789,5.092,5.891
							V196.665z"/>
						<path style="fill:#596A82;" d="M186.217,183.259c-18.339-7.134-52.307-4.958-64.606-0.62c0,0,0.036-2.127,0.632-5.226
							c15.69-5.761,51.092-6.891,63.075-1.446C186.387,180.16,186.217,183.259,186.217,183.259z"/>
					</g>
					<path style="fill:#5C78A8;" d="M92.837,302.345c9.118-7.092,41.063-21.277,41.063-21.277s12.232,9.604,13.954,25.403"/>
					<path style="fill:none;stroke:#465776;stroke-width:1.1689;stroke-linecap:round;stroke-miterlimit:10;" d="M92.837,302.345
						c9.118-7.092,41.063-21.277,41.063-21.277s12.232,9.604,13.954,25.403c0,0-20.247,24.618-43.814,28.478"/>
					<path style="fill:#465776;" d="M126.135,284.611l16.277,28.591l5.443-6.731c0,0-1.921-16.009-13.954-25.403L126.135,284.611z"
						/>
					<path style="fill:#465776;" d="M194.44,285.99c0,0-15.224,1.529-22.703,9.51l1.508,7.628c0,0,14.314-7.387,24.317-8.569
						L194.44,285.99z"/>
				</g>
				<g>
					<path style="fill:#425371;" d="M434.238,267.598c0,0-32.983,56.706-56.354,58.08c-23.371,1.373-48.454-40.215-47.081-51.201
						c1.373-10.999,30.942-29.896,31.793-38.148l-3.427-3.974c0,0-16.893,0.498-23.358-13.867
						c-6.441-14.316-4.241-37.614,3.269-47.908c0.024-0.036,0.049-0.073,0.073-0.109c0.012-0.024,0.036-0.037,0.049-0.061
						c4.521-6.38,12.943-12.287,28.56-12.967c30.334-1.337,30.808,29.131,30.808,29.131c3.707,13.332,0.256,32.149,6.101,44.508
						C410.515,243.453,428.745,251.106,434.238,267.598z"/>
					<path style="opacity:0.51;fill:#2C3B51;" d="M362.595,235.528c9.094,5.334,21.61,0,21.61,0s-10.536,0.189-15.081-1.67
						c-4.544-1.859,9.501-0.62,16.318-17.557c6.816-16.938-11.567-42.964-11.567-42.964s6.197,16.524,3.098,32.016
						c-3.098,15.492-17.805,27-17.805,27L362.595,235.528z"/>
					<path style="opacity:0.51;fill:#2C3B51;" d="M434.236,267.592c0,0-32.978,56.712-56.356,58.09
						c-13.756,0.8-28.112-13.278-37.312-27.245c-1.622-10.889,3.967-18.945,7.811-14.245c5.678,6.933,10.722,7.567,13.245-1.578
						c2.522-9.134,21.123,0,35.623-1.889c14.456-1.878,25.456-20.678,15.234-39.534C420.203,248.77,430.37,255.992,434.236,267.592z
						"/>
					<path style="fill:#F0A181;" d="M365.074,229.729v-0.036c0,0-0.365,0.049-1.045,0.085h-0.158c-0.547,0-1.082,0.012-1.616,0.036
						c-2.576,0-6.745-0.255-11.691-1.471c-11.947-2.941-17.512-18.084-16.917-36.046c0-0.017,0.001-0.034,0.001-0.05
						c0.095-3.191,1.271-6.257,3.259-8.755l5.101-6.41c11.995-0.596,21.256,3.512,27.879,8.775
						c7.681,6.089,11.825,13.733,12.603,17.415C383.899,209.967,380.472,228.732,365.074,229.729z"/>
					<path style="fill:#020202;" d="M359.171,196.748c0,2.127,0.766,3.851,1.712,3.851c0.945,0,1.712-1.724,1.712-3.851
						c0-2.127-0.766-3.851-1.712-3.851C359.938,192.897,359.171,194.621,359.171,196.748z"/>
					<path style="fill:#020202;" d="M342.584,196.748c0,2.127,0.766,3.851,1.712,3.851c0.946,0,1.712-1.724,1.712-3.851
						c0-2.127-0.766-3.851-1.712-3.851C343.35,192.897,342.584,194.621,342.584,196.748z"/>
					<path style="fill:#FFFFFF;" d="M355.617,211.262l12.144-2.882c0,0-1.316,8.807-6.878,9.992
						C355.321,219.556,355.617,211.262,355.617,211.262z"/>
				</g>
				<path style="fill:#FFFFFF;" d="M369.887,185.856c-7.693,0.79-25.777,2.297-36.241,6.441c0-0.017,0.001-0.034,0.001-0.05
					c0.095-3.191,1.271-6.257,3.259-8.755l5.101-6.41C354.003,176.486,363.264,180.594,369.887,185.856z"/>
				<path style="fill:#F0A181;" d="M385.257,288.959c-4.415-2.62-6.776-16.561-10.42-17.149c-3.644-0.588-0.884,4.766-2.544,6.138
					c-1.66,1.372-4.796-3.21-5.188-9.09c-0.392-5.88-3.136-5.096-2.94,0c0,0-0.685-7.252-2.204-7.252
					c-1.52,0-1.716,7.644-1.716,7.644s-0.196-3.086-1.96-3.503c-1.764-0.417-0.98,5.463-0.98,5.463s-0.784-3.332-1.764-2.744
					c-0.98,0.588-1.665,12.936,6.42,21.364c8.084,8.428,21.202,9.604,21.202,9.604L385.257,288.959z"/>
				<path style="fill:#F0A181;" d="M331.38,296.203c7.481-5.2,1.167-17.856,4.436-19.57c3.268-1.714,2.352,4.239,4.361,5.013
					c2.01,0.774,3.529-4.567,2.033-10.267c-1.495-5.7,1.356-5.828,2.788-0.934c0,0-1.653-7.094-0.212-7.577
					c1.441-0.482,4.054,6.704,4.054,6.704s-0.794-2.989,0.746-3.944c1.54-0.955,2.664,4.869,2.664,4.869s-0.315-3.409,0.802-3.162
					c1.116,0.246,5.686,11.738,0.696,22.297c-4.99,10.559-17.056,15.839-17.056,15.839L331.38,296.203z"/>
				<path style="fill:#5C78A8;" d="M353.673,296.218c-7.354-7.7-20.48-9.834-20.48-9.834s-11.844,14.7-11.725,24.942
					c0.119,10.242,11.539,14.835,17.801,10.5C345.531,317.492,353.673,296.218,353.673,296.218z"/>
				<path style="fill:#5C78A8;" d="M414.896,296.202c-9.118-7.092-25.603-11.2-25.603-11.2s-12.233,9.604-13.954,25.403
					c11.955,10.971,43.108,28.833,62.936,15.305c20.258-13.822-6.279-54.405-6.279-54.405L414.896,296.202z"/>
				<path style="opacity:0.3;fill:#465776;" d="M414.896,296.202c4.988,1.061,19.603,8.669,19.603,8.669l-13.214-19.02
					l-7.007,10.611"/>
				<path style="opacity:0.3;fill:#465776;" d="M417.634,292.548c7.511,2.436,16.865,12.323,16.865,12.323l-19.603-8.669
					L417.634,292.548"/>
				<rect x="55.235" y="358.45" style="fill:#D1965C;" width="398.109" height="28.756"/>
				<rect x="76.583" y="387.206" style="fill:#C88C50;" width="355.413" height="67.097"/>
				<rect x="76.583" y="387.206" style="opacity:0.72;fill:#A06752;" width="355.413" height="9.554"/>
				<g>
					<g>
						<path style="fill:#A06752;" d="M237.613,337.019c-0.602-1.788-1.204-3.577-1.806-5.365c-0.53-1.574-1.066-3.162-1.915-4.59
							c-0.778-1.31-1.813-2.466-3.024-3.39c-1.588-1.212-3.575-2.035-5.559-1.806c-3.654,0.421-6.09,4.325-6.177,8.002
							c-0.087,3.677,1.563,7.145,3.176,10.451c0.677,1.388,1.354,2.776,2.031,4.163c1.737,3.561,3.973,7.528,7.851,8.339
							c2.91,0.608,8.516-0.189,8.727-3.695C241.138,345.401,238.78,340.487,237.613,337.019z"/>
						<path style="fill:#8C523F;" d="M226.265,325.686c-0.671-0.178-1.454-0.069-1.939,0.428c-0.484,0.497-0.527,1.414,0.015,1.848
							c0.358,0.287,0.854,0.31,1.312,0.301c0.917-0.018,1.832-0.118,2.731-0.298c0.266-0.053,0.565-0.138,0.686-0.381
							c0.089-0.178,0.055-0.392-0.006-0.582c-0.471-1.465-2.598-2.057-3.758-1.046"/>
						<path style="fill:#8C523F;" d="M234.325,335.904c0.371,0.979,0.534,2.025,0.842,3.026c0.782,2.543,2.507,4.848,2.56,7.508
							c-0.198,0.178-0.506,0.008-0.706-0.167c-1.437-1.262-2.529-2.914-3.127-4.73c-0.148-0.45-0.269-0.915-0.507-1.324
							c-0.226-0.387-0.548-0.709-0.799-1.081c-0.338-0.504-0.536-1.087-0.729-1.662c-0.501-1.489-1.003-2.978-1.504-4.467
							c-0.156-0.464-0.214-1.139,0.254-1.284c0.202-0.062,0.42,0.02,0.604,0.124C232.335,332.483,233.886,334.744,234.325,335.904z"
							/>
						<path style="fill:#8C523F;" d="M231.949,343.46c0.138,0.606,0.262,1.221,0.519,1.786c0.5,1.099,1.494,1.992,1.666,3.187
							c-0.983-0.124-1.579-1.119-2.013-2.01c-0.942-1.938-1.816-3.909-2.659-5.892c-0.364-0.855-2.656-4.9-2.162-5.642
							C228.77,332.687,231.717,342.439,231.949,343.46z"/>
						<path style="fill:#8C523F;" d="M226.178,338.328c0.352,1.215,0.454,2.502,0.918,3.679c0.437,1.108,1.175,2.068,1.74,3.116
							c0.566,1.048,0.963,2.278,0.639,3.424c-2.16-2.9-2.936-6.601-4.774-9.715c-0.515-0.874-3.352-4.29-1.368-4.827
							C224.94,333.57,225.862,337.24,226.178,338.328z"/>
					</g>
					<path style="opacity:0.39;fill:#8C523F;" d="M238.911,340.56c-0.1,1.089-0.133,2.2-0.456,3.256
						c-0.189,0.611-0.478,1.2-0.944,1.645c-0.367,0.345-0.833,0.567-1.3,0.767c-1.567,0.678-3.245,1.111-4.945,1.267
						c-0.756,0.078-1.522,0.1-2.256-0.111c-0.656-0.189-1.244-0.556-1.856-0.856c-0.522-0.267-1.078-0.489-1.522-0.867
						c-0.489-0.411-0.811-0.967-1.244-1.433c-0.1-0.111-0.211-0.222-0.333-0.322c-0.589-1.2-1.155-2.389-1.744-3.578
						c-0.6-1.222-1.2-2.478-1.722-3.745c0.456,0.556,0.989,1.033,1.656,1.278c0.545,0.189,1.189,0.244,1.556,0.689
						c0.244,0.289,0.3,0.678,0.467,1.011c0.378,0.767,1.233,1.145,2.022,1.478c0.645,0.256,1.278,0.522,1.922,0.778
						c0.778,0.322,1.567,0.645,2.411,0.756c0.833,0.111,1.733-0.011,2.411-0.511c0.6-0.456,0.978-1.156,1.578-1.6
						c0.644-0.489,1.567-0.689,1.956-1.411c0.156-0.278,0.189-0.6,0.233-0.922c0.078-0.611,0.022-1.556,0.522-1.967
						c0.1,0.289,0.189,0.567,0.289,0.855C237.967,338.082,238.445,339.293,238.911,340.56z"/>
					<g>
						<path style="fill:#B2725B;" d="M257.578,339.138c-0.111,0.444-0.267,0.878-0.445,1.289c-1.444,3.344-4.344,5.8-7.167,8.111
							c-0.022,0.022-0.056,0.045-0.078,0.067c-1.189,0.978-2.389,1.956-3.578,2.933c-3.067,2.511-6.744,5.189-10.611,4.311
							c-2.9-0.656-7.667-3.722-6.389-6.989c1.344-3.489,5.533-6.967,8.044-9.633c1.289-1.378,2.578-2.756,3.878-4.133
							c1.133-1.211,2.278-2.422,3.645-3.367c1.256-0.867,2.678-1.489,4.167-1.822c1.945-0.444,4.1-0.367,5.811,0.667
							C257.611,332.249,258.411,335.96,257.578,339.138z"/>
						<path style="fill:#9E5C47;" d="M252.39,333.646c0.684,0.117,1.351,0.543,1.585,1.197c0.234,0.654-0.11,1.505-0.783,1.674
							c-0.445,0.112-0.906-0.074-1.318-0.273c-0.826-0.399-1.616-0.871-2.358-1.409c-0.22-0.159-0.456-0.361-0.465-0.632
							c-0.007-0.199,0.114-0.379,0.248-0.526c1.038-1.135,3.219-0.788,3.852,0.615"/>
						<path style="fill:#9E5C47;" d="M240.806,339.577c-0.745,0.736-1.329,1.618-2.026,2.4c-1.77,1.986-4.299,3.363-5.455,5.759
							c0.105,0.244,0.457,0.218,0.711,0.142c1.832-0.549,3.513-1.595,4.814-2.998c0.322-0.347,0.625-0.72,1.012-0.992
							c0.367-0.258,0.794-0.416,1.176-0.65c0.517-0.317,0.94-0.764,1.355-1.207c1.076-1.145,2.152-2.289,3.228-3.434
							c0.335-0.357,0.669-0.947,0.304-1.273c-0.158-0.141-0.39-0.157-0.601-0.138C244.04,337.296,241.689,338.706,240.806,339.577z"
							/>
						<path style="fill:#9E5C47;" d="M239.818,347.437c-0.378,0.493-0.746,1.001-1.216,1.408c-0.913,0.791-2.188,1.189-2.842,2.204
							c0.945,0.297,1.902-0.359,2.667-0.989c1.664-1.369,3.279-2.797,4.872-4.248c0.687-0.626,4.456-3.348,4.315-4.228
							C247.196,338.967,240.455,346.605,239.818,347.437z"/>
						<path style="fill:#9E5C47;" d="M247.203,345.176c-0.826,0.958-1.455,2.086-2.367,2.962c-0.859,0.825-1.929,1.39-2.88,2.107
							c-0.951,0.717-1.825,1.669-2.008,2.846c3.172-1.736,5.419-4.777,8.387-6.843c0.833-0.579,4.834-2.503,3.254-3.818
							C250.31,341.366,247.943,344.317,247.203,345.176z"/>
					</g>
					<path style="opacity:0.39;fill:#8C523F;" d="M257.578,339.138c-0.111,0.444-0.267,0.878-0.445,1.289
						c-1.444,3.344-4.344,5.8-7.167,8.111c-0.856,0.1-1.722,0.122-2.589,0.111c-2.533-0.033-5.045-0.367-7.578-0.5
						c-1.622-0.078-3.256-0.089-4.844-0.433c-0.411-0.089-0.844-0.222-1.111-0.545c-0.533-0.678-0.022-1.7,0.656-2.233
						c1.144-0.9,2.656-1.156,4.111-1.189c1.445-0.033,2.9,0.122,4.344-0.044c1.545-0.189,3.022-0.767,4.567-0.978
						c1.544-0.211,3.133-0.067,4.656-0.422c1.622-0.367,3.044-1.289,4.289-2.378C256.845,339.593,257.189,339.138,257.578,339.138z"
						/>
					<g>
						<path style="fill:#B2725B;" d="M224.244,356.716c-3.867,0.878-7.544-1.789-10.611-4.311c-0.789-0.656-1.589-1.311-2.389-1.956
							c-0.4-0.333-0.789-0.656-1.189-0.978c-2.844-2.333-5.789-4.8-7.244-8.178c-0.456-1.067-0.711-2.256-0.745-3.433
							c-0.078-2.556,0.878-5.111,3.033-6.411c1.7-1.044,3.856-1.122,5.8-0.678c1.489,0.333,2.911,0.956,4.167,1.822
							c1.367,0.945,2.511,2.167,3.656,3.378c1.289,1.367,2.578,2.745,3.867,4.122c2.511,2.667,6.7,6.145,8.056,9.633
							C231.911,353.004,227.144,356.06,224.244,356.716z"/>
						<path style="opacity:0.22;fill:#FFFFFF;" d="M249.562,336.686c0.394,0.398,0.674,0.96,1.203,1.142
							c0.469,0.161,0.998-0.033,1.478,0.096c0.397,0.106,0.701,0.416,1.037,0.654c0.599,0.425,1.346,0.637,2.078,0.589
							c-2.355,0.663-4.863,0.167-7.258-0.332c-0.199-0.042-0.405-0.086-0.571-0.203c-0.225-0.159-0.342-0.425-0.476-0.666
							c-0.29-0.523-0.7-0.98-1.19-1.323c-0.604-0.424-1.404-0.787-1.511-1.517c-0.056-0.383,0.109-0.761,0.271-1.113
							c0.425-0.929,0.91-1.922,1.816-2.394c0.785-0.409,1.823-0.383,2.657-0.195c-0.836,0.771-2.446,1.488-2.211,2.856
							C247.11,335.582,248.76,335.88,249.562,336.686z"/>
						<path style="opacity:0.22;fill:#FFFFFF;" d="M223.336,325.943c-0.607,0.255-1.02,0.913-0.986,1.57
							c0.034,0.658,0.513,1.269,1.144,1.459c0.437,0.132,0.935,0.081,1.321,0.325c0.179,0.113,0.318,0.281,0.493,0.4
							c0.285,0.192,0.644,0.239,0.988,0.232c0.843-0.017,1.65-0.323,2.431-0.642c0.776-0.316,1.544-0.649,2.313-0.982
							c0.335-0.145,0.678-0.295,0.938-0.552c0.26-0.256,0.422-0.646,0.309-0.993c-0.222-0.682-1.265-0.754-1.57-1.404
							c0.805,0.203,1.577,0.539,2.274,0.99c0.074,0.048,0.152,0.102,0.185,0.184c0.085,0.208-0.151,0.392-0.268,0.584
							c-0.294,0.484,0.183,1.172-0.111,1.656c-0.128,0.21-0.368,0.318-0.594,0.414c-2.004,0.851-4.018,1.706-6.127,2.245
							c-1.286,0.328-2.64,0.537-3.936,0.253c-0.276-0.061-0.559-0.149-0.763-0.345c-0.219-0.21-0.317-0.513-0.402-0.805
							c-0.112-0.385-0.215-0.773-0.309-1.162c-0.057-0.235-0.109-0.482-0.048-0.716c0.105-0.402,0.508-0.644,0.745-0.986
							c0.183-0.264,0.265-0.586,0.427-0.863c0.163-0.277,0.46-0.523,0.776-0.464"/>
						<path style="opacity:0.22;fill:#FFFFFF;" d="M213.645,334.478c-0.035,0.53-0.613,0.824-1.108,1.014
							c0.323,0.018,0.504,0.427,0.41,0.737c-0.094,0.31-0.365,0.528-0.629,0.717c-2.063,1.475-4.575,2.315-7.111,2.375
							c-0.134,0.003-0.275,0.003-0.393-0.06c-0.212-0.113-0.279-0.377-0.384-0.594c-0.146-0.3-0.395-0.539-0.549-0.835
							c-0.154-0.296-0.183-0.709,0.074-0.922c-0.439,0.595-0.71,1.311-0.774,2.047c-0.024,0.269-0.016,0.555,0.118,0.789
							c0.315,0.549,1.117,0.545,1.611,0.941c0.21,0.168,0.36,0.407,0.586,0.553c0.48,0.311,1.113,0.11,1.644-0.104
							c1.267-0.51,2.524-1.045,3.77-1.606c0.819-0.369,1.655-0.765,2.27-1.42c0.552-0.588,0.886-1.343,1.21-2.082
							c0.106-0.243,0.215-0.506,0.162-0.766c-0.031-0.152-0.116-0.291-0.128-0.446c-0.035-0.451,0.547-0.896,0.29-1.268
							c-0.126-0.183-0.383-0.204-0.605-0.207c-0.497-0.007-1.023-0.057-1.513-0.001
							C213.019,333.681,213.645,333.808,213.645,334.478z"/>
						<path style="fill:#9E5C47;" d="M207.556,334.516c-0.684,0.117-1.351,0.543-1.584,1.197c-0.233,0.654,0.11,1.505,0.783,1.674
							c0.444,0.112,0.905-0.073,1.318-0.273c0.826-0.399,1.616-0.871,2.358-1.408c0.22-0.159,0.456-0.361,0.465-0.632
							c0.007-0.199-0.114-0.379-0.248-0.526c-1.039-1.135-3.219-0.788-3.852,0.615"/>
						<path style="fill:#9E5C47;" d="M219.14,340.447c0.746,0.736,1.329,1.618,2.026,2.4c1.77,1.986,4.298,3.363,5.455,5.759
							c-0.105,0.244-0.457,0.219-0.711,0.142c-1.832-0.549-3.513-1.595-4.814-2.998c-0.322-0.347-0.625-0.719-1.013-0.992
							c-0.367-0.258-0.794-0.416-1.176-0.65c-0.518-0.317-0.94-0.765-1.355-1.207c-1.076-1.145-2.152-2.289-3.228-3.434
							c-0.335-0.357-0.669-0.947-0.304-1.273c0.158-0.141,0.39-0.157,0.601-0.139C215.906,338.165,218.257,339.575,219.14,340.447z"
							/>
						<path style="fill:#9E5C47;" d="M220.128,348.306c0.378,0.493,0.747,1.001,1.216,1.408c0.913,0.791,2.188,1.189,2.842,2.204
							c-0.945,0.297-1.902-0.359-2.667-0.989c-1.664-1.369-3.279-2.797-4.872-4.248c-0.687-0.626-4.456-3.348-4.315-4.228
							C212.75,339.836,219.492,347.474,220.128,348.306z"/>
						<path style="fill:#9E5C47;" d="M212.743,346.045c0.826,0.958,1.455,2.086,2.367,2.962c0.859,0.825,1.929,1.39,2.88,2.107
							c0.951,0.717,1.825,1.669,2.008,2.846c-3.172-1.736-5.419-4.777-8.387-6.843c-0.832-0.579-4.834-2.503-3.254-3.818
							C209.636,342.235,212.003,345.187,212.743,346.045z"/>
					</g>
					<path style="opacity:0.39;fill:#8C523F;" d="M224.4,345.882c-0.1,0.278-0.345,0.467-0.589,0.622
						c-0.656,0.422-1.367,0.733-2.089,1.022c-2.422,0.978-4.933,1.778-7.478,2.378c-0.989,0.233-1.989,0.445-3,0.545
						c-0.4-0.333-0.789-0.656-1.189-0.978c-2.844-2.333-5.789-4.8-7.244-8.178c-0.456-1.067-0.711-2.256-0.745-3.433
						c0.233,0.3,0.378,0.744,0.556,1.067c0.411,0.744,0.944,1.433,1.589,2c1.178,1.033,2.756,1.656,4.333,1.622
						c1.722-0.033,3.456-0.811,5.111-0.355c0.467,0.133,0.9,0.355,1.356,0.489c0.611,0.189,1.256,0.233,1.889,0.289
						c2.089,0.211,4.167,0.667,6.156,1.344c0.367,0.133,0.733,0.267,1.022,0.533C224.355,345.104,224.533,345.527,224.4,345.882z"/>
					<path style="fill:#425371;" d="M251.187,358.45h-44.849c-3.096-2.098-4.887-13.637-4.887-13.637h54.623
						C256.074,344.813,254.284,356.352,251.187,358.45z"/>
					<path style="opacity:0.3;fill:#28374C;" d="M254.123,353.093c-0.767,2.378-1.756,4.556-2.933,5.356h-44.856
						c-1.178-0.8-2.167-2.978-2.933-5.356c0.055,0.055,0.111,0.089,0.167,0.122h50.39
						C254.011,353.182,254.067,353.149,254.123,353.093z"/>
					<path style="fill:#637EA5;" d="M256.122,346.022h-54.471c-0.528,0-0.956-0.428-0.956-0.956l0,0
						c0-0.528,0.428-0.956,0.956-0.956h54.471c0.528,0,0.956,0.428,0.956,0.956l0,0C257.078,345.594,256.65,346.022,256.122,346.022
						z"/>
				</g>
				<g>
					<path style="fill:#FFFFFF;" d="M319.941,341.225c-0.024,3.84-3.184,7.097-6.769,8.483c-3.597,1.373-7.559,1.264-11.4,1.13
						c-8.252-0.28-17.306,0.389-25.169-2.589c-2.224-0.839-5.226-2.175-6.016-4.655c-0.571-1.799,0.207-3.974,1.616-5.335
						c0.693-0.705,1.556-1.191,2.491-1.325c-0.267-1.665,0.243-3.306,1.446-4.509c0.328-0.34,4.156-1.957,4.156-1.483
						c0.62-2.248,2.576-4.083,4.849-4.557c2.297-0.474,4.825,0.45,6.271,2.297c1.483-1.422,3.135-2.82,5.141-3.196
						c2.005-0.377,4.424,0.656,4.861,2.661c1.434-1.556,3.816-2.127,5.797-1.41c1.981,0.717,3.439,2.698,3.537,4.801
						c1.592-0.255,3.281-0.51,4.752,0.158c1.458,0.656,2.455,2.625,1.531,3.938c0.365,0.231,0.693,0.511,0.984,0.814
						C319.26,337.688,319.953,339.462,319.941,341.225z"/>
					<path style="fill:#EFEFEF;" d="M319.941,341.225c-0.024,3.84-3.184,7.097-6.769,8.483c-3.597,1.373-7.559,1.264-11.4,1.13
						c-8.252-0.28-17.306,0.389-25.169-2.589c-2.224-0.839-5.226-2.175-6.016-4.655c-0.571-1.799,0.207-3.974,1.616-5.335
						c0.134,0.012,0.267,0.024,0.401,0.061c1.167,0.267,1.726,1.896,3.196,2.09c1.458,0.194,3.002-0.571,3.694-1.884
						c1.313,1.58,3.695,2.151,5.578,1.349c1.884-0.802,3.123-2.917,2.892-4.946c1.106,3.038,5.031,4.691,7.972,3.354
						c0.377-0.182,0.754-0.389,1.167-0.377c0.839,0.049,1.288,0.96,1.932,1.483c0.814,0.656,2.09,0.644,2.892-0.024
						c0.231,1.616,2.625,2.394,3.767,1.215c0.304-0.316,0.535-0.729,0.924-0.899c0.778-0.34,1.556,0.401,2.333,0.741
						c1.337,0.583,3.099-0.231,3.5-1.641c1.021,0.96,2.686,1.155,3.901,0.462c0.996-0.559,1.629-1.665,1.665-2.795
						C319.26,337.688,319.953,339.462,319.941,341.225z"/>
					<path style="fill:#425371;" d="M317.476,358.45h-44.612c-3.08-2.209-4.861-14.36-4.861-14.36h54.335
						C322.337,344.09,320.556,356.241,317.476,358.45z"/>
					<path style="fill:#637EA5;" d="M321.31,345.003h-54.471c-0.528,0-0.956-0.428-0.956-0.956l0,0c0-0.528,0.428-0.956,0.956-0.956
						h54.471c0.528,0,0.956,0.428,0.956,0.956l0,0C322.265,344.576,321.837,345.003,321.31,345.003z"/>
				</g>
				<g>
					<path style="fill:#E5A85E;" d="M328.214,343.053c-1.306-0.341-2.387-1.289-3.687-1.652c-2.737-0.764-5.567,1.218-8.392,0.908
						c-1.112-0.122-2.157-0.596-3.26-0.784c-2.799-0.477-5.542,0.909-8.044,2.253c-1.12,0.601-2.407,1.492-2.296,2.758
						c0.039,0.445,0.258,0.854,0.497,1.232c2.711,4.27,8.299,5.819,13.352,5.601c5.053-0.218,9.947-1.829,14.978-2.354
						c3.075-0.321,9.112-1.734,6.82-6.168C336.099,340.817,331.444,343.896,328.214,343.053z"/>
					<g>
						<path style="fill:#FFFFFF;" d="M338.335,358.45h-36.788c-2.54-1.822-4.009-11.842-4.009-11.842h44.806
							C342.344,346.608,340.875,356.628,338.335,358.45z"/>
					</g>
				</g>
				<path style="fill:none;stroke:#465776;stroke-width:1.1689;stroke-linecap:round;stroke-miterlimit:10;" d="M346.007,290.701
					c-5.593-2.38-12.814-4.317-12.814-4.317s-9.448,12.129-10.587,18.535"/>
				<g>
					<path style="fill:#FFFFFF;" d="M174.696,358.45h-8.436c-1.02,0-1.887-0.747-2.036-1.756l-4.25-28.622
						c-0.185-1.244,0.779-2.361,2.036-2.361h16.936c1.257,0,2.221,1.117,2.036,2.361l-4.25,28.622
						C176.583,357.703,175.716,358.45,174.696,358.45z"/>
					<path style="fill:#C6E3EB;" d="M176.871,339.207l-2.491,16.808h-7.802l-2.625-17.719
						C168.413,337.7,172.569,340.544,176.871,339.207z"/>
				</g>
				<g>
					<path style="fill:#FFFFFF;" d="M360.252,358.45h-8.436c-1.02,0-1.887-0.747-2.036-1.756l-4.25-28.622
						c-0.185-1.244,0.779-2.361,2.036-2.361h16.936c1.257,0,2.221,1.117,2.036,2.361l-4.25,28.622
						C362.138,357.703,361.272,358.45,360.252,358.45z"/>
					<path style="fill:#C6E3EB;" d="M362.427,339.207l-2.491,16.808h-7.802l-2.625-17.719
						C353.968,337.7,358.125,340.544,362.427,339.207z"/>
				</g>
				<path style="opacity:0.69;fill:#2C3B51;" d="M146.61,153.946c-12.5,6.911-17.789,16.656-19.856,24.756
					c-0.111,0.422-0.211,0.833-0.289,1.244l-0.656,1.478c-1.578,0.378-2.978,0.778-4.178,1.2l-0.011,0.011h-0.011
					c0,0,0.033-2.122,0.633-5.222c1.544-7.811,6.722-21.845,24.2-23.734L146.61,153.946z"/>
				<path style="fill:#AECBE5;" d="M175.299,349.815l-0.922,6.2h-7.8l-1.033-6.967C169.01,347.349,172.177,350.227,175.299,349.815z
					"/>
			</g>
			<g style="clip-path:url(#SVGID_00000168092631499965177930000009694379203878961047_);">
				<g>
					<g>
						<path style="fill:#9ECDD8;" d="M87.502,193.841h-14.2c-5.976,0-10.672-5.115-10.162-11.07l1.926-22.485
							c0-2.258,1.831-4.089,4.089-4.089h23.128c2.258,0,4.089,1.831,4.089,4.089l1.314,22.767
							C98.023,188.908,93.366,193.841,87.502,193.841z"/>
						<g>
							<path style="fill:#9ECDD8;" d="M68.958,185.589l11.756-1.444l11.756,1.444c0,9.144-11.756,16.123-11.756,16.123
								S68.958,194.733,68.958,185.589z"/>
						</g>
						<path style="fill:#FFFFFF;" d="M86.077,189.422H75.36v-25.858c0-2.959,2.399-5.358,5.358-5.358l0,0
							c2.959,0,5.358,2.399,5.358,5.358V189.422z"/>
						<g>
							<path style="fill:#FFFFFF;" d="M94.187,189.422H88.06V161.27c0-1.692,1.371-3.063,3.063-3.063l0,0
								c1.692,0,3.063,1.371,3.063,3.063V189.422z"/>
							<path style="fill:#FFFFFF;" d="M73.376,189.422H67.25V161.27c0-1.692,1.371-3.063,3.063-3.063l0,0
								c1.692,0,3.063,1.371,3.063,3.063V189.422z"/>
						</g>
						<g>
							<g>
								<g>
									<path style="fill:#9ECDD8;" d="M92.47,156.763l-11.756,1.444l-11.756-1.444c0-9.144,11.756-16.123,11.756-16.123
										S92.47,147.619,92.47,156.763z"/>
								</g>
							</g>
						</g>
					</g>
					
						<line style="fill:none;stroke:#9ECDD8;stroke-width:1.1111;stroke-miterlimit:10;" x1="80.714" y1="145.917" x2="80.714" y2="89.533"/>
				</g>
				<g>
					<g>
						<path style="fill:#9ECDD8;" d="M450.906,237.406h-9.442c-3.974,0-7.096-3.401-6.757-7.361l1.281-14.951
							c0-1.502,1.217-2.719,2.719-2.719h15.378c1.501,0,2.719,1.217,2.719,2.719l0.874,15.139
							C457.902,234.126,454.805,237.406,450.906,237.406z"/>
						<g>
							<path style="fill:#9ECDD8;" d="M438.575,231.919l7.817-0.96l7.817,0.96c0,6.08-7.817,10.721-7.817,10.721
								S438.575,237.999,438.575,231.919z"/>
						</g>
						<path style="fill:#FFFFFF;" d="M449.958,234.468h-7.126v-17.194c0-1.968,1.595-3.563,3.563-3.563l0,0
							c1.968,0,3.563,1.595,3.563,3.563V234.468z"/>
						<g>
							<path style="fill:#FFFFFF;" d="M455.351,234.468h-4.074v-18.72c0-1.125,0.912-2.037,2.037-2.037l0,0
								c1.125,0,2.037,0.912,2.037,2.037V234.468z"/>
							<path style="fill:#FFFFFF;" d="M441.513,234.468h-4.073v-18.72c0-1.125,0.912-2.037,2.037-2.037l0,0
								c1.125,0,2.037,0.912,2.037,2.037V234.468z"/>
						</g>
						<g>
							<path style="fill:#9ECDD8;" d="M454.209,212.751l-7.817,0.96l-7.817-0.96c0-6.08,7.817-10.721,7.817-10.721
								S454.209,206.671,454.209,212.751z"/>
						</g>
					</g>
					
						<line style="fill:none;stroke:#9ECDD8;stroke-width:1.1111;stroke-miterlimit:10;" x1="446.392" y1="205.539" x2="446.392" y2="195.381"/>
				</g>
			</g>
		</g>
		<g>
			<g>
				
					<ellipse transform="matrix(0.2349 -0.972 0.972 0.2349 57.9958 372.871)" style="fill:#5C78A8;" cx="265.847" cy="149.596" rx="50.981" ry="50.981"/>
				<circle style="fill:#C6E3EB;" cx="265.847" cy="149.596" r="42.682"/>
				<path style="fill:#425371;" d="M269.28,149.596c0,1.896-1.537,3.434-3.434,3.434c-1.896,0-3.434-1.537-3.434-3.434
					c0-1.896,1.537-3.434,3.434-3.434C267.743,146.163,269.28,147.7,269.28,149.596z"/>
				<g>
					<g>
						<g>
							<path style="fill:#5C78A8;" d="M266.151,112.895h-0.608c-0.78,0-1.413-0.632-1.413-1.413v-8.677
								c0-0.78,0.632-1.413,1.413-1.413h0.608c0.78,0,1.413,0.632,1.413,1.413v8.677
								C267.563,112.263,266.931,112.895,266.151,112.895z"/>
						</g>
						<g>
							<path style="fill:#5C78A8;" d="M266.151,197.8h-0.608c-0.78,0-1.413-0.633-1.413-1.413v-8.677
								c0-0.78,0.632-1.413,1.413-1.413h0.608c0.78,0,1.413,0.632,1.413,1.413v8.677C267.563,197.167,266.931,197.8,266.151,197.8z"
								/>
						</g>
					</g>
				</g>
				<g>
					<g>
						<g>
							<path style="fill:#5C78A8;" d="M292.014,123.86l-0.43-0.43c-0.552-0.552-0.552-1.446,0-1.998l6.135-6.135
								c0.552-0.552,1.446-0.552,1.998,0l0.43,0.43c0.552,0.552,0.552,1.446,0,1.998l-6.135,6.135
								C293.46,124.411,292.565,124.411,292.014,123.86z"/>
						</g>
						<g>
							<path style="fill:#5C78A8;" d="M231.977,183.896l-0.43-0.43c-0.552-0.552-0.552-1.446,0-1.998l6.136-6.136
								c0.552-0.552,1.446-0.552,1.998,0l0.43,0.43c0.552,0.552,0.551,1.446,0,1.998l-6.135,6.135
								C233.423,184.448,232.528,184.448,231.977,183.896z"/>
						</g>
					</g>
				</g>
				<g>
					<g>
						<g>
							<path style="fill:#5C78A8;" d="M302.548,149.9v-0.608c0-0.78,0.633-1.413,1.413-1.413h8.677c0.78,0,1.413,0.632,1.413,1.413
								v0.608c0,0.78-0.633,1.413-1.413,1.413h-8.677C303.181,151.313,302.548,150.681,302.548,149.9z"/>
						</g>
						<g>
							<path style="fill:#5C78A8;" d="M217.643,149.9v-0.608c0-0.78,0.632-1.413,1.413-1.413h8.677c0.78,0,1.413,0.632,1.413,1.413
								v0.608c0,0.78-0.633,1.413-1.413,1.413h-8.677C218.276,151.313,217.643,150.681,217.643,149.9z"/>
						</g>
					</g>
				</g>
				<g>
					<g>
						<g>
							<path style="fill:#5C78A8;" d="M291.583,175.763l0.43-0.43c0.552-0.552,1.446-0.552,1.998,0l6.136,6.136
								c0.552,0.552,0.552,1.446,0,1.998l-0.43,0.43c-0.552,0.552-1.446,0.552-1.998,0l-6.135-6.135
								C291.032,177.21,291.032,176.315,291.583,175.763z"/>
						</g>
						<g>
							<path style="fill:#5C78A8;" d="M231.547,115.727l0.43-0.43c0.552-0.552,1.446-0.552,1.998,0l6.135,6.135
								c0.552,0.552,0.552,1.446,0,1.998l-0.43,0.43c-0.552,0.552-1.446,0.552-1.998,0l-6.135-6.135
								C230.995,117.173,230.995,116.278,231.547,115.727z"/>
						</g>
					</g>
				</g>
			</g>
			<polygon style="fill:#425371;" points="266.659,148.539 249.753,167.172 246.174,165.556 246.504,172.739 254.103,171.625 
				252.161,169.106 266.547,150.252 			"/>
			<polygon style="fill:#425371;" points="266.212,150.469 261.352,125.784 257.451,125.321 261.442,119.339 267.375,124.215 
				264.411,125.37 267.001,148.944 			"/>
		</g>
		<path style="fill:#E1F0F4;" d="M340.524,354.493c-0.589,1.789-1.322,3.344-2.189,3.956h-36.79
			c-2.533-1.822-4.011-11.845-4.011-11.845h5.767C308.39,356.56,334.246,356.682,340.524,354.493z"/>
	</g>
</g>
</svg>
