<?xml version="1.0" standalone="no"?>
<!DOCTYPE svg PUBLIC "-//W3C//DTD SVG 20010904//EN"
 "http://www.w3.org/TR/2001/REC-SVG-20010904/DTD/svg10.dtd">
<svg version="1.0" xmlns="http://www.w3.org/2000/svg"
 width="220.000000pt" height="189.000000pt" viewBox="0 0 220.000000 189.000000"
 preserveAspectRatio="xMidYMid meet">

<g transform="translate(0.000000,189.000000) scale(0.100000,-0.100000)"
fill="#000000" stroke="none">
<path d="M1001 1693 c-9 -16 -13 -16 -32 -4 -21 12 -25 12 -37 -7 -12 -18 -17
-19 -40 -9 -16 7 -27 8 -29 2 -11 -31 -21 -37 -42 -26 -18 10 -23 8 -33 -13
-9 -20 -16 -24 -35 -20 -19 5 -25 2 -30 -15 -4 -15 -13 -21 -33 -21 -19 0 -29
-6 -33 -20 -3 -14 -14 -20 -31 -20 -21 0 -26 -5 -26 -24 0 -19 -6 -25 -27 -28
-20 -2 -29 -9 -31 -25 -2 -14 -13 -25 -28 -29 -19 -5 -23 -11 -18 -29 4 -18 0
-24 -20 -29 -20 -5 -26 -13 -26 -32 0 -18 -7 -28 -21 -31 -16 -5 -19 -11 -14
-33 5 -23 2 -30 -15 -35 -17 -5 -20 -12 -15 -35 5 -23 2 -30 -15 -35 -12 -4
-19 -12 -17 -18 3 -7 8 -20 12 -29 4 -11 0 -20 -14 -27 -18 -10 -19 -15 -9
-36 10 -21 8 -28 -8 -39 -18 -14 -18 -15 0 -35 18 -20 18 -22 1 -41 -17 -19
-17 -21 -2 -38 15 -17 15 -19 -1 -36 -16 -16 -16 -18 0 -30 20 -15 23 -37 7
-53 -8 -8 -5 -15 11 -26 19 -13 20 -18 10 -37 -10 -18 -9 -24 1 -31 8 -5 18
-9 22 -9 5 0 6 -14 2 -31 -6 -26 -4 -31 15 -36 17 -5 20 -11 15 -33 -5 -22 -2
-28 14 -33 12 -3 21 -15 23 -33 2 -22 9 -30 26 -32 19 -3 23 -8 18 -27 -5 -18
-1 -24 19 -29 18 -5 25 -13 25 -31 0 -21 5 -25 30 -25 25 0 30 -4 30 -24 0
-19 6 -25 28 -28 19 -2 28 -9 30 -26 3 -20 8 -22 32 -17 23 5 28 2 34 -18 4
-19 11 -23 30 -20 17 4 27 -1 35 -15 8 -14 17 -19 32 -15 14 4 26 0 35 -11 9
-12 19 -16 34 -11 14 4 28 1 40 -10 14 -13 23 -14 37 -7 13 8 23 6 36 -6 15
-14 21 -14 39 -3 17 11 23 10 36 -3 14 -14 18 -14 34 1 16 14 22 15 40 4 17
-10 23 -10 38 4 15 14 21 14 40 3 18 -11 23 -11 35 5 9 13 20 16 38 12 19 -5
28 -2 37 14 9 18 14 19 32 10 20 -11 37 0 38 25 0 5 13 6 29 3 25 -5 30 -3 35
19 5 20 12 24 34 22 21 -2 28 2 30 19 2 15 11 23 30 25 19 2 28 10 30 26 3 16
10 22 28 22 19 0 24 5 24 24 0 17 7 26 25 30 18 5 25 13 25 30 0 18 6 25 23
28 17 2 21 9 19 30 -2 22 2 29 22 34 22 5 24 10 19 35 -3 16 -2 29 3 29 25 1
36 18 25 38 -9 18 -8 23 10 32 16 9 19 17 14 40 -5 21 -2 31 12 39 16 9 16 13
5 31 -11 19 -11 25 3 40 13 15 14 22 5 40 -9 17 -8 25 4 39 14 16 14 19 0 33
-13 13 -14 20 -4 38 10 18 9 25 -3 37 -12 13 -13 21 -4 40 9 21 8 27 -7 35
-13 7 -16 17 -11 38 4 20 2 29 -11 34 -12 5 -15 14 -11 36 5 23 2 30 -14 35
-17 6 -20 13 -15 35 4 24 1 29 -20 34 -21 6 -25 11 -20 30 5 19 1 25 -19 30
-18 5 -25 13 -25 31 0 18 -7 26 -25 31 -18 4 -25 13 -25 30 0 19 -5 24 -25 24
-20 0 -25 5 -25 25 0 21 -5 25 -30 25 -23 0 -30 4 -30 20 0 15 -7 20 -29 20
-21 0 -32 6 -36 21 -5 16 -13 20 -32 16 -19 -3 -27 1 -35 19 -9 18 -15 21 -33
14 -18 -7 -26 -4 -37 12 -12 18 -17 19 -35 9 -18 -9 -24 -8 -36 10 -13 18 -18
19 -37 9 -18 -9 -25 -8 -41 6 -15 14 -21 15 -34 4 -13 -11 -20 -11 -40 0 -19
10 -27 10 -39 1 -11 -9 -20 -10 -35 -2 -26 14 -28 14 -40 -6z m249 -68 c319
-67 552 -358 553 -690 0 -124 -18 -200 -80 -325 -38 -77 -61 -109 -127 -176
-67 -66 -99 -89 -176 -127 -136 -67 -196 -80 -349 -74 -205 7 -322 58 -471
207 -95 94 -141 171 -182 300 -19 61 -23 97 -23 195 0 137 20 219 82 338 64
121 214 259 338 312 128 54 296 69 435 40z"/>
<path d="M935 1604 c-242 -60 -434 -250 -501 -495 -25 -88 -25 -262 -1 -349
84 -306 349 -510 663 -510 196 0 342 59 480 195 86 85 138 166 172 270 119
357 -67 739 -423 869 -69 25 -97 29 -205 32 -88 2 -143 -1 -185 -12z m371 -48
c113 -41 163 -73 254 -165 143 -143 196 -281 188 -486 -8 -178 -65 -311 -188
-435 -124 -123 -253 -179 -435 -187 -93 -5 -123 -2 -190 16 -355 98 -561 448
-470 800 62 238 272 439 506 480 95 17 254 6 335 -23z"/>
<path d="M964 1526 c-124 -28 -259 -112 -334 -208 -196 -247 -177 -593 44
-812 381 -379 1026 -109 1026 429 0 166 -64 317 -180 429 -119 114 -235 165
-395 172 -65 2 -122 -1 -161 -10z m166 -86 c0 -5 -6 -10 -14 -10 -14 0 -26
-29 -26 -67 0 -30 -16 -29 -24 1 -3 14 -15 28 -26 31 -22 7 -24 13 -10 35 9
13 13 12 29 -7 l18 -22 11 25 c11 23 42 34 42 14z m130 -72 c27 -101 32 -182
14 -227 -8 -19 -13 -36 -10 -38 2 -2 20 -7 40 -10 l36 -6 0 54 c0 30 -5 72
-10 93 -7 33 -5 43 13 67 11 16 24 29 28 29 4 0 10 -24 14 -52 4 -29 13 -69
20 -89 9 -25 10 -40 3 -47 -5 -5 -8 -20 -6 -33 2 -19 12 -26 47 -35 25 -6 46
-15 49 -22 5 -17 -36 -52 -63 -52 -20 0 -25 -5 -25 -26 0 -28 -3 -27 69 -8 42
12 14 -14 -29 -27 -37 -11 -40 -15 -40 -48 0 -31 4 -38 29 -48 63 -23 85 -117
47 -195 -51 -105 -157 -178 -257 -178 -68 0 -104 12 -140 46 l-26 24 -69 -16
c-189 -44 -315 39 -260 171 19 45 25 44 19 -4 -10 -76 39 -114 147 -113 36 0
84 5 105 11 l40 10 1 65 c0 36 9 86 19 111 l17 47 -25 26 c-14 15 -32 42 -40
60 l-13 32 -35 -46 c-51 -68 -171 -148 -251 -168 -57 -13 -98 29 -98 103 0 45
48 146 86 182 24 22 24 19 -10 -42 -38 -68 -47 -134 -24 -157 31 -31 114 -1
226 83 87 66 96 81 88 156 -4 34 -18 92 -32 130 -20 54 -24 80 -18 114 3 25
10 45 14 45 11 0 58 -121 75 -193 8 -34 15 -95 15 -135 0 -75 20 -139 46 -149
7 -2 37 19 66 49 31 31 80 66 117 83 56 26 60 31 40 36 -35 10 -148 10 -191 0
-40 -9 -58 0 -58 31 0 11 10 20 28 23 107 22 142 45 142 93 0 15 -7 59 -15 97
-12 57 -13 80 -3 123 6 28 14 52 18 52 4 0 17 -37 30 -82z m-406 27 c-6 -32
-4 -35 16 -35 19 0 21 -2 10 -16 -22 -26 -44 5 -36 50 4 20 9 36 12 36 3 0 2
-16 -2 -35z m469 20 c-3 -9 -8 -14 -10 -11 -3 3 -2 9 2 15 9 16 15 13 8 -4z
m20 -35 c8 0 7 -4 -1 -12 -9 -9 -16 -8 -30 6 -16 18 -16 19 1 12 10 -3 24 -6
30 -6z m-158 -108 c-18 -16 -136 -64 -142 -58 -3 3 23 19 58 35 62 29 103 40
84 23z m-329 -98 c-3 -7 -17 -12 -33 -10 -20 2 -36 -6 -55 -26 -15 -15 -37
-28 -50 -28 -19 1 -16 5 17 22 22 12 34 23 28 25 -17 6 -17 43 0 43 7 0 22 -6
32 -14 34 -24 55 -9 57 43 l1 46 4 -44 c3 -24 2 -49 -1 -57z m31 44 c-2 -13
-4 -5 -4 17 -1 22 1 32 4 23 2 -10 2 -28 0 -40z m668 22 c3 -5 0 -10 -8 -10
-17 0 -27 -21 -27 -55 0 -31 -17 -41 -25 -15 -3 11 -15 25 -26 30 -20 11 -25
35 -10 45 6 3 19 -5 30 -17 15 -16 21 -18 21 -7 0 28 33 49 45 29z m-829 -13
c-16 -12 -17 -16 -5 -35 11 -18 11 -24 -5 -41 -36 -40 -87 -23 -85 27 0 12 3
10 9 -5 9 -23 33 -29 64 -17 13 5 14 9 5 20 -15 19 -3 64 18 64 15 0 15 -1 -1
-13z m-135 -179 c-11 -28 1 -54 19 -43 8 5 11 3 8 -6 -7 -21 -34 -23 -42 -3
-6 17 12 90 20 81 3 -2 0 -15 -5 -29z m289 -24 c0 -8 -4 -13 -9 -9 -13 7 -31
-27 -31 -59 0 -33 -16 -34 -24 -1 -4 14 -13 25 -21 25 -21 0 -28 19 -14 36 12
14 15 14 30 -4 16 -21 16 -21 27 4 13 27 42 33 42 8z m714 -2 c3 -5 -4 -21
-15 -38 -10 -16 -19 -32 -19 -36 0 -14 45 -8 68 7 20 15 21 14 16 0 -8 -20
-62 -48 -80 -41 -18 7 -18 37 1 62 17 22 20 38 5 29 -11 -7 -14 8 -3 18 9 9
21 9 27 -1z m-584 -162 c0 -6 -44 -39 -97 -73 -131 -84 -126 -82 -122 -68 3 8
198 144 217 150 1 1 2 -4 2 -9z m553 -110 c-5 -33 -3 -40 11 -40 9 0 16 -4 16
-10 0 -17 -37 -11 -44 7 -6 14 10 83 19 83 2 0 1 -18 -2 -40z m-632 -6 c14
-13 16 -20 7 -40 -13 -28 -16 -28 -42 -9 -13 10 -17 21 -12 39 7 30 22 33 47
10z m79 -79 c0 -6 -6 -20 -14 -30 -12 -17 -14 -17 -37 -1 -23 15 -25 15 -40
-5 -13 -17 -20 -19 -35 -11 -45 26 -46 27 -33 55 13 28 24 34 34 17 3 -5 15
-15 26 -20 16 -9 21 -7 31 14 11 25 12 25 39 9 16 -10 29 -22 29 -28z m-347
10 c-3 -9 -8 -14 -10 -11 -3 3 -2 9 2 15 9 16 15 13 8 -4z m12 -63 c-7 -8 -35
7 -35 18 0 6 7 6 20 -2 10 -7 17 -14 15 -16z m317 -149 c17 -15 19 -15 38 2
18 17 21 17 45 1 29 -19 30 -25 11 -51 -12 -17 -14 -17 -37 -2 -30 22 -36 21
-44 -3 -6 -20 -6 -20 -36 1 -31 22 -36 38 -17 57 15 15 18 15 40 -5z"/>
<path d="M1293 948 c-23 -13 -63 -38 -90 -57 l-48 -35 30 -6 c17 -4 60 -4 98
-2 63 4 67 6 67 28 0 28 0 28 -47 9 -42 -18 -43 -18 -43 -6 0 5 20 17 45 27
36 13 45 22 45 40 0 30 -5 30 -57 2z"/>
<path d="M1107 786 c-21 -32 -40 -114 -32 -143 3 -13 12 -23 21 -23 28 0 75
31 94 63 20 32 20 32 20 6 0 -31 28 -59 58 -59 25 0 27 8 11 44 -10 20 -9 28
5 41 20 21 32 13 39 -24 8 -37 -9 -88 -33 -101 -24 -13 -73 -13 -86 0 -8 8
-20 5 -42 -7 -18 -10 -32 -21 -32 -24 0 -14 65 -33 109 -32 155 2 296 171 204
243 l-28 22 -8 -68 c-7 -65 -46 -154 -66 -154 -5 0 -3 21 5 47 8 25 14 74 14
108 l0 62 -97 6 c-54 3 -107 8 -119 12 -15 5 -25 0 -37 -19z"/>
</g>
</svg>
