<?xml version="1.0" encoding="utf-8"?>
<!-- Generator: Adobe Illustrator 27.5.0, SVG Export Plug-In . SVG Version: 6.00 Build 0)  -->
<svg version="1.1" xmlns="http://www.w3.org/2000/svg" xmlns:xlink="http://www.w3.org/1999/xlink" x="0px" y="0px"
	 viewBox="0 0 750 500" style="enable-background:new 0 0 750 500;" xml:space="preserve">
<g id="BACKGROUND">
	<rect x="0" style="fill:#FFE9CC;" width="750" height="500"/>
</g>
<g id="OBJECTS">
	<g>
		<path style="fill:#EBCCA2;" d="M529.731,130.265h-116.27c-33.754,0-66.18-13.866-88.966-38.768
			c-22.155-24.213-54.012-39.399-89.419-39.399h0c-66.93,0-121.188,54.258-121.188,121.188v198.468h209.949h32.427H635.83v-135.39
			C635.83,177.767,588.328,130.265,529.731,130.265z"/>
		<g>
			<g>
				<path style="fill:#FFBE1A;" d="M535.045,102.011h-9.214v-2.588c0-2.544,2.063-4.607,4.607-4.607l0,0
					c2.544,0,4.607,2.063,4.607,4.607V102.011z"/>
				<path style="fill:#FFBE1A;" d="M530.438,95.843L530.438,95.843c-1.877,0-3.398-1.522-3.398-3.398v-1.591
					c0-1.877,1.522-3.398,3.398-3.398l0,0c1.877,0,3.398,1.522,3.398,3.398v1.591C533.836,94.321,532.315,95.843,530.438,95.843z"/>
				<g>
					<path style="fill:#FFBE1A;" d="M532.518,75.98c0.027,0.134,0.042,0.273,0.042,0.416c0,1.172-0.95,2.122-2.122,2.122
						c-1.172,0-2.122-0.95-2.122-2.122c0-0.142,0.015-0.281,0.042-0.416c-0.191,0.343-0.309,0.733-0.309,1.153
						c0,1.319,1.07,2.389,2.389,2.389c1.319,0,2.389-1.07,2.389-2.389C532.827,76.713,532.709,76.324,532.518,75.98z"/>
					<g>
						<circle style="fill:#FFBE1A;" cx="530.438" cy="86.798" r="0.908"/>
						<circle style="fill:#FFBE1A;" cx="530.438" cy="85.289" r="0.908"/>
						<circle style="fill:#FFBE1A;" cx="530.438" cy="80.187" r="0.908"/>
						<path style="fill:#FFBE1A;" d="M530.438,84.711L530.438,84.711c-0.456,0-0.825-0.369-0.825-0.825v-2.398
							c0-0.456,0.369-0.825,0.825-0.825l0,0c0.456,0,0.825,0.369,0.825,0.825v2.398C531.263,84.342,530.894,84.711,530.438,84.711z"
							/>
					</g>
				</g>
				<rect x="521.549" y="126.982" style="fill:#DEB680;" width="17.778" height="95.048"/>
				<rect x="526.703" y="126.982" style="fill:#EBCCA2;" width="7.469" height="95.048"/>
				<polygon style="fill:#9E7949;" points="539.327,222.03 521.549,222.03 512.254,226.095 548.622,226.095 				"/>
				<polygon style="fill:#CCA776;" points="534.173,222.03 526.703,222.03 522.798,226.095 538.078,226.095 				"/>
				<polygon style="fill:#574834;" points="544.631,227.927 516.245,227.927 512.254,226.095 548.622,226.095 				"/>
				<rect x="516.299" y="227.927" style="fill:#DEB680;" width="28.368" height="28.368"/>
				<polygon style="fill:#CCA776;" points="544.667,256.295 516.299,256.295 520.641,261.712 540.326,261.712 				"/>
				<polygon style="fill:#DEB680;" points="537.467,256.295 523.499,256.295 525.637,261.712 535.329,261.712 				"/>
				<rect x="523.499" y="227.927" style="fill:#EBCCA2;" width="13.967" height="28.368"/>
				<rect x="524.824" y="229.405" style="fill:#574834;" width="11.318" height="16.1"/>
				<rect x="538.661" y="229.405" style="fill:#574834;" width="6.005" height="16.1"/>
				<rect x="516.299" y="229.405" style="fill:#574834;" width="6.005" height="16.1"/>
				<polygon style="fill:#574834;" points="541.544,104.411 519.332,104.411 516.209,102.978 544.667,102.978 				"/>
				<rect x="519.374" y="104.411" style="fill:#DEB680;" width="22.198" height="19.004"/>
				<rect x="525.009" y="104.411" style="fill:#EBCCA2;" width="10.929" height="19.004"/>
				<rect x="526.045" y="105.568" style="fill:#574834;" width="8.856" height="12.598"/>
				<rect x="536.873" y="105.568" style="fill:#574834;" width="4.699" height="12.598"/>
				<rect x="519.374" y="105.568" style="fill:#574834;" width="4.699" height="12.598"/>
				<rect x="520.641" y="261.712" style="fill:#C49E6A;" width="19.706" height="31.389"/>
				<polygon style="fill:#9E7949;" points="544.667,102.978 516.209,102.978 526.435,100.663 534.441,100.663 				"/>
				<polygon style="fill:#CCA776;" points="535.938,102.978 524.938,102.978 528.891,100.663 531.985,100.663 				"/>
				<polygon style="fill:#CCA776;" points="539.222,127.194 521.724,127.194 519.374,123.416 541.572,123.416 				"/>
				<polygon style="fill:#DEB680;" points="534.246,127.194 526.7,127.194 525.009,123.416 535.938,123.416 				"/>
			</g>
			<g>
				<path style="fill:#FFBE1A;" d="M224.169,102.011h-9.214v-2.588c0-2.544,2.063-4.607,4.607-4.607h0
					c2.544,0,4.607,2.063,4.607,4.607V102.011z"/>
				<path style="fill:#FFBE1A;" d="M219.562,95.843L219.562,95.843c-1.877,0-3.398-1.522-3.398-3.398v-1.591
					c0-1.877,1.522-3.398,3.398-3.398h0c1.877,0,3.398,1.522,3.398,3.398v1.591C222.96,94.321,221.439,95.843,219.562,95.843z"/>
				<g>
					<path style="fill:#FFBE1A;" d="M221.642,75.98c0.027,0.134,0.042,0.273,0.042,0.416c0,1.172-0.95,2.122-2.122,2.122
						c-1.172,0-2.122-0.95-2.122-2.122c0-0.142,0.015-0.281,0.042-0.416c-0.191,0.343-0.309,0.733-0.309,1.153
						c0,1.319,1.07,2.389,2.389,2.389c1.319,0,2.389-1.07,2.389-2.389C221.951,76.713,221.833,76.324,221.642,75.98z"/>
					<g>
						<circle style="fill:#FFBE1A;" cx="219.562" cy="86.798" r="0.908"/>
						<circle style="fill:#FFBE1A;" cx="219.562" cy="85.289" r="0.908"/>
						<circle style="fill:#FFBE1A;" cx="219.562" cy="80.187" r="0.908"/>
						<path style="fill:#FFBE1A;" d="M219.562,84.711L219.562,84.711c-0.456,0-0.825-0.369-0.825-0.825v-2.398
							c0-0.456,0.369-0.825,0.825-0.825l0,0c0.456,0,0.825,0.369,0.825,0.825v2.398C220.387,84.342,220.018,84.711,219.562,84.711z"
							/>
					</g>
				</g>
				<rect x="210.673" y="126.982" style="fill:#DEB680;" width="17.778" height="95.048"/>
				<rect x="215.827" y="126.982" style="fill:#EBCCA2;" width="7.469" height="95.048"/>
				<polygon style="fill:#9E7949;" points="228.451,222.03 210.673,222.03 201.378,226.095 237.746,226.095 				"/>
				<polygon style="fill:#CCA776;" points="223.297,222.03 215.827,222.03 211.922,226.095 227.202,226.095 				"/>
				<polygon style="fill:#574834;" points="233.755,227.927 205.369,227.927 201.378,226.095 237.746,226.095 				"/>
				<rect x="205.423" y="227.927" style="fill:#DEB680;" width="28.368" height="28.368"/>
				<polygon style="fill:#CCA776;" points="233.791,256.295 205.423,256.295 209.765,261.712 229.45,261.712 				"/>
				<polygon style="fill:#DEB680;" points="226.591,256.295 212.623,256.295 214.761,261.712 224.453,261.712 				"/>
				<rect x="212.623" y="227.927" style="fill:#EBCCA2;" width="13.967" height="28.368"/>
				<rect x="213.948" y="229.405" style="fill:#574834;" width="11.318" height="16.1"/>
				<rect x="227.785" y="229.405" style="fill:#574834;" width="6.005" height="16.1"/>
				<rect x="205.423" y="229.405" style="fill:#574834;" width="6.005" height="16.1"/>
				<polygon style="fill:#574834;" points="230.668,104.411 208.456,104.411 205.333,102.978 233.791,102.978 				"/>
				<rect x="208.498" y="104.411" style="fill:#DEB680;" width="22.198" height="19.004"/>
				<rect x="214.133" y="104.411" style="fill:#EBCCA2;" width="10.929" height="19.004"/>
				<rect x="215.169" y="105.568" style="fill:#574834;" width="8.856" height="12.598"/>
				<rect x="225.997" y="105.568" style="fill:#574834;" width="4.699" height="12.598"/>
				<rect x="208.498" y="105.568" style="fill:#574834;" width="4.699" height="12.598"/>
				<rect x="209.765" y="261.712" style="fill:#C49E6A;" width="19.706" height="31.389"/>
				<polygon style="fill:#9E7949;" points="233.791,102.978 205.333,102.978 215.559,100.663 223.565,100.663 				"/>
				<polygon style="fill:#CCA776;" points="225.062,102.978 214.062,102.978 218.015,100.663 221.11,100.663 				"/>
				<polygon style="fill:#CCA776;" points="228.346,127.194 210.848,127.194 208.498,123.416 230.696,123.416 				"/>
				<polygon style="fill:#DEB680;" points="223.371,127.194 215.824,127.194 214.133,123.416 225.062,123.416 				"/>
			</g>
		</g>
		<ellipse style="fill:#D4AC74;" cx="375" cy="390.57" rx="303.461" ry="49.824"/>
		<g>
			<g>
				<g>
					<polygon style="fill:#D4AC74;" points="279.736,303.173 151.225,291.151 151.225,236.938 279.736,258.859 					"/>
					<polygon style="fill:#9E7949;" points="279.742,258.86 151.225,236.938 151.225,225.314 279.742,249.359 					"/>
				</g>
				<g>
					<polygon style="fill:#D4AC74;" points="279.736,356.989 151.225,356.989 151.225,302.776 279.736,312.675 					"/>
					<polygon style="fill:#9E7949;" points="279.742,312.675 151.225,302.776 151.225,291.151 279.742,303.174 					"/>
				</g>
				<g>
					<polygon style="fill:#574834;" points="279.736,327.17 151.225,320.508 151.225,302.776 279.736,312.675 					"/>
				</g>
				<g>
					<path style="fill:#211F1D;" d="M176.876,258.4v-1.466c0-3.685-1.851-7.431-4.982-10.057l-3.063-2.569l-3.091,1.577
						c-3.217,1.641-5.148,4.873-5.148,8.646v1.501l-2.481-0.361v36.124l21.113,1.975v-35.029L176.876,258.4z"/>
					<path style="fill:#211F1D;" d="M203.869,262.324v-1.408c0-3.538-1.706-7.124-4.592-9.626l-2.822-2.446l-2.846,1.532
						c-2.962,1.595-4.738,4.706-4.738,8.326v1.44l-2.282-0.332v34.648l19.447,1.819v-33.64L203.869,262.324z"/>
					<path style="fill:#211F1D;" d="M228.794,265.948v-1.354c0-3.403-1.578-6.842-4.246-9.23l-2.608-2.335l-2.63,1.49
						c-2.736,1.55-4.376,4.551-4.376,8.029v1.384l-2.107-0.306v33.288l17.971,1.681v-32.356L228.794,265.948z"/>
					<path style="fill:#211F1D;" d="M251.882,269.304v-1.304c0-3.278-1.464-6.581-3.938-8.865l-2.418-2.233l-2.437,1.45
						c-2.535,1.508-4.054,4.405-4.054,7.752v1.332l-1.951-0.284v32.03l16.656,1.558v-31.167L251.882,269.304z"/>
					<path style="fill:#211F1D;" d="M273.328,272.422v-1.257c0-3.161-1.361-6.339-3.662-8.528l-2.248-2.139l-2.265,1.412
						c-2.355,1.467-3.766,4.268-3.766,7.493v1.283l-1.812-0.263v30.864l15.481,1.448v-30.062L273.328,272.422z"/>
				</g>
				<g>
					<path style="fill:#211F1D;" d="M176.876,321.838v-1.466c0-3.685-1.851-7.258-4.982-9.591l-3.063-2.282l-3.091,1.866
						c-3.217,1.942-5.148,5.354-5.148,9.128v1.501l-2.481-0.129v36.124h21.113V321.96L176.876,321.838z"/>
					<path style="fill:#211F1D;" d="M203.869,323.237v-1.408c0-3.538-1.706-6.965-4.592-9.196l-2.822-2.182l-2.846,1.799
						c-2.962,1.872-4.738,5.15-4.738,8.77v1.44l-2.282-0.118v34.648h19.447v-33.64L203.869,323.237z"/>
					<path style="fill:#211F1D;" d="M228.794,324.529v-1.354c0-3.403-1.578-6.694-4.246-8.832l-2.608-2.091l-2.63,1.736
						c-2.736,1.806-4.376,4.96-4.376,8.438v1.384l-2.107-0.109v33.287h17.971v-32.356L228.794,324.529z"/>
					<path style="fill:#211F1D;" d="M251.882,325.726v-1.304c0-3.278-1.464-6.444-3.938-8.497l-2.418-2.006l-2.437,1.678
						c-2.535,1.745-4.054,4.784-4.054,8.131v1.332l-1.951-0.101v32.03h16.656v-31.167L251.882,325.726z"/>
					<path style="fill:#211F1D;" d="M273.328,326.837v-1.257c0-3.161-1.361-6.211-3.662-8.185l-2.248-1.929l-2.265,1.623
						c-2.355,1.688-3.766,4.62-3.766,7.846v1.283l-1.812-0.094v30.864h15.481v-30.062L273.328,326.837z"/>
				</g>
			</g>
			<g>
				<g>
					<polygon style="fill:#D4AC74;" points="469.982,303.173 598.493,291.151 598.493,236.938 469.982,258.859 					"/>
					<polygon style="fill:#9E7949;" points="469.976,258.86 598.493,236.938 598.493,225.314 469.976,249.359 					"/>
				</g>
				<g>
					<polygon style="fill:#D4AC74;" points="469.982,356.989 598.493,356.989 598.493,302.776 469.982,312.675 					"/>
					<polygon style="fill:#9E7949;" points="469.976,312.675 598.493,302.776 598.493,291.151 469.976,303.174 					"/>
				</g>
				<g>
					<polygon style="fill:#574834;" points="469.982,327.17 598.493,320.508 598.493,302.776 469.982,312.675 					"/>
				</g>
				<g>
					<path style="fill:#211F1D;" d="M572.842,258.4v-1.466c0-3.685,1.851-7.431,4.982-10.057l3.063-2.569l3.091,1.577
						c3.217,1.641,5.148,4.873,5.148,8.646v1.501l2.481-0.361v36.124l-21.113,1.975v-35.029L572.842,258.4z"/>
					<path style="fill:#211F1D;" d="M545.85,262.324v-1.408c0-3.538,1.706-7.124,4.592-9.626l2.822-2.446l2.846,1.532
						c2.962,1.595,4.738,4.706,4.738,8.326v1.44l2.282-0.332v34.648l-19.447,1.819v-33.64L545.85,262.324z"/>
					<path style="fill:#211F1D;" d="M520.924,265.948v-1.354c0-3.403,1.578-6.842,4.246-9.23l2.608-2.335l2.63,1.49
						c2.736,1.55,4.376,4.551,4.376,8.029v1.384l2.107-0.306v33.288l-17.971,1.681v-32.356L520.924,265.948z"/>
					<path style="fill:#211F1D;" d="M497.836,269.304v-1.304c0-3.278,1.464-6.581,3.938-8.865l2.418-2.233l2.437,1.45
						c2.535,1.508,4.054,4.405,4.054,7.752v1.332l1.951-0.284v32.03l-16.656,1.558v-31.167L497.836,269.304z"/>
					<path style="fill:#211F1D;" d="M476.39,272.422v-1.257c0-3.161,1.361-6.339,3.662-8.528l2.248-2.139l2.265,1.412
						c2.355,1.467,3.766,4.268,3.766,7.493v1.283l1.812-0.263v30.864l-15.481,1.448v-30.062L476.39,272.422z"/>
				</g>
				<g>
					<path style="fill:#211F1D;" d="M572.842,321.838v-1.466c0-3.685,1.851-7.258,4.982-9.591l3.063-2.282l3.091,1.866
						c3.217,1.942,5.148,5.354,5.148,9.128v1.501l2.481-0.129v36.124h-21.113V321.96L572.842,321.838z"/>
					<path style="fill:#211F1D;" d="M545.85,323.237v-1.408c0-3.538,1.706-6.965,4.592-9.196l2.822-2.182l2.846,1.799
						c2.962,1.872,4.738,5.15,4.738,8.77v1.44l2.282-0.118v34.648h-19.447v-33.64L545.85,323.237z"/>
					<path style="fill:#211F1D;" d="M520.924,324.529v-1.354c0-3.403,1.578-6.694,4.246-8.832l2.608-2.091l2.63,1.736
						c2.736,1.806,4.376,4.96,4.376,8.438v1.384l2.107-0.109v33.287H518.92v-32.356L520.924,324.529z"/>
					<path style="fill:#211F1D;" d="M497.836,325.726v-1.304c0-3.278,1.464-6.444,3.938-8.497l2.418-2.006l2.437,1.678
						c2.535,1.745,4.054,4.784,4.054,8.131v1.332l1.951-0.101v32.03h-16.656v-31.167L497.836,325.726z"/>
					<path style="fill:#211F1D;" d="M476.39,326.837v-1.257c0-3.161,1.361-6.211,3.662-8.185l2.248-1.929l2.265,1.623
						c2.355,1.688,3.766,4.62,3.766,7.846v1.283l1.812-0.094v30.864h-15.481v-30.062L476.39,326.837z"/>
				</g>
			</g>
		</g>
		<g>
			<polygon style="fill:#33302D;" points="374.847,357.207 279.799,357.207 279.799,188.843 374.847,162.288 			"/>
			<g>
				<polygon style="fill:#E09E43;" points="374.847,222.277 279.799,240.659 279.799,220.813 374.847,199.301 				"/>
				<polygon style="fill:#C2893A;" points="374.847,196.007 279.799,217.968 279.799,220.813 374.847,199.301 				"/>
				<polygon style="fill:#C2893A;" points="374.847,222.277 279.799,240.659 279.799,243.504 374.847,225.571 				"/>
			</g>
			<g>
				<polygon style="fill:#E09E43;" points="283.694,262.752 279.799,263.359 279.799,251.726 283.694,251.044 				"/>
				<polygon style="fill:#E09E43;" points="374.847,248.557 369.698,249.359 369.698,235.99 374.847,235.089 				"/>
				<polygon style="fill:#E09E43;" points="316.965,257.571 296.189,260.806 296.189,248.857 316.965,245.221 				"/>
				<polygon style="fill:#E09E43;" points="354.097,251.788 330.884,255.403 330.884,242.784 354.097,238.721 				"/>
			</g>
			<polygon style="fill:#E09E43;" points="292.177,255.495 289.878,260.287 287.596,256.253 289.878,251.464 			"/>
			<polygon style="fill:#E09E43;" points="326.411,249.834 323.849,254.913 321.308,250.678 323.849,245.601 			"/>
			<polygon style="fill:#E09E43;" points="364.681,243.504 361.809,248.909 358.961,244.45 361.809,239.05 			"/>
			<g>
				
					<line style="fill:none;stroke:#B3A79E;stroke-width:0.9228;stroke-miterlimit:10;" x1="308.529" y1="297.048" x2="308.529" y2="180.816"/>
				
					<line style="fill:none;stroke:#B3A79E;stroke-width:0.9228;stroke-miterlimit:10;" x1="339.932" y1="294.056" x2="339.932" y2="172.042"/>
			</g>
			<path style="fill:#A67532;" d="M371.035,300.777c-3.67,11.953-8.646,19.416-14.058,19.708c-5.327,0.288-10.08-6.436-13.5-17.467
				c-0.155-0.498-0.291-1.029-0.435-1.544l-6.058,0.507c-0.142,0.535-0.275,1.082-0.426,1.6
				c-3.316,11.348-7.813,18.429-12.709,18.694c-4.822,0.26-9.128-6.152-12.228-16.665c-0.14-0.475-0.264-0.98-0.394-1.472
				l-5.495,0.46c-0.128,0.509-0.25,1.029-0.387,1.522c-3.01,10.801-7.095,17.538-11.544,17.778
				c-4.386,0.237-8.305-5.892-11.128-15.934c-0.128-0.454-0.24-0.937-0.359-1.406l-2.514,0.21v50.44h95.048v-58.395l-3.34,0.28
				C371.35,299.654,371.203,300.231,371.035,300.777z"/>
			<g>
				
					<line style="fill:none;stroke:#EBBA76;stroke-width:0.535;stroke-miterlimit:10;" x1="279.685" y1="316.054" x2="375" y2="309.544"/>
				
					<line style="fill:none;stroke:#EBBA76;stroke-width:0.535;stroke-miterlimit:10;" x1="279.685" y1="324.285" x2="375" y2="319.076"/>
				
					<line style="fill:none;stroke:#EBBA76;stroke-width:0.535;stroke-miterlimit:10;" x1="279.685" y1="332.515" x2="375" y2="328.609"/>
				
					<line style="fill:none;stroke:#EBBA76;stroke-width:0.535;stroke-miterlimit:10;" x1="279.685" y1="340.746" x2="375" y2="338.142"/>
				
					<line style="fill:none;stroke:#EBBA76;stroke-width:0.535;stroke-miterlimit:10;" x1="279.685" y1="348.976" x2="375" y2="347.674"/>
			</g>
			<polygon style="fill:#211F1D;" points="374.871,357.207 469.919,357.207 469.919,188.843 374.871,162.288 			"/>
			<g>
				<polygon style="fill:#B88134;" points="374.871,222.277 469.919,240.659 469.919,220.813 374.871,199.301 				"/>
				<polygon style="fill:#875F29;" points="374.871,196.007 469.919,217.968 469.919,220.813 374.871,199.301 				"/>
				<polygon style="fill:#875F29;" points="374.871,222.277 469.919,240.659 469.919,243.504 374.871,225.571 				"/>
			</g>
			<g>
				<polygon style="fill:#B88134;" points="466.024,262.752 469.919,263.359 469.919,251.726 466.024,251.044 				"/>
				<polygon style="fill:#B88134;" points="374.871,248.557 380.02,249.359 380.02,235.99 374.871,235.089 				"/>
				<polygon style="fill:#B88134;" points="432.753,257.571 453.529,260.806 453.529,248.857 432.753,245.221 				"/>
				<polygon style="fill:#B88134;" points="395.621,251.788 418.835,255.403 418.835,242.784 395.621,238.721 				"/>
			</g>
			<polygon style="fill:#B88134;" points="457.541,255.495 459.84,260.287 462.122,256.253 459.84,251.464 			"/>
			<polygon style="fill:#B88134;" points="423.307,249.834 425.869,254.913 428.411,250.678 425.869,245.601 			"/>
			<polygon style="fill:#B88134;" points="385.037,243.504 387.909,248.909 390.757,244.45 387.909,239.05 			"/>
			<g>
				
					<line style="fill:none;stroke:#8C837C;stroke-width:0.9228;stroke-miterlimit:10;" x1="441.19" y1="297.048" x2="441.19" y2="180.816"/>
				
					<line style="fill:none;stroke:#8C837C;stroke-width:0.9228;stroke-miterlimit:10;" x1="409.786" y1="294.056" x2="409.786" y2="172.042"/>
			</g>
			<path style="fill:#875F29;" d="M378.683,300.777c3.67,11.953,8.646,19.416,14.058,19.708c5.327,0.288,10.08-6.436,13.5-17.467
				c0.155-0.498,0.291-1.029,0.435-1.544l6.058,0.507c0.142,0.535,0.275,1.082,0.426,1.6c3.315,11.348,7.813,18.429,12.709,18.694
				c4.822,0.26,9.128-6.152,12.228-16.665c0.14-0.475,0.263-0.98,0.394-1.472l5.495,0.46c0.128,0.509,0.25,1.029,0.387,1.522
				c3.01,10.801,7.095,17.538,11.544,17.778c4.386,0.237,8.305-5.892,11.128-15.934c0.128-0.454,0.24-0.937,0.359-1.406l2.514,0.21
				v50.44h-95.048v-58.395l3.34,0.28C378.368,299.654,378.516,300.231,378.683,300.777z"/>
			<g>
				
					<line style="fill:none;stroke:#D69B47;stroke-width:0.535;stroke-miterlimit:10;" x1="470.033" y1="316.054" x2="374.718" y2="309.544"/>
				
					<line style="fill:none;stroke:#D69B47;stroke-width:0.535;stroke-miterlimit:10;" x1="470.033" y1="324.285" x2="374.718" y2="319.076"/>
				
					<line style="fill:none;stroke:#D69B47;stroke-width:0.535;stroke-miterlimit:10;" x1="470.033" y1="332.515" x2="374.718" y2="328.609"/>
				
					<line style="fill:none;stroke:#D69B47;stroke-width:0.535;stroke-miterlimit:10;" x1="470.033" y1="340.746" x2="374.718" y2="338.142"/>
				
					<line style="fill:none;stroke:#D69B47;stroke-width:0.535;stroke-miterlimit:10;" x1="470.033" y1="348.976" x2="374.718" y2="347.674"/>
			</g>
			
				<line style="fill:none;stroke:#B3A79E;stroke-width:0.9228;stroke-miterlimit:10;" x1="375" y1="291.151" x2="374.871" y2="162.288"/>
			<path style="fill:#B3A79E;" d="M356.977,306.317c-6.612,0.495-12.533-6.099-16.977-17.211
				c-4.386,11.867-10.051,19.235-16.15,19.691c-5.986,0.448-11.351-5.85-15.382-16.452c-3.98,11.285-9.124,18.286-14.667,18.701
				c-5.445,0.408-10.329-5.621-14.001-15.756v8.761c0,8.87,0.966,17.532,2.873,24.382c2.823,10.138,6.742,16.399,11.128,16.31
				c4.449-0.09,8.535-6.689,11.544-17.388c2.066-7.345,3.123-16.541,3.123-25.833v0c0,9.292,1.06,18.363,3.154,25.535
				c3.1,10.618,7.406,17.176,12.228,17.079c4.895-0.099,9.393-7.028,12.709-18.264c2.277-7.716,3.442-17.375,3.442-27.131v0
				c0,9.756,1.169,19.277,3.478,26.802c3.42,11.146,8.173,18.031,13.5,17.923c5.412-0.109,10.388-7.404,14.058-19.233
				c2.522-8.127,3.812-18.298,3.812-28.566v-10.143C369.99,298.036,363.721,305.812,356.977,306.317z"/>
			<path style="fill:#8C837C;" d="M392.741,306.317c6.612,0.495,12.533-6.099,16.977-17.211
				c4.386,11.867,10.051,19.235,16.15,19.691c5.986,0.448,11.351-5.85,15.382-16.452c3.98,11.285,9.124,18.286,14.667,18.701
				c5.445,0.408,10.329-5.621,14.001-15.756v8.761c0,8.87-0.966,17.532-2.873,24.382c-2.823,10.138-6.742,16.399-11.128,16.31
				c-4.449-0.09-8.535-6.689-11.544-17.388c-2.066-7.345-3.123-16.541-3.123-25.833v0c0,9.292-1.06,18.363-3.154,25.535
				c-3.1,10.618-7.406,17.176-12.228,17.079c-4.895-0.099-9.393-7.028-12.709-18.264c-2.277-7.716-3.442-17.375-3.442-27.131v0
				c0,9.756-1.169,19.277-3.478,26.802c-3.42,11.146-8.173,18.031-13.5,17.923c-5.412-0.109-10.388-7.404-14.058-19.233
				c-2.522-8.127-3.812-18.298-3.812-28.566v-10.143C379.729,298.036,385.998,305.812,392.741,306.317z"/>
		</g>
		<path style="fill:#FFFFFF;" d="M80.352,166.789h113.04c0,0-3.446-10.824-15.089-8.427c-2.089-12.975-20.415-19.701-29.997-12.612
			c-8.748-18.346-34.79-11.3-37.336,10.246C92.774,152.013,80.352,166.789,80.352,166.789z"/>
		<path style="fill:#FFFFFF;" d="M354.097,149.036H477.95c0,0-8.56-18.947-24.421-15.16c-4.156-15.986-26.448-16.932-34.695-0.886
			c-17.18-9.196-30.937,5.904-30.937,5.904S368.851,135.26,354.097,149.036z"/>
		<g>
			<ellipse style="fill:#B89564;" cx="237.746" cy="393.675" rx="68.772" ry="12.382"/>
			<g>
				<path style="fill:#BABABA;" d="M237.883,213.928v-0.006c-0.046,0-0.091,0.003-0.137,0.003c-0.046,0-0.091-0.003-0.137-0.003
					v0.006c-24.876,0.138-46.777,18.991-46.777,18.991c2.301,30.698,17.698,60.832,17.698,60.832h58.434
					c0,0,15.397-30.133,17.698-60.832C284.66,232.919,262.759,214.067,237.883,213.928z"/>
				<path style="fill:#FFFFFF;" d="M268.967,268.975v-50.497l-31.221-8.347l-31.221,8.347v50.497L182.82,390.741
					c11.635,5.838,24.852,9.851,54.926,9.851s43.291-4.014,54.926-9.851L268.967,268.975z"/>
				<path style="fill:#E3E3E3;" d="M271.394,282.491h-67.5l-10.27,52.754c13.228,2.653,27.713,3.946,42.892,3.536
					c16.016-0.433,31.165-2.712,44.792-6.411l-8.305-42.66L271.394,282.491z"/>
				<g>
					<g>
						<g>
							<path style="fill:#757575;" d="M303.101,234.319c0,0,3.9-10.027-0.414-25.873l-10.14,6.755
								C292.547,215.201,295.519,233.277,303.101,234.319z"/>
							<path style="fill:#FF9999;" d="M296.548,207.226l7.406-5.163c0,0,0.249-1.078,1.244-1.658
								c0.995-0.58,5.472-1.472,5.472-1.472l2.238-4.461h5.127l-1.626,6.95l-9.94,4.952l-9.921,12.105
								C296.548,218.478,294.365,209.487,296.548,207.226z"/>
							
								<line style="fill:none;stroke:#B55757;stroke-width:0.5023;stroke-miterlimit:10;" x1="314.136" y1="194.472" x2="312.565" y2="199.566"/>
							
								<line style="fill:none;stroke:#B55757;stroke-width:0.5023;stroke-miterlimit:10;" x1="315.474" y1="194.472" x2="313.904" y2="199.566"/>
							
								<line style="fill:none;stroke:#B55757;stroke-width:0.5023;stroke-miterlimit:10;" x1="316.813" y1="194.472" x2="315.243" y2="199.566"/>
							<path style="fill:#E3E3E3;" d="M285.306,213.758l11.242-6.533c0,0-0.676,12.315,6.553,27.094c0,0-17.77,6.31-23.593,7.879
								c-7.298,1.967-16.63-5.34-16.63-5.34L285.306,213.758z"/>
							<path style="fill:#BABABA;" d="M283.824,216.694c0,0-3.867,7.663-5.452,12.241s-5.282,8.011-11.533,6.339
								S283.824,216.694,283.824,216.694z"/>
							<path style="fill:none;stroke:#BABABA;stroke-width:0.5023;stroke-miterlimit:10;" d="M284.535,231.576
								c0,0,0.088-8.804,1.144-16.023"/>
						</g>
					</g>
					<g>
						<g>
							<path style="fill:#757575;" d="M172.391,234.319c0,0-3.9-10.027,0.414-25.873l10.14,6.755
								C182.945,215.201,179.973,233.277,172.391,234.319z"/>
							<path style="fill:#FF9999;" d="M178.944,207.226l-7.406-5.163c0,0-0.249-1.078-1.244-1.658s-5.472-1.472-5.472-1.472
								l-2.239-4.461h-5.127l1.626,6.95l9.94,4.952l9.921,12.105C178.944,218.478,181.127,209.487,178.944,207.226z"/>
							
								<line style="fill:none;stroke:#B55757;stroke-width:0.5023;stroke-miterlimit:10;" x1="161.356" y1="194.472" x2="162.927" y2="199.566"/>
							
								<line style="fill:none;stroke:#B55757;stroke-width:0.5023;stroke-miterlimit:10;" x1="160.017" y1="194.472" x2="161.588" y2="199.566"/>
							
								<line style="fill:none;stroke:#B55757;stroke-width:0.5023;stroke-miterlimit:10;" x1="158.678" y1="194.472" x2="160.249" y2="199.566"/>
							<path style="fill:#E3E3E3;" d="M190.186,213.758l-11.242-6.533c0,0,0.676,12.315-6.553,27.094c0,0,17.77,6.31,23.593,7.879
								c7.298,1.967,16.63-5.34,16.63-5.34L190.186,213.758z"/>
							<path style="fill:#BABABA;" d="M191.667,216.694c0,0,3.867,7.663,5.452,12.241c1.585,4.578,5.282,8.011,11.533,6.339
								S191.667,216.694,191.667,216.694z"/>
							<path style="fill:none;stroke:#BABABA;stroke-width:0.5023;stroke-miterlimit:10;" d="M190.956,231.576
								c0,0-0.088-8.804-1.144-16.023"/>
						</g>
					</g>
				</g>
				<path style="fill:#FFFFFF;" d="M271.282,268.921v-54.242l-33.536-8.966l-33.536,8.966v54.242l-11.573,59.444
					c2.265,0.566,4.587,1.075,6.933,1.557l8.534-41.477l-2.921,29.515c-0.722,7.299,4.537,13.893,11.831,14.667
					c6.707,0.711,13.637,1.086,20.731,1.086c16.112,0,31.392-1.918,45.108-5.348L271.282,268.921z"/>
				<path style="fill:#E3E3E3;" d="M237.746,205.713l-33.536,8.966v20.355c11.698,12.075,27.299,22.366,33.536,22.366
					s21.838-10.292,33.536-22.366v-20.355L237.746,205.713z"/>
				<path style="fill:#FFFFFF;" d="M276.509,210.921l-7.268-6.11c0,0-9.03-24.005-17.179-35.352c0,0-1.762-25.07-14.316-25.07
					c-12.554,0-14.316,25.07-14.316,25.07c-8.149,11.348-17.179,35.352-17.179,35.352l-7.268,6.11l-8.81,2.837
					c7.709,17.458,38.102,39.717,47.573,39.717c9.471,0,39.864-22.259,47.573-39.717L276.509,210.921z"/>
				<path style="fill:#E3E3E3;" d="M206.525,205.889c0,0,10.291,27.03,29.363,27.03s30.323-15.916,30.323-15.916
					s-15.966,13.831-29.843,12.486C222.492,228.144,206.525,205.889,206.525,205.889z"/>
				<g>
					<path style="fill:#FF9999;" d="M237.746,151.128c-3.308,0.156-5.541,2.77-6.662,4.494c-0.563,0.866-0.821,1.876-0.757,2.899
						c0.135,2.145,0.405,6.167,0.634,7.786c0.32,2.257,4.634,5.604,6.784,5.604c2.151,0,6.465-3.347,6.784-5.604
						c0.229-1.619,0.5-5.641,0.634-7.786c0.064-1.023-0.194-2.033-0.757-2.899C243.287,153.898,241.054,151.284,237.746,151.128z"/>
					<path style="fill:#E3E3E3;" d="M237.746,153.928c2.182,0,4.247,0.331,6.113,0.912c-1.232-1.638-3.276-3.578-6.113-3.712
						c-2.837,0.134-4.88,2.074-6.113,3.712C233.499,154.259,235.564,153.928,237.746,153.928z"/>
					<g>
						<path style="fill:none;stroke:#000000;stroke-width:0.75;stroke-miterlimit:10;" d="M231.68,158.61c0,0,1.812-0.755,4.178,0"
							/>
						<path style="fill:none;stroke:#000000;stroke-width:0.75;stroke-miterlimit:10;" d="M243.812,158.61c0,0-1.812-0.755-4.178,0"
							/>
					</g>
					<g>
						<circle cx="233.788" cy="161.038" r="0.881"/>
						<circle cx="241.704" cy="161.038" r="0.881"/>
					</g>
					<polyline style="fill:none;stroke:#B55757;stroke-width:0.5263;stroke-miterlimit:10;" points="237.746,159.165 
						236.784,163.499 238.855,163.536 					"/>
					<path style="fill:#FFFFFF;" d="M236.277,165.033h2.938c0,0-0.51,3.007-1.469,3.007
						C236.786,168.04,236.277,165.033,236.277,165.033z"/>
				</g>
			</g>
		</g>
		<g>
			<ellipse style="fill:#B89564;" cx="580.735" cy="398.927" rx="68.772" ry="12.382"/>
			<g>
				<path style="fill:#E3E3E3;" d="M580.715,149.532l-54.538,39.146c13.575,61.922,54.538,123.669,54.538,123.669
					s40.963-61.748,54.538-123.669L580.715,149.532z"/>
				<path style="fill:#203140;" d="M571.531,115.944c0,0-5.561-9.943,0-11.853c-0.562-4.719,4.607-6.573,10.224-5.056
					c5.618,1.517,9.674,3.889,9.887,8.196c0.239,4.84-1.798,8.713-1.798,8.713l-9.484,10.315L571.531,115.944z"/>
				<g>
					<path style="fill:#D6745E;" d="M574.598,116.88c0.254,1.812-0.779,3.454-2.307,3.668c-1.528,0.214-3.05-1.635-3.303-3.446
						c-0.254-1.812,0.692-3.119,2.385-3.114C572.915,113.991,574.344,115.068,574.598,116.88z"/>
					<path style="fill:#D6745E;" d="M586.74,116.88c-0.254,1.812,0.779,3.454,2.307,3.668c1.528,0.214,3.05-1.635,3.303-3.446
						c0.254-1.812-0.692-3.119-2.385-3.114C588.423,113.991,586.993,115.068,586.74,116.88z"/>
				</g>
				<path style="fill:#FFFFFF;" d="M611.856,211.974l6.078-38.883h-37.219h-37.219l6.078,38.883l-21.677,183.678
					c12.299,6.83,33.899,7.91,52.818,7.91c18.919,0,40.519-1.08,52.818-7.91L611.856,211.974z"/>
				<path style="fill:#E3E3E3;" d="M527.897,395.653c2.313,1.285,4.956,2.365,7.848,3.274l19.115-127.408l-13.049,6.239
					L527.897,395.653z"/>
				<path style="fill:#BABABA;" d="M618.221,265.904l-1.096-9.286l-77.089,36.176l-3.511,29.752
					C579.627,302.335,610.671,273.324,618.221,265.904z"/>
				<path style="fill:#EB9D7A;" d="M632.862,173.091l-8.221-19.354c-2.782-6.55-8.328-11.529-15.139-13.591l-21.561-6.527
					l-1.147-10.44l-6.078,0.769l-6.078-0.769l-1.147,10.44l-21.561,6.527c-6.812,2.062-12.357,7.04-15.139,13.591l-8.221,19.354
					H632.862z"/>
				<path style="fill:#E3E3E3;" d="M530.461,164.821l6.241-15.005c1.778-4.275,5.327-7.565,9.725-9.015l15.015-4.951
					c0,0,15.966,10.679,33.519,13.111C594.96,148.961,555.626,171.166,530.461,164.821z"/>
				<path style="fill:none;stroke:#BABABA;stroke-width:0.75;stroke-miterlimit:10;" d="M560.118,138.216
					c0,0,8.764,5.275,15.58,8.237"/>
				<path style="fill:#BABABA;" d="M576.072,143.502c-15.523,7.495-36.292,11.992-42.227,13.182l-3.385,8.137
					c25.165,6.344,64.499-15.861,64.499-15.861C588.142,148.016,581.569,145.827,576.072,143.502z"/>
				<polygon style="fill:#D6745E;" points="632.862,173.091 637.224,183.272 622.833,203.793 608.566,173.091 				"/>
				<polygon style="fill:#D6745E;" points="528.608,173.091 524.246,183.272 538.637,203.793 552.903,173.091 				"/>
				<path style="fill:#FFFFFF;" d="M619.839,263.128l-6.222-52.727l6.393-40.897h-39.147h-39.147l6.393,40.897l-12.363,104.759
					C569.762,302.428,606.669,273.851,619.839,263.128z"/>
				<path style="fill:#BABABA;" d="M580.862,169.504h-39.147l4.461,28.537c7.899-0.366,42.91-2.472,71.234-11.904l2.6-16.633
					H580.862z"/>
				<path style="fill:#E3E3E3;" d="M613.984,213.515c-5.605,4.379-11.53,8.425-17.529,12.287
					c-6.674,4.272-13.514,8.277-20.446,12.105c-3.503,1.849-6.964,3.77-10.518,5.518l-5.305,2.665l-5.359,2.553l-2.678,1.276
					l-2.708,1.214l-5.415,2.424c-0.354,0.154-0.711,0.3-1.065,0.453l-0.703,5.958c1.295-0.608,2.591-1.213,3.878-1.838l5.375-2.673
					l2.686-1.338l2.655-1.4l5.307-2.799l5.247-2.909c3.513-1.91,6.93-3.992,10.385-6c6.837-4.146,13.566-8.464,20.116-13.042
					c5.59-3.931,11.065-7.994,16.32-12.393L613.984,213.515z"/>
				<path style="fill:#D6745E;" d="M574.636,123.179l-0.453,4.119c2.036,2.647,6.881,7.551,13.673,5.559l-1.063-9.678l-6.078,0.769
					L574.636,123.179z"/>
				<path style="fill:#EB9D7A;" d="M587.883,108.405c0,0-9.507,2.044-13.816-0.933c-0.058,2.741-1.262,4.576-2.085,5.518
					c0.491,3.63,1.038,7.564,1.377,9.664c0.39,2.42,2.43,3.875,4.256,4.707c1.943,0.886,4.164,0.886,6.107,0
					c1.826-0.832,3.865-2.287,4.256-4.707c0.36-2.233,0.956-6.537,1.469-10.345C588.17,110.592,587.883,108.405,587.883,108.405z"/>
				<g>
					<g>
						<path style="fill:none;stroke:#A65A49;stroke-width:0.5;stroke-miterlimit:10;" d="M574.822,115.228c0,0,1.265,1.17,3.58,0"/>
						<path style="fill:none;stroke:#A65A49;stroke-width:0.5;stroke-miterlimit:10;" d="M586.516,115.228c0,0-1.265,1.17-3.58,0"/>
					</g>
					<path style="fill:none;stroke:#A65A49;stroke-width:0.5;stroke-miterlimit:10;" d="M580.066,113.987v2.474
						c0,0.196-0.031,0.39-0.091,0.577l-0.625,1.938c0,0,1.193,0.334,2.363,0"/>
					<path style="fill:none;stroke:#A65A49;stroke-width:0.5;stroke-miterlimit:10;" d="M577.948,120.789c0,0,2.912,1.193,5.442,0"
						/>
				</g>
				<g>
					<path style="fill:none;stroke:#203140;stroke-miterlimit:10;" d="M574.33,112.689c0,0,2.227-0.742,4.572,0.178"/>
					<path style="fill:none;stroke:#203140;stroke-miterlimit:10;" d="M587.008,112.689c0,0-2.227-0.742-4.572,0.178"/>
				</g>
				<path style="fill:#FFFFFF;" d="M531.413,159.716c0,0,37.004-7.975,62.916-24.943l15.673,4.66
					c6.714,1.996,12.207,6.85,15.014,13.268l8.829,20.19c0,0-56.708,30.277-116.293,22.864L531.413,159.716z"/>
				<path style="fill:none;stroke:#E3E3E3;stroke-width:0.75;stroke-miterlimit:10;" d="M625.192,164.158
					c0,0-56.217,22.465-102.857,19.159"/>
				<g>
					<path style="fill:#EB9D7A;" d="M535.852,191.903c-6.503-11.523-24.311-40.981-24.311-40.981s1.543-2.755-8.597-7.494
						l-4.078-8.045h-6.723l2.365,10.05c0.181,0.768,0.636,1.443,1.28,1.898l9.139,6.457c0,0,10.36,38.244,13.005,47.501
						c2.645,9.258,10.004,11.682,16.097,8.162C539.827,206.102,540.526,200.187,535.852,191.903z"/>
					
						<line style="fill:none;stroke:#A65A49;stroke-width:0.5;stroke-miterlimit:10;" x1="500.619" y1="143.465" x2="497.752" y2="135.382"/>
					
						<line style="fill:none;stroke:#A65A49;stroke-width:0.5;stroke-miterlimit:10;" x1="498.218" y1="143.465" x2="495.794" y2="135.382"/>
					
						<line style="fill:none;stroke:#A65A49;stroke-width:0.5;stroke-miterlimit:10;" x1="496.226" y1="143.465" x2="493.837" y2="135.382"/>
				</g>
				<path style="fill:none;stroke:#E3E3E3;stroke-width:0.75;stroke-miterlimit:10;" d="M599.856,139.424
					c0,0-29.922,19.845-70.152,24.734"/>
				<g>
					<path style="fill:#EB9D7A;" d="M625.618,191.903c6.503-11.523,24.311-40.981,24.311-40.981s-1.543-2.755,8.597-7.494
						l4.078-8.045h6.723l-2.365,10.05c-0.181,0.768-0.636,1.443-1.28,1.898l-9.139,6.457c0,0-10.36,38.244-13.005,47.501
						s-10.004,11.682-16.097,8.162C621.642,206.102,620.943,200.187,625.618,191.903z"/>
					
						<line style="fill:none;stroke:#A65A49;stroke-width:0.5;stroke-miterlimit:10;" x1="660.851" y1="143.465" x2="663.718" y2="135.382"/>
					
						<line style="fill:none;stroke:#A65A49;stroke-width:0.5;stroke-miterlimit:10;" x1="663.252" y1="143.465" x2="665.676" y2="135.382"/>
					
						<line style="fill:none;stroke:#A65A49;stroke-width:0.5;stroke-miterlimit:10;" x1="665.244" y1="143.465" x2="667.633" y2="135.382"/>
				</g>
			</g>
		</g>
		<g>
			<ellipse style="fill:#B89564;" cx="467.481" cy="372.49" rx="46.974" ry="9.482"/>
			<g>
				<path style="fill:#FFFFFF;" d="M501.268,371.34c0-4.597-13.088-127.587-13.088-127.587l-20.695-4.12v-0.002l-0.004,0.001
					l-0.004-0.001v0.002l-20.695,4.12c0,0-13.088,122.99-13.088,127.587c0,4.596,17.382,6.994,33.783,6.995v0
					c0.001,0,0.003,0,0.004,0s0.003,0,0.004,0v0C483.886,378.335,501.268,375.936,501.268,371.34z"/>
				<path style="fill:#BABABA;" d="M493.918,298.118c-2.982-28.469-5.738-54.365-5.738-54.365l-20.695-4.12v-0.002l-0.004,0.001
					l-0.004-0.001v0.002l-20.695,4.12c0,0-7.884,74.093-11.414,109.409C463.213,339.604,483.555,313.694,493.918,298.118z"/>
				<path style="fill:#403620;" d="M473.502,182.058c-1.238-1.381-3.291-2.749-6.016-2.749c-2.725,0-4.779,1.368-6.016,2.749
					c-1.366,1.525-1.95,3.688-1.66,5.795l0.679,4.934l6.997,0.674l6.997-0.674l0.679-4.934
					C475.452,185.747,474.868,183.583,473.502,182.058z"/>
				<g>
					
						<ellipse transform="matrix(0.9546 -0.2979 0.2979 0.9546 -36.5442 145.9362)" style="fill:#C96161;" cx="460.411" cy="192.836" rx="1.854" ry="2.562"/>
					
						<ellipse transform="matrix(0.2979 -0.9546 0.9546 0.2979 149.0886 588.3882)" style="fill:#C96161;" cx="474.561" cy="192.836" rx="2.562" ry="1.854"/>
				</g>
				<path style="fill:#D47878;" d="M491.482,216.293c-3.555-6.009-13.335-9.621-17.34-10.887c-1.078-0.341-1.867-1.242-2.052-2.338
					l-0.708-4.206h-7.794l-0.708,4.206c-0.184,1.096-0.974,1.997-2.052,2.338c-4.005,1.266-13.785,4.878-17.34,10.887
					c-5.112,8.642-9.526,34.732-9.526,34.732h67.044C501.008,251.026,496.594,224.936,491.482,216.293z"/>
				<path style="fill:#FFFFFF;" d="M495.653,292.671c-3.043-29.01-5.742-54.371-5.742-54.371l-22.425-4.465v-0.002l-0.004,0.001
					l-0.004-0.001v0.002l-22.425,4.465c0,0-7.169,67.367-11.313,108.099C463.757,334.204,485.85,306.728,495.653,292.671z"/>
				<path style="fill:#BABABA;" d="M467.481,233.834l-0.004-0.001v0.002l-22.425,4.465c0,0-0.976,9.17-2.415,22.782
					c18.728-5.306,36.863-15.381,47.371-21.865c-0.063-0.59-0.097-0.917-0.097-0.917l-22.425-4.465v-0.002L467.481,233.834z"/>
				<path style="fill:#E3E3E3;" d="M473.472,211.313c-3.684,0.065-11.541-3.165-15.995-5.143c-4.857,1.877-11.671,5.237-14.56,10.12
					c-1.429,2.415-2.804,6.139-4.053,10.292C449.815,222.304,477.75,211.237,473.472,211.313z"/>
				<path style="fill:#BABABA;" d="M441.713,218.658c-0.996,2.21-1.955,4.952-2.85,7.923c10.952-4.278,38.887-15.344,34.609-15.269
					c-2.089,0.037-5.521-0.987-8.913-2.24C457.073,212.768,443.246,218.073,441.713,218.658z"/>
				<path style="fill:#FFFFFF;" d="M441.084,219.128c-4.588,10.943-7.377,32.724-7.377,32.724h12.464
					c12.174-3.676,33.967-10.902,51.818-20.305c-1.6-6.197-3.521-12.274-5.549-15.703c-3.221-5.446-11.373-8.992-16.147-10.675
					C469.211,208.409,451.342,216.375,441.084,219.128z"/>
				<path style="fill:#E3E3E3;" d="M466.856,224.712c5.179-2.097,10.248-4.461,15.218-7.008l3.708-1.95l3.637-2.08l0.904-0.52
					c-0.144-0.146-0.293-0.29-0.443-0.433l-0.764,0.424l-3.652,2.016l-3.722,1.886c-4.988,2.46-10.069,4.736-15.256,6.745
					c-5.176,2.032-10.423,3.885-15.733,5.536c-4.545,1.405-9.144,2.685-13.761,3.774c-0.118,0.534-0.233,1.065-0.345,1.596
					c4.896-1.212,9.707-2.626,14.485-4.182C456.444,228.774,461.688,226.832,466.856,224.712z"/>
				<path style="fill:#E3E3E3;" d="M496.593,226.497c-3.941,2.086-7.925,4.086-11.991,5.918c-5.592,2.549-11.253,4.949-16.998,7.13
					c-5.737,2.2-11.529,4.253-17.372,6.143c-5.406,1.742-10.876,3.37-16.34,4.8c-0.122,0.867-0.186,1.364-0.186,1.364h5.902
					c3.834-1.207,7.632-2.484,11.417-3.827c5.826-2.075,11.591-4.312,17.295-6.694c5.712-2.362,11.332-4.942,16.876-7.669
					c3.964-1.928,7.846-4.02,11.681-6.193C496.783,227.143,496.689,226.819,496.593,226.497z"/>
				<path style="fill:#C96161;" d="M463.264,200.792c1.216,1.84,4.449,5.657,9.038,2.966c-0.096-0.219-0.171-0.448-0.211-0.69
					l-0.708-4.206h-7.794L463.264,200.792z"/>
				<path style="fill:#FF9191;" d="M472.657,186.533c-0.126-0.732-0.852-1.194-1.564-0.983c-0.95,0.282-2.276,0.583-3.608,0.583
					s-2.657-0.301-3.607-0.583c-0.712-0.211-1.439,0.25-1.564,0.983c-0.183,1.069-0.541,2.458-1.215,3.207v3.959
					c0,1.339,0.338,2.659,1.018,3.793c1.039,1.733,2.855,3.938,5.368,3.938c2.514,0,4.33-2.206,5.369-3.938
					c0.68-1.134,1.018-2.454,1.018-3.793v-3.959C473.198,188.991,472.841,187.602,472.657,186.533z"/>
				<g>
					<path style="fill:none;stroke:#784141;stroke-width:0.4429;stroke-miterlimit:10;" d="M463.187,190.972
						c0,0,1.331,0.968,3.119,0.276"/>
					<path style="fill:none;stroke:#784141;stroke-width:0.4429;stroke-miterlimit:10;" d="M471.784,190.972
						c0,0-1.331,0.968-3.119,0.276"/>
				</g>
				<g>
					<path style="fill:none;stroke:#403620;stroke-width:0.75;stroke-miterlimit:10;" d="M463.102,189.274
						c0,0,1.317-0.761,3.46,0.311"/>
					<path style="fill:none;stroke:#403620;stroke-width:0.75;stroke-miterlimit:10;" d="M471.87,189.274
						c0,0-1.317-0.761-3.46,0.311"/>
				</g>
				<polyline style="fill:none;stroke:#784141;stroke-width:0.4292;stroke-miterlimit:10;" points="467.09,190.479 467.231,191.235 
					466.921,194.515 468.409,194.515 				"/>
				<path style="fill:#FFFFFF;" d="M465.486,195.525h4c0,0-0.656,2.294-2,2.294S465.486,195.525,465.486,195.525z"/>
				<g>
					<g>
						<path style="fill:#FF9191;" d="M458.114,227.875c0,0-0.851-3.454,0.002-6.156l0.928,0.266c0,0-0.18,1.128-0.135,1.624
							c0,0,0.519-3.428,1.917-4.623l4.51,1.579c0,0-1.24,3.337-1.533,5.953c-0.293,2.616-1.962,3.495-1.962,3.495
							s-10.325,18.207-13.38,23.766c-3.055,5.56-10.365,6.388-13.053,3.089s-2.893-9.199,4.56-14.697
							C446.514,237.343,458.114,227.875,458.114,227.875z"/>
						<path style="fill:none;stroke:#784141;stroke-width:0.25;stroke-miterlimit:10;" d="M459.89,224.458
							c0,0,0.566-3.362,1.917-5.09"/>
						<path style="fill:none;stroke:#784141;stroke-width:0.25;stroke-miterlimit:10;" d="M461.057,224.838
							c0,0,0.566-3.363,1.917-5.09"/>
						<path style="fill:none;stroke:#784141;stroke-width:0.25;stroke-miterlimit:10;" d="M462.225,225.218
							c0,0,0.566-3.362,1.917-5.09"/>
					</g>
					<g>
						<path style="fill:#FF9191;" d="M476.857,227.875c0,0,0.851-3.454-0.002-6.156l-0.928,0.266c0,0,0.18,1.128,0.135,1.624
							c0,0-0.519-3.428-1.917-4.623l-4.51,1.579c0,0,1.24,3.337,1.533,5.953s1.962,3.495,1.962,3.495s10.325,18.207,13.38,23.766
							c3.055,5.56,10.365,6.388,13.053,3.089c2.688-3.299,2.893-9.199-4.56-14.697C488.457,237.343,476.857,227.875,476.857,227.875
							z"/>
						<path style="fill:none;stroke:#784141;stroke-width:0.25;stroke-miterlimit:10;" d="M475.081,224.458
							c0,0-0.566-3.362-1.917-5.09"/>
						<path style="fill:none;stroke:#784141;stroke-width:0.25;stroke-miterlimit:10;" d="M473.914,224.838
							c0,0-0.566-3.363-1.917-5.09"/>
						<path style="fill:none;stroke:#784141;stroke-width:0.25;stroke-miterlimit:10;" d="M472.746,225.218
							c0,0-0.566-3.362-1.917-5.09"/>
					</g>
				</g>
			</g>
		</g>
	</g>
</g>
</svg>
