<?xml version="1.0" standalone="no"?>
<!DOCTYPE svg PUBLIC "-//W3C//DTD SVG 20010904//EN"
 "http://www.w3.org/TR/2001/REC-SVG-20010904/DTD/svg10.dtd">
<svg version="1.0" xmlns="http://www.w3.org/2000/svg"
 width="438.000000pt" height="432.000000pt" viewBox="0 0 438.000000 432.000000"
 preserveAspectRatio="xMidYMid meet">

<g transform="translate(0.000000,432.000000) scale(0.100000,-0.100000)"
fill="#000000" stroke="none">
<path d="M0 2161 l0 -2161 2190 0 2190 0 0 2160 0 2160 -2103 0 c-2053 0
-2104 0 -2121 -19 -13 -15 -14 -20 -4 -24 10 -4 10 -6 0 -6 -8 -1 -10 -9 -6
-26 6 -25 -9 -35 -21 -14 -4 6 -13 8 -21 5 -8 -3 -14 -2 -14 3 0 4 -11 6 -25
3 -20 -3 -24 -1 -19 12 3 9 10 16 14 16 4 0 7 10 6 23 -1 17 -8 23 -33 25
l-33 3 0 -2160z m2935 1859 c3 -5 1 -10 -4 -10 -6 0 -11 5 -11 10 0 6 2 10 4
10 3 0 8 -4 11 -10z m1060 -158 c-3 -8 -5 -20 -5 -28 0 -11 -4 -12 -19 -5 -10
6 -22 7 -26 3 -5 -4 -5 1 -2 11 4 10 7 22 7 27 0 4 11 7 25 6 17 -1 23 -6 20
-14z m-1922 1 c9 -9 -13 -34 -24 -27 -14 8 -11 34 4 34 8 0 17 -3 20 -7z
m-1308 -264 c4 -6 20 -7 38 -3 31 6 32 6 14 -14 -13 -14 -16 -27 -11 -48 7
-26 6 -28 -10 -15 -9 8 -30 14 -46 13 -29 -1 -29 0 -15 22 9 13 13 31 9 40 -7
18 11 22 21 5z m1740 -22 c427 -96 792 -382 990 -776 57 -114 110 -271 132
-395 24 -128 23 -389 -1 -516 -99 -519 -463 -944 -957 -1118 -81 -28 -238 -66
-319 -76 -19 -2 -37 -5 -40 -6 -3 -1 -55 -2 -115 -2 -645 0 -1209 411 -1404
1025 -48 150 -64 261 -64 437 0 182 17 294 70 455 161 490 565 858 1063 968
161 36 155 36 355 32 147 -3 200 -8 290 -28z m891 -68 c3 -27 -12 -42 -35 -34
-14 4 -21 15 -21 31 0 22 4 25 27 22 15 -2 27 -10 29 -19z m613 -134 c6 3 11
1 11 -5 0 -8 6 -8 21 0 27 15 36 5 17 -17 -10 -11 -14 -31 -12 -50 4 -32 -8
-44 -21 -22 -4 6 -13 8 -20 5 -8 -3 -15 0 -17 6 -3 8 -10 7 -26 -1 -24 -13
-30 0 -8 18 10 8 13 26 10 53 -3 40 -3 40 16 23 10 -9 24 -14 29 -10z m-3609
-430 c0 -8 -7 -15 -15 -15 -8 0 -15 7 -15 15 0 8 7 15 15 15 8 0 15 -7 15 -15z
m3594 -208 c26 4 28 2 17 -11 -8 -9 -11 -29 -9 -45 3 -21 1 -28 -9 -24 -7 3
-13 9 -13 13 0 5 -13 7 -30 5 -16 -2 -30 0 -30 5 0 6 5 10 11 10 8 0 10 12 6
36 -6 34 -5 35 11 21 10 -8 29 -13 46 -10z m-3741 -266 c4 -1 18 -1 31 -1 24
0 24 -1 10 -27 -7 -16 -14 -36 -14 -45 0 -18 -11 -23 -24 -11 -4 4 -19 9 -34
11 -33 4 -38 8 -24 24 11 14 12 17 12 48 0 17 3 19 18 11 9 -5 20 -9 25 -10z
m3867 -223 c12 4 13 3 2 -10 -7 -9 -9 -23 -6 -33 6 -14 4 -16 -12 -8 -10 6
-24 9 -30 6 -7 -2 -9 8 -6 26 3 24 7 29 21 22 9 -5 23 -6 31 -3z m-3842 -563
c1 -1 -2 -14 -9 -28 -10 -22 -14 -24 -33 -14 -11 7 -22 13 -24 13 -1 1 3 13 9
27 10 23 15 25 33 15 12 -6 22 -12 24 -13z m102 -330 c0 -19 -20 -29 -31 -18
-14 14 0 43 17 36 8 -3 14 -11 14 -18z m3189 -397 c10 16 10 16 11 -1 0 -16 2
-16 30 -2 34 18 40 7 10 -20 -11 -10 -17 -22 -14 -26 3 -5 0 -9 -6 -9 -6 0 -5
-11 5 -30 22 -43 19 -47 -15 -15 -20 19 -30 24 -30 14 0 -12 -2 -12 -9 0 -7
11 -13 11 -32 -3 -38 -26 -45 -19 -14 14 19 20 24 30 14 30 -11 0 -12 2 -1 9
12 7 11 14 -2 39 -24 46 -19 51 14 15 26 -29 30 -31 39 -15z m718 -72 c1 -1
-1 -13 -4 -27 -4 -21 -9 -25 -32 -21 -24 3 -27 7 -23 33 4 25 7 28 31 23 14
-4 27 -7 28 -8z m-3657 -431 c0 -8 -7 -15 -15 -15 -8 0 -15 7 -15 15 0 8 7 15
15 15 8 0 15 -7 15 -15z m2842 -150 c0 -5 -5 -11 -11 -13 -6 -2 -11 4 -11 13
0 9 5 15 11 13 6 -2 11 -8 11 -13z"/>
<path d="M2238 3273 c-18 -5 -40 -65 -32 -87 3 -7 16 -18 30 -24 13 -7 24 -17
24 -23 0 -32 -191 -237 -250 -269 -21 -11 -22 -10 -15 6 4 11 9 46 12 79 4 50
2 64 -14 84 -39 48 -100 -2 -91 -75 2 -17 10 -30 20 -32 20 -4 58 32 58 55 0
15 -2 14 -20 -2 -22 -20 -53 -14 -44 9 11 28 46 31 67 5 32 -40 15 -99 -60
-209 -21 -29 -23 -31 98 63 97 74 201 183 230 240 21 41 30 45 49 22 7 -9 15
-13 17 -11 6 6 -49 176 -57 175 -3 -1 -13 -3 -22 -6z m30 -60 c4 -26 -1 -28
-29 -13 -27 15 -25 42 4 38 14 -2 23 -11 25 -25z"/>
<path d="M1740 3104 c0 -38 24 -63 48 -48 22 14 29 39 9 31 -10 -4 -23 4 -36
21 l-20 27 -1 -31z"/>
<path d="M2466 3112 c-11 -18 1 -77 19 -92 19 -16 49 -9 53 12 2 12 -5 17 -25
20 -24 2 -29 9 -33 38 -4 24 -8 31 -14 22z"/>
<path d="M1482 3050 c14 -22 24 -19 15 5 -4 8 -11 15 -17 15 -6 0 -6 -7 2 -20z"/>
<path d="M2740 2991 c-168 -56 -199 -68 -415 -163 -146 -63 -219 -108 -203
-123 3 -4 64 23 134 58 141 70 292 132 509 209 77 27 144 53 150 59 19 19 -34
7 -175 -40z"/>
<path d="M1406 3015 c-11 -8 -16 -15 -10 -15 5 0 18 7 28 15 11 8 16 15 10 15
-5 0 -18 -7 -28 -15z"/>
<path d="M2921 2966 c-7 -8 -15 -31 -18 -51 -5 -32 -2 -40 18 -55 20 -16 22
-21 12 -43 -21 -46 -137 -159 -265 -259 -164 -128 -170 -144 -13 -37 96 65
175 138 251 231 l63 79 20 -32 c17 -27 21 -30 27 -16 3 10 -3 32 -15 52 -13
22 -21 53 -21 80 0 34 -5 47 -19 55 -25 13 -26 13 -40 -4z m33 -42 c13 -33 7
-45 -14 -34 -23 12 -27 50 -6 50 8 0 17 -7 20 -16z"/>
<path d="M1416 2945 c-19 -15 -19 -15 2 -15 13 0 22 6 22 15 0 18 0 18 -24 0z"/>
<path d="M1526 2946 c4 -11 0 -16 -10 -16 -9 0 -16 -4 -16 -9 0 -5 9 -7 20 -4
21 6 27 28 10 38 -6 3 -7 -1 -4 -9z"/>
<path d="M1325 2930 c-7 -12 2 -30 16 -30 12 0 12 27 0 35 -5 3 -12 1 -16 -5z"/>
<path d="M1380 2882 c0 -12 19 -26 26 -19 2 2 -2 10 -11 17 -9 8 -15 8 -15 2z"/>
<path d="M1590 2871 c-12 -24 -3 -73 21 -123 25 -49 24 -58 -5 -58 -29 0 -39
12 -60 75 -28 86 -37 87 -30 5 5 -62 4 -78 -9 -89 -26 -21 -34 -6 -40 77 -2
44 -11 90 -18 103 -13 22 -15 15 -20 -71 -3 -52 -6 -87 -7 -77 -3 23 -22 22
-22 -2 0 -11 9 -40 20 -66 39 -91 24 -119 -57 -103 -45 9 -54 15 -64 42 l-12
31 -11 -46 c-6 -26 -21 -55 -34 -65 -12 -11 -37 -41 -55 -68 -43 -66 -80 -94
-102 -76 -17 14 -19 7 -5 -21 17 -30 46 -22 82 22 58 73 106 124 112 119 3 -3
8 -64 11 -135 7 -144 0 -172 -33 -141 -11 9 -23 28 -26 42 -13 51 -58 24 -106
-64 -31 -57 -45 -62 -67 -23 -10 17 -20 31 -23 31 -3 0 -10 -16 -16 -35 -11
-36 -7 -44 13 -24 8 8 14 5 23 -11 19 -36 51 -22 83 37 16 29 37 58 48 63 16
9 21 6 36 -25 10 -21 27 -38 40 -41 34 -9 29 -20 -27 -60 -28 -20 -49 -41 -47
-47 2 -7 29 -18 61 -25 54 -14 56 -15 41 -32 -27 -30 -116 -63 -185 -68 -60
-4 -68 -2 -97 22 -26 22 -33 36 -36 74 -3 38 -4 35 -5 -20 -3 -100 29 -125
147 -116 139 10 275 137 181 169 -16 6 -30 13 -30 14 0 2 10 20 22 40 l21 37
21 -43 c30 -63 71 -82 166 -76 51 3 96 14 139 32 65 27 80 25 81 -14 0 -8 6
-11 16 -7 9 3 42 6 73 6 44 0 66 6 92 23 69 46 58 127 -18 127 -46 0 -84 -21
-117 -65 -26 -33 -29 -35 -41 -19 -12 17 -18 16 -94 -14 -63 -24 -98 -32 -148
-32 -61 0 -67 2 -99 34 -20 20 -34 44 -34 58 0 34 10 41 31 22 26 -23 61 -14
84 23 24 39 29 40 43 9 35 -78 224 -52 377 54 49 34 61 59 17 36 -64 -33 -139
-28 -168 12 -18 24 -8 32 40 32 32 0 48 6 64 23 35 38 27 48 -20 27 -24 -11
-50 -20 -59 -20 -23 0 -69 -38 -69 -57 0 -8 14 -28 31 -44 17 -16 28 -33 25
-37 -7 -12 -86 -32 -126 -32 -44 0 -89 26 -90 52 0 4 24 19 53 34 115 58 152
128 107 202 -34 55 -100 38 -100 -26 0 -22 18 -32 61 -32 17 0 29 -5 29 -13 0
-21 -72 -84 -120 -106 l-45 -20 -6 22 c-3 12 -6 64 -8 115 -2 85 -1 92 17 92
11 0 25 7 32 15 9 10 24 13 54 9 31 -5 45 -2 55 10 10 12 18 13 33 5 31 -16
48 -4 48 35 0 19 -4 38 -10 41 -6 4 -10 -5 -10 -19 0 -16 -6 -26 -15 -26 -8 0
-15 9 -15 20 0 11 -4 20 -10 20 -5 0 -10 -4 -10 -9 0 -16 -31 -41 -51 -41 -10
0 -19 7 -19 15 0 23 -16 18 -38 -12 -18 -25 -22 -26 -46 -15 -29 13 -33 33
-11 59 8 10 21 27 28 37 14 19 14 19 35 -2 29 -29 58 -28 78 3 16 24 16 30 -3
100 -11 41 -16 75 -12 75 21 0 84 -70 111 -124 23 -46 33 -80 38 -141 6 -76 7
-78 15 -40 11 53 -8 162 -39 223 -28 54 -79 106 -118 121 -23 9 -29 7 -38 -8z
m-181 -392 c22 27 30 31 37 20 12 -19 19 -239 7 -239 -5 0 -18 -7 -29 -15 -18
-14 -17 -15 10 -9 26 6 27 5 17 -15 -17 -31 -59 -28 -72 5 -9 25 -11 26 -28
10 -17 -16 -19 -15 -25 15 -3 17 -6 84 -6 148 l1 116 30 -35 30 -35 28 34z
m495 -335 c22 -21 20 -31 -8 -49 -31 -20 -131 -32 -140 -16 -11 17 13 52 47
66 43 19 82 18 101 -1z"/>
<path d="M1382 2413 c-18 -8 -31 -18 -28 -20 5 -5 76 24 76 31 0 10 -13 6 -48
-11z"/>
<path d="M1354 2353 c-17 -17 -16 -18 14 -21 18 -2 32 -7 32 -13 0 -5 -4 -9
-8 -9 -5 0 -17 -7 -28 -15 -18 -13 -18 -14 -1 -15 23 0 67 47 67 71 0 25 -52
26 -76 2z"/>
<path d="M1370 2846 c0 -2 7 -7 16 -10 8 -3 12 -2 9 4 -6 10 -25 14 -25 6z"/>
<path d="M1384 2765 c-7 -19 -14 -43 -14 -54 0 -33 -19 -71 -34 -71 -19 0 -25
11 -35 62 l-9 43 -1 -40 c-1 -55 18 -90 49 -90 23 0 26 6 36 63 6 34 19 71 28
80 18 21 21 42 5 42 -5 0 -17 -16 -25 -35z"/>
<path d="M1987 2689 c-14 -58 -14 -63 9 -137 52 -170 102 -428 118 -605 l7
-68 -108 -108 c-215 -215 -445 -334 -584 -301 -128 31 -139 131 -40 360 23 51
39 95 37 98 -8 8 -66 -103 -95 -183 -42 -117 -57 -216 -42 -288 16 -76 48
-113 116 -133 100 -28 225 14 390 132 169 120 262 219 328 349 l30 60 18 -105
c53 -324 205 -490 511 -560 42 -10 80 -15 83 -12 3 3 5 35 5 72 l0 67 -57 16
c-77 21 -146 67 -178 116 -41 66 -35 76 81 134 96 48 161 69 408 132 321 80
325 83 341 183 l7 42 -109 -7 c-139 -10 -793 -9 -856 1 -59 9 -55 16 46 82 76
51 187 105 276 135 65 23 71 23 71 4 0 -8 5 -15 10 -15 6 0 10 11 10 24 0 24
20 32 160 64 29 6 39 16 59 55 14 29 21 56 17 70 -8 33 -119 151 -160 171 -38
18 -92 21 -130 6 -59 -22 -86 -134 -51 -217 8 -19 15 -37 15 -39 0 -2 -57 -31
-126 -64 -204 -97 -287 -166 -352 -295 l-30 -59 -6 64 c-41 378 -98 627 -178
768 -16 28 -31 52 -33 52 -1 0 -9 -27 -18 -61z m881 -305 c23 -14 42 -28 42
-33 0 -12 -69 -41 -99 -41 -23 0 -34 8 -50 36 -12 19 -21 41 -21 49 0 32 61
27 128 -11z m-378 -579 c80 -3 178 -8 219 -11 l75 -6 -93 -45 c-136 -65 -201
-138 -219 -245 -4 -23 -12 -43 -18 -45 -17 -6 -109 83 -139 133 -31 53 -75
177 -75 212 0 24 2 25 53 18 28 -3 117 -8 197 -11z"/>
<path d="M1206 2705 c-11 -8 -15 -15 -10 -15 6 0 19 7 30 15 10 8 15 14 9 14
-5 0 -19 -6 -29 -14z"/>
<path d="M1695 2680 c-16 -7 -17 -9 -3 -9 9 -1 20 4 23 9 7 11 7 11 -20 0z"/>
<path d="M1192 2653 c-29 -14 -51 -27 -49 -30 3 -2 31 9 63 26 71 36 60 39
-14 4z"/>
<path d="M2385 2638 c3 -24 8 -55 10 -69 2 -15 -2 -35 -9 -45 -12 -15 -18 -16
-40 -6 -14 6 -28 22 -30 34 -3 13 -10 41 -15 63 -10 36 -10 34 -6 -27 5 -77
16 -104 46 -113 15 -5 28 0 46 18 22 22 28 23 55 13 26 -10 32 -8 49 13 24 30
24 51 -2 106 -39 82 -55 64 -18 -19 21 -49 19 -66 -10 -66 -26 0 -36 17 -51
78 -15 65 -33 80 -25 20z"/>
<path d="M3097 2611 c-4 -17 -3 -21 5 -13 5 5 8 16 6 23 -3 8 -7 3 -11 -10z"/>
<path d="M1240 2606 c0 -12 -5 -16 -15 -12 -9 3 -15 0 -15 -9 0 -20 39 -19 47
1 3 8 1 20 -6 27 -8 8 -11 6 -11 -7z"/>
<path d="M1380 2590 c0 -5 5 -10 11 -10 5 0 7 5 4 10 -3 6 -8 10 -11 10 -2 0
-4 -4 -4 -10z"/>
<path d="M3064 2535 c-13 -53 36 -106 79 -83 28 14 20 33 -15 33 -28 0 -33 4
-39 33 -9 44 -17 50 -25 17z"/>
<path d="M1140 2510 c13 -23 20 -26 20 -6 0 8 -7 16 -15 20 -13 4 -14 2 -5
-14z"/>
<path d="M1525 2450 c3 -5 11 -10 16 -10 6 0 7 5 4 10 -3 6 -11 10 -16 10 -6
0 -7 -4 -4 -10z"/>
<path d="M1775 2420 c-22 -11 -29 -17 -15 -14 29 8 80 33 65 33 -5 0 -28 -8
-50 -19z"/>
<path d="M1120 2410 c0 -5 5 -10 10 -10 6 0 10 5 10 10 0 6 -4 10 -10 10 -5 0
-10 -4 -10 -10z"/>
<path d="M1240 2416 c0 -2 7 -9 15 -16 13 -11 14 -10 9 4 -5 14 -24 23 -24 12z"/>
<path d="M1565 2391 c-22 -11 -33 -20 -25 -20 8 0 31 8 50 19 45 25 27 25 -25
1z"/>
<path d="M2560 2366 c-132 -52 -231 -101 -283 -142 -26 -20 -46 -39 -43 -41 2
-2 48 18 102 45 55 27 136 64 182 83 74 30 163 88 137 88 -5 0 -48 -15 -95
-33z"/>
<path d="M1221 2353 c-14 -30 -7 -43 23 -43 31 0 36 8 24 35 -15 34 -34 37
-47 8z m39 -25 c0 -6 -6 -5 -15 2 -8 7 -15 14 -15 16 0 2 7 1 15 -2 8 -4 15
-11 15 -16z"/>
<path d="M1169 2280 c-13 -10 -19 -19 -13 -20 6 0 19 9 29 20 23 26 14 26 -16
0z"/>
<path d="M1642 2278 c-6 -13 -11 -17 -11 -10 -1 6 -8 12 -16 12 -14 0 -13 -3
2 -25 10 -13 20 -25 23 -25 3 0 10 16 16 35 12 39 3 47 -14 13z"/>
<path d="M1070 2253 c0 -18 5 -33 10 -33 13 0 13 30 0 50 -7 11 -10 7 -10 -17z"/>
<path d="M3243 2221 c-6 -10 -15 -40 -18 -67 -11 -73 -20 -81 -34 -32 -18 62
-38 88 -66 88 -33 0 -34 -33 0 -48 27 -12 49 -49 60 -100 5 -27 9 -31 21 -21
7 6 16 27 19 48 3 20 10 53 16 74 10 36 12 38 40 32 22 -5 29 -3 29 9 0 14
-28 36 -47 36 -4 0 -13 -8 -20 -19z"/>
<path d="M1682 2149 c-29 -12 -51 -23 -49 -25 4 -4 107 33 116 42 9 9 -16 2
-67 -17z"/>
<path d="M1495 2140 c-3 -5 -22 -10 -41 -10 -28 0 -35 -4 -32 -17 4 -21 58
-32 58 -12 0 8 10 9 30 5 22 -4 32 -1 37 10 6 18 5 19 -24 28 -12 4 -24 2 -28
-4z"/>
<path d="M1112 2082 c-35 -14 -59 -28 -54 -30 11 -3 110 35 127 50 16 14 -7 8
-73 -20z"/>
<path d="M1124 2019 c-3 -6 -15 -9 -25 -6 -23 6 -35 -9 -14 -17 8 -3 15 -12
15 -21 0 -8 5 -15 10 -15 6 0 10 8 10 17 0 9 7 25 17 35 9 10 11 18 5 18 -6 0
-14 -5 -18 -11z"/>
<path d="M1633 2001 c1 -21 8 -36 17 -39 12 -4 13 -2 3 9 -6 8 -13 25 -16 39
-4 17 -5 15 -4 -9z"/>
<path d="M1181 1974 c0 -11 3 -14 6 -6 3 7 2 16 -1 19 -3 4 -6 -2 -5 -13z"/>
<path d="M1026 1955 c4 -8 10 -15 15 -15 4 0 6 7 3 15 -4 8 -10 15 -15 15 -4
0 -6 -7 -3 -15z"/>
<path d="M1656 1838 c-8 -13 -18 -50 -22 -83 l-7 -60 -23 52 c-24 54 -62 79
-86 55 -20 -20 -4 -47 27 -47 26 0 31 -6 48 -50 10 -27 22 -54 27 -58 8 -9 30
75 30 114 0 34 19 61 40 54 23 -7 36 11 20 30 -18 21 -37 18 -54 -7z"/>
<path d="M1120 1741 c-6 -17 -10 -36 -8 -43 3 -7 10 4 17 25 16 46 9 60 -9 18z"/>
<path d="M1100 1639 c0 -57 44 -94 73 -61 30 36 29 41 -8 35 -26 -4 -35 -2
-35 9 0 8 -7 23 -15 34 -13 18 -14 17 -15 -17z"/>
<path d="M3012 1554 c-32 -22 -27 -34 13 -27 44 7 44 -3 -1 -47 -40 -39 -54
-68 -54 -111 0 -29 1 -29 55 -29 62 0 146 29 190 65 38 32 24 31 -54 0 -46
-19 -77 -25 -114 -23 -70 4 -74 26 -14 81 43 41 67 75 67 96 0 17 -63 13 -88
-5z"/>
<path d="M2032 1528 c-17 -17 -15 -28 6 -29 12 0 9 -4 -9 -12 -69 -31 -70 -43
-34 -247 18 -104 24 -123 24 -85 1 28 -6 82 -14 120 -8 39 -15 91 -15 117 0
54 15 64 80 53 41 -7 45 -3 40 35 -2 19 -40 60 -55 60 -6 0 -16 -5 -23 -12z"/>
</g>
</svg>
