<?xml version="1.0" encoding="utf-8"?>
<!-- Generator: Adobe Illustrator 27.5.0, SVG Export Plug-In . SVG Version: 6.00 Build 0)  -->
<svg version="1.1" xmlns="http://www.w3.org/2000/svg" xmlns:xlink="http://www.w3.org/1999/xlink" x="0px" y="0px"
	 viewBox="0 0 500 500" style="enable-background:new 0 0 500 500;" xml:space="preserve">
<g id="BACKGROUND">
	<rect style="fill:#FFFFFF;" width="500" height="500"/>
</g>
<g id="OBJECTS">
	<g>
		<g>
			<circle style="fill:#E9D4E4;" cx="460.637" cy="244.461" r="19.226"/>
			
				<ellipse transform="matrix(0.9213 -0.3889 0.3889 0.9213 -49.4851 28.0725)" style="fill:#E9D4E4;" cx="44.608" cy="136.284" rx="12.427" ry="12.427"/>
			<circle style="fill:#E9D4E4;" cx="373.446" cy="96.411" r="29.715"/>
			<path style="fill:#E9D4E4;" d="M66.989,440.002h340.927c15.356-10.502,31.18-26.295,41.077-50.099
				c17.393-41.83-21.936-75.557-46.772-104.286c-24.836-28.729,20.908-76.073,17.216-107.874
				c-3.692-31.801-42.57-55.511-85.019-40.217c-42.449,15.294-47.469-3.565-68.284-40.003
				C245.32,61.086,145.556,31.011,88.916,108.51c-56.64,77.499-2.002,136.22-8.408,163.935
				c-6.406,27.715-56.146,36.14-59.404,89.479C19.216,392.831,44.982,421.42,66.989,440.002z"/>
		</g>
		<g>
			<g>
				<g>
					<g>
						<polygon style="fill:#D18089;" points="250.519,206.162 242.928,208.937 243.706,196.625 						"/>
						<path style="fill:#FFFFFF;stroke:#0F110E;stroke-miterlimit:10;" d="M243.218,164.107l12.158-8.277
							c8.083-5.503,19.822-2.475,26.087,6.728l12.83,18.847c0.362,0.531,0.691,1.074,1.001,1.622
							c0.509,0.466,0.978,0.99,1.383,1.585l7.81,11.473l0.435,0.639l7.81,11.473c2.834,4.163,1.747,9.888-2.417,12.722l-4.823,3.283
							c-4.163,2.834-9.888,1.747-12.722-2.417l-6.912-10.153l-7.03,4.786c-8.083,5.503-19.822,2.475-26.087-6.728l-12.83-18.847
							C233.647,181.641,235.135,169.609,243.218,164.107z"/>
						<g>
							<path style="fill:#0F110E;" d="M260.198,190.348c1.246,1.311,1.194,3.384-0.117,4.63c-1.311,1.246-3.384,1.194-4.63-0.117
								c-1.246-1.311-1.194-3.384,0.117-4.63C256.879,188.985,258.952,189.037,260.198,190.348z"/>
							<g>
								<g>
									<path style="fill:#263238;" d="M261.359,217.382c2.232-0.532,3.975-2.585,4.748-4.642c0.464-1.234,0.632-2.568,0.637-3.881
										c0.003-0.676-1.047-0.677-1.05,0c-0.007,1.893-0.404,3.839-1.577,5.371c-0.676,0.883-1.522,1.533-2.542,1.974
										c0.131-0.057-0.095,0.036-0.15,0.057c-0.061,0.022-0.123,0.044-0.185,0.063c-0.053,0.016-0.106,0.033-0.159,0.046
										C260.423,216.526,260.701,217.539,261.359,217.382L261.359,217.382z"/>
								</g>
							</g>
						</g>
						<g>
							<path style="fill:#0F110E;" d="M262.365,164.941c0,0-18.173,18.616-32.289,12.41c-14.116-6.206-9.998-21.418,1.998-27.549
								c0,0-12.167-5.914-3.7-14.966c8.466-9.052,27.137-0.786,27.137-0.786s23.066-22.817,48.248-6.102
								c24.866,16.505,19.717,39.127,15.203,50.814c-4.414,11.429-13.973,18.381-14.338,18.311l-12.552-22.713
								C292.072,174.36,273.297,182.165,262.365,164.941z"/>
							<circle style="fill:#D58001;" cx="311.272" cy="124.021" r="6.24"/>
							<g>
								<g>
									<path style="fill:#0F110E;" d="M318.724,113.166c-0.77-6.654,1.628-14.364,7.238-18.314
										c3.597-2.533,7.614-3.226,11.887-2.496c3.721,0.636,7.313,1.546,11.118,1.012c2.491-0.35,4.873-1.214,7.109-2.353
										c2.954-1.505,5.446-3.598,8.17-5.448c3.918-2.661,8.421-4.422,13.128-5.006c9.203-1.142,18.5,2.051,25.813,7.573
										c7.369,5.565,13.008,13.729,14.69,22.887c1.975,10.751-2.408,20.829-9.451,28.819c-6.525,7.402-15.85,12.482-25.932,10.803
										c-7.938-1.322-15.088-6.417-19.114-13.36c-0.978-1.686-1.766-3.476-2.318-5.345c-0.666-2.256-0.823-4.649-1.934-6.762
										c-1.985-3.779-5.806-3.253-9.206-1.86c-4.367,1.789-8.458,4.357-13.343,4.202c-5.501-0.174-10.99-2.934-14.485-7.169
										c-1.754-2.125-2.916-4.636-3.391-7.349c-0.138-0.791-1.343-0.456-1.205,0.332c1.857,10.62,14.409,17.895,24.605,14.657
										c2.279-0.724,4.426-1.8,6.598-2.787c1.83-0.832,3.923-1.866,5.989-1.776c2.403,0.105,3.527,2.302,4.122,4.364
										c0.631,2.188,0.911,4.403,1.756,6.537c3.012,7.602,9.505,13.679,17.198,16.386c8.963,3.154,18.551,0.999,25.971-4.732
										c4.856-3.75,8.943-8.772,11.874-14.15c2.415-4.431,3.843-9.374,3.997-14.427c0.289-9.484-3.897-18.607-10.309-25.445
										c-6.423-6.85-15.217-11.662-24.606-12.685c-4.686-0.511-9.491-0.003-13.936,1.584c-2.332,0.832-4.564,1.941-6.638,3.294
										c-2.82,1.84-5.348,4.037-8.347,5.615c-4.439,2.334-9.014,2.974-13.917,2.086c-3.688-0.668-7.311-1.579-11.045-0.632
										c-9.021,2.287-13.436,11.257-13.426,19.964c0.001,0.659,0.014,1.326,0.09,1.981
										C317.565,113.956,318.817,113.965,318.724,113.166z"/>
								</g>
							</g>
						</g>
						<g>
							<path style="fill:#FFFFFF;" d="M308.287,168.903c3.61,5.302,2.202,12.551-3.144,16.19
								c-5.346,3.639-12.606,2.291-16.215-3.012c-3.61-5.302-2.202-12.551,3.144-16.19
								C297.417,162.252,304.677,163.6,308.287,168.903z"/>
							<g>
								<g>
									<path style="fill:#0F110E;" d="M294.606,179.953c0.166,0.214,0.004,0.001-0.044-0.067
										c-0.105-0.151-0.204-0.307-0.299-0.465c-0.285-0.477-0.531-0.978-0.716-1.502c-0.529-1.497-0.573-3.132,0.247-4.536
										c0.696-1.192,1.836-2.023,3.029-2.67c0.594-0.322,0.065-1.229-0.53-0.907c-2.104,1.14-3.908,2.91-4.163,5.393
										c-0.162,1.577,0.335,3.176,1.103,4.54c0.188,0.334,0.395,0.655,0.63,0.957C294.277,181.228,295.016,180.48,294.606,179.953
										L294.606,179.953z"/>
								</g>
							</g>
						</g>
					</g>
					<g>
						<g>
							<line style="fill:none;stroke:#010001;stroke-miterlimit:10;" x1="286.2" y1="175.09" x2="281.884" y2="190.639"/>
							<line style="fill:none;stroke:#010001;stroke-miterlimit:10;" x1="298.58" y1="187.796" x2="283.901" y2="195.348"/>
						</g>
						<g>
							<path style="fill:#FFFFFF;" d="M284.16,213.371c5.303-8.346-2.275-22.733-2.275-22.733s-11.191,8.57-23.073,10.848
								c-6.77,1.298-14.549-0.833-15.786,1.267c-0.884,1.5-0.087,7.867,2.714,10.855C255.34,223.851,274.885,227.968,284.16,213.371
								z"/>
							<g>
								<g>
									<path style="fill:#6040D3;" d="M268.392,201.784l11.758,1.441l-7.128,9.462L268.392,201.784z M270.066,203.045l3.211,7.561
										l4.943-6.562L270.066,203.045z"/>
								</g>
								<path style="fill:#6040D3;" d="M242.882,203.085c0.042-0.127,0.089-0.238,0.143-0.331c0.133-0.225,0.354-0.393,0.628-0.531
									l4.221,1.285l-0.401-1.727c0.348,0.006,0.709,0.016,1.083,0.029l0.75,3.23L242.882,203.085z"/>
								<path style="fill:#6040D3;" d="M248.166,210.692l11.758,1.442l-5.76,7.646c-0.318-0.158-0.636-0.316-0.948-0.484
									l4.779-6.344l-8.154-1l3.037,7.152c-0.517-0.286-1.024-0.588-1.522-0.902L248.166,210.692z"/>
								<path style="fill:#6040D3;" d="M258.197,201.586c0.205-0.033,0.412-0.06,0.615-0.099c0.204-0.039,0.406-0.084,0.609-0.127
									l3.249,3.475l1.45-4.765c0.411-0.138,0.821-0.28,1.226-0.428l-2.202,7.235L258.197,201.586z"/>
								<path style="fill:#6040D3;" d="M264.759,214.877l11.758,1.442l-4.448,5.905c-0.516,0.127-1.035,0.24-1.559,0.328
									l4.078-5.414l-8.154-1l2.797,6.588c-0.366,0.04-0.734,0.065-1.102,0.087L264.759,214.877z"/>
								<path style="fill:#6040D3;" d="M285.071,199.114l-2.454,0.57l3.236,3.462c0.07,0.563,0.121,1.13,0.152,1.697l-5.394-5.769
									l4.185-0.972C284.891,198.433,284.983,198.771,285.071,199.114z"/>
							</g>
							<g>
								<g>
									<path style="fill:#D58001;" d="M263.671,212.55c-0.782-1.116-0.51-2.659,0.606-3.441s2.659-0.51,3.441,0.606
										c0.782,1.116,0.51,2.659-0.606,3.441C265.996,213.938,264.453,213.666,263.671,212.55z M264.529,211.949
										c0.45,0.643,1.339,0.799,1.981,0.349c0.643-0.45,0.799-1.339,0.349-1.981s-1.339-0.799-1.981-0.349
										C264.236,210.418,264.079,211.307,264.529,211.949z"/>
								</g>
								<g>
									<path style="fill:#D58001;" d="M253.41,207.286c-0.688-0.982-0.449-2.341,0.533-3.029c0.982-0.688,2.341-0.449,3.029,0.533
										c0.688,0.982,0.449,2.341-0.533,3.029C255.457,208.508,254.098,208.268,253.41,207.286z M254.269,206.685
										c0.356,0.509,1.061,0.633,1.569,0.276c0.509-0.356,0.633-1.061,0.276-1.569c-0.356-0.509-1.061-0.633-1.569-0.276
										C254.036,205.472,253.912,206.176,254.269,206.685z"/>
								</g>
								<g>
									<path style="fill:#D58001;" d="M279.535,211.947c-0.895-1.277-0.584-3.044,0.693-3.939
										c1.277-0.895,3.044-0.584,3.939,0.693c0.895,1.277,0.584,3.045-0.693,3.939
										C282.197,213.535,280.43,213.224,279.535,211.947z M280.393,211.345c0.563,0.804,1.676,1,2.48,0.437
										c0.804-0.563,1-1.676,0.437-2.48c-0.563-0.804-1.676-1-2.48-0.436C280.026,209.429,279.83,210.542,280.393,211.345z"/>
								</g>
								<path style="fill:#D58001;" d="M244.474,211.804c0.328-0.059,0.649-0.182,0.939-0.386c1.074-0.752,1.335-2.238,0.583-3.312
									c-0.692-0.987-2-1.277-3.041-0.735c-0.069-0.368-0.125-0.728-0.168-1.077c1.441-0.572,3.139-0.113,4.067,1.21
									c1.084,1.547,0.707,3.687-0.84,4.771c-0.303,0.212-0.632,0.353-0.969,0.455C244.842,212.438,244.65,212.13,244.474,211.804z
									"/>
								<path style="fill:#D58001;" d="M258.957,218.256c1.521-1.066,3.626-0.695,4.692,0.826c0.772,1.102,0.781,2.506,0.154,3.604
									c-0.387-0.045-0.773-0.102-1.158-0.164c0.673-0.785,0.766-1.953,0.146-2.839c-0.734-1.048-2.185-1.303-3.233-0.569
									c-0.809,0.567-1.139,1.558-0.913,2.464c-0.371-0.116-0.74-0.241-1.107-0.371
									C257.475,220.081,257.968,218.949,258.957,218.256z"/>
								<path style="fill:#D58001;" d="M272.746,196.416c0.874,1.247,2.6,1.551,3.847,0.677c1.128-0.79,1.474-2.275,0.885-3.475
									c0.307-0.191,0.604-0.378,0.883-0.557c0.882,1.671,0.42,3.778-1.167,4.89c-1.721,1.206-4.101,0.787-5.306-0.934
									c-0.043-0.061-0.068-0.128-0.107-0.19c0.314-0.159,0.624-0.318,0.928-0.477
									C272.723,196.371,272.731,196.395,272.746,196.416z"/>
							</g>
							<path style="fill:none;stroke:#010001;stroke-miterlimit:10;" d="M284.16,213.371c5.303-8.346-2.275-22.733-2.275-22.733
								s-11.191,8.57-23.073,10.848c-6.77,1.298-14.549-0.833-15.786,1.267c-0.884,1.5-0.087,7.867,2.714,10.855
								C255.34,223.851,274.885,227.968,284.16,213.371z"/>
						</g>
					</g>
				</g>
				<g>
					<g>
						<g>
							<path style="fill:#FFFFFF;" d="M411.459,439.886c-6.334-55.883-22.246-100.271-22.246-100.271l-59.077,31.276l19.393,68.995
								H411.459z"/>
							<path style="fill:#D58001;" d="M408.127,439.886h1.75c0-4.134,0-8.267,0-12.401c-0.547-3.869-1.134-7.665-1.75-11.378
								c0,1.737,0,3.474,0,5.212c-5.685,0-11.371,0-17.056,0c0-5.685,0-11.371,0-17.056c4.981,0,9.962,0,14.943,0
								c-0.112-0.586-0.224-1.17-0.336-1.75c-4.869,0-9.737,0-14.606,0c0-5.685,0-11.37,0-17.056c3.665,0,7.329,0,10.994,0
								c-0.135-0.588-0.269-1.171-0.404-1.75c-3.53,0-7.06,0-10.59,0c0-5.685,0-11.371,0-17.056c2.106,0,4.213,0,6.319,0
								c-0.159-0.592-0.316-1.175-0.473-1.75c-1.949,0-3.897,0-5.846,0c0-0.473,0-0.946,0-1.419c0-5.212,0-10.424,0-15.637
								c0.287,0,0.573,0,0.86,0c-0.194-0.616-0.379-1.199-0.555-1.75c-0.102,0-0.203,0-0.305,0c0-0.316,0-0.632,0-0.948
								c-0.894-2.763-1.513-4.555-1.75-5.229c0,2.059,0,4.118,0,6.177c-4.117,0-8.233,0-12.35,0l-3.306,1.75
								c2.172,0,4.344,0,6.516,0c3.046,0,6.093,0,9.139,0c0,2.253,0,4.506,0,6.759c0,3.432,0,6.865,0,10.297
								c-5.685,0-11.371,0-17.056,0c0-0.473,0-0.946,0-1.419c0-4.965,0-9.93,0-14.895l-1.75,0.926c0,1.697,0,3.394,0,5.091
								c0,3.432,0,6.865,0,10.297c-5.685,0-11.37,0-17.056,0c0-0.473,0-0.946,0-1.419c0-1.646,0-3.293,0-4.939l-1.75,0.926
								c0,1.811,0,3.621,0,5.432c-0.473,0-0.946,0-1.419,0c-2.947,0-5.894,0-8.841,0l-3.306,1.75c1.09,0,2.179,0,3.269,0
								c3.432,0,6.865,0,10.297,0c0,5.685,0,11.37,0,17.056c-0.473,0-0.946,0-1.419,0c-5.212,0-10.424,0-15.637,0
								c0-5.069,0-10.139,0-15.208l-1.75,0.927c0,3.77,0,7.54,0,11.31l1.75,6.226c0-0.501,0-1.003,0-1.504c2.253,0,4.506,0,6.759,0
								c3.432,0,6.865,0,10.297,0c0,2.639,0,5.278,0,7.916c0,3.047,0,6.093,0,9.139c-0.473,0-0.946,0-1.419,0
								c-3.755,0-7.51,0-11.265,0l0.492,1.75c0.632,0,1.263,0,1.895,0c3.432,0,6.865,0,10.297,0c0,5.685,0,11.371,0,17.056
								c-0.473,0-0.946,0-1.419,0c-1.993,0-3.986,0-5.979,0l0.492,1.75c2.302,0,4.604,0,6.906,0c0,4.207,0,8.413,0,12.62
								c0,1.399,0,2.798,0,4.197h1.75c0-5.606,0-11.211,0-16.817c5.685,0,11.371,0,17.056,0c0,4.207,0,8.413,0,12.62
								c0,1.399,0,2.798,0,4.197h1.75c0-5.606,0-11.211,0-16.817c2.639,0,5.277,0,7.916,0c3.046,0,6.093,0,9.139,0
								c0,4.207,0,8.413,0,12.62c0,1.399,0,2.798,0,4.197h1.75c0-5.606,0-11.211,0-16.817c5.685,0,11.37,0,17.056,0
								c0,4.207,0,8.413,0,12.62C408.127,437.088,408.127,438.487,408.127,439.886z M370.515,421.319c-5.685,0-11.37,0-17.056,0
								c0-5.685,0-11.371,0-17.056c5.685,0,11.371,0,17.056,0C370.515,409.949,370.515,415.634,370.515,421.319z M370.515,393.374
								c0,3.047,0,6.093,0,9.139c-5.685,0-11.37,0-17.056,0c0-5.685,0-11.37,0-17.056c5.685,0,11.371,0,17.056,0
								C370.515,388.096,370.515,390.735,370.515,393.374z M370.515,383.708c-5.685,0-11.37,0-17.056,0c0-5.685,0-11.371,0-17.056
								c5.685,0,11.371,0,17.056,0C370.515,372.337,370.515,378.022,370.515,383.708z M389.321,421.319c-5.685,0-11.371,0-17.056,0
								c0-5.685,0-11.371,0-17.056c2.639,0,5.277,0,7.916,0c3.046,0,6.093,0,9.139,0
								C389.321,409.949,389.321,415.634,389.321,421.319z M389.321,393.374c0,3.047,0,6.093,0,9.139c-5.685,0-11.371,0-17.056,0
								c0-5.685,0-11.37,0-17.056c2.639,0,5.277,0,7.916,0c3.046,0,6.093,0,9.139,0
								C389.321,388.096,389.321,390.735,389.321,393.374z M389.321,383.708c-5.685,0-11.371,0-17.056,0c0-5.685,0-11.371,0-17.056
								c2.639,0,5.277,0,7.916,0c3.046,0,6.093,0,9.139,0C389.321,372.337,389.321,378.022,389.321,383.708z"/>
							<path style="fill:none;stroke:#0F110E;stroke-miterlimit:10;" d="M411.459,439.886
								c-6.334-55.883-22.246-100.271-22.246-100.271l-59.077,31.276l19.393,68.995H411.459z"/>
						</g>
						<g>
							<g>
								<path style="fill:#6040D3;" d="M322.501,220.08l-23.326,15.959c-2.393,1.638-5.661,1.025-7.299-1.369l-6.764-9.887
									c-1.638-2.393-1.025-5.661,1.369-7.299l23.326-15.959c2.393-1.638,5.661-1.025,7.299,1.369l6.764,9.887
									C325.507,215.175,324.895,218.442,322.501,220.08z"/>
								<path style="fill:none;stroke:#0F110E;stroke-miterlimit:10;" d="M322.501,220.08l-23.326,15.959
									c-2.393,1.638-5.661,1.025-7.299-1.369l-6.764-9.887c-1.638-2.393-1.025-5.661,1.369-7.299l23.326-15.959
									c2.393-1.638,5.661-1.025,7.299,1.369l6.764,9.887C325.507,215.175,324.895,218.442,322.501,220.08z"/>
							</g>
							<g>
								<line style="fill:none;stroke:#0F110E;stroke-miterlimit:10;" x1="286.227" y1="217.579" x2="299.175" y2="236.039"/>
								<line style="fill:none;stroke:#0F110E;stroke-miterlimit:10;" x1="290.87" y1="214.402" x2="303.818" y2="232.863"/>
								<line style="fill:none;stroke:#0F110E;stroke-miterlimit:10;" x1="295.675" y1="211.226" x2="308.623" y2="229.686"/>
								<line style="fill:none;stroke:#0F110E;stroke-miterlimit:10;" x1="300.318" y1="207.805" x2="313.266" y2="226.266"/>
								<line style="fill:none;stroke:#0F110E;stroke-miterlimit:10;" x1="305.775" y1="204.14" x2="318.723" y2="222.6"/>
								<line style="fill:none;stroke:#0F110E;stroke-miterlimit:10;" x1="310.797" y1="200.936" x2="323.528" y2="218.99"/>
							</g>
						</g>
						<g>
							<path style="fill:#FFFFFF;" d="M418.459,439.886c-6.334-55.883-22.246-100.271-22.246-100.271l-59.077,31.276l19.393,68.995
								H418.459z"/>
							<path style="fill:#D58001;" d="M408.127,439.886h1.75c0-5.606,0-11.211,0-16.817c2.118,0,4.236,0,6.354,0
								c-0.088-0.585-0.177-1.169-0.267-1.75c-2.029,0-4.058,0-6.086,0c0-5.685,0-11.371,0-17.056c1.046,0,2.091,0,3.137,0
								c-0.112-0.586-0.224-1.17-0.336-1.75c-0.933,0-1.867,0-2.8,0c0-4.485,0-8.969,0-13.454c-0.582-2.621-1.166-5.166-1.75-7.624
								c0,0.758,0,1.515,0,2.273c-5.685,0-11.371,0-17.056,0c0-5.685,0-11.371,0-17.056c4.44,0,8.879,0,13.319,0
								c-0.159-0.592-0.316-1.175-0.473-1.75c-4.282,0-8.564,0-12.846,0c0-0.473,0-0.946,0-1.419c0-5.212,0-10.424,0-15.637
								c2.62,0,5.24,0,7.86,0c-0.194-0.616-0.379-1.199-0.555-1.75c-2.435,0-4.87,0-7.305,0c0-1.253,0-2.506,0-3.759l-1.75,0.927
								c0,0.944,0,1.888,0,2.832c-1.783,0-3.567,0-5.35,0l-3.306,1.75c2.885,0,5.77,0,8.656,0c0,2.253,0,4.506,0,6.759
								c0,3.432,0,6.865,0,10.297c-5.685,0-11.371,0-17.056,0c0-0.473,0-0.946,0-1.419c0-3.73,0-7.46,0-11.189l-1.75,0.926
								c0,0.462,0,0.923,0,1.385c0,3.432,0,6.865,0,10.297c-5.685,0-11.37,0-17.056,0c0-0.473,0-0.946,0-1.419
								c0-0.411,0-0.822,0-1.233l-1.75,0.926c0,0.575,0,1.151,0,1.726c-0.473,0-0.946,0-1.419,0c-0.614,0-1.228,0-1.841,0
								l-3.306,1.75c2.189,0,4.378,0,6.566,0c0,5.685,0,11.37,0,17.056c-0.473,0-0.946,0-1.419,0c-3.184,0-6.367,0-9.551,0
								l0.492,1.75c0.06,0,0.121,0,0.181,0c3.432,0,6.865,0,10.297,0c0,2.639,0,5.278,0,7.916c0,3.047,0,6.093,0,9.139
								c-0.473,0-0.946,0-1.419,0c-1.422,0-2.844,0-4.265,0l0.492,1.75c1.731,0,3.462,0,5.193,0c0,5.685,0,11.371,0,17.056
								c-0.133,0-0.266,0-0.398,0l2.148,7.643c0-1.965,0-3.929,0-5.893c5.685,0,11.371,0,17.056,0c0,4.207,0,8.413,0,12.62
								c0,1.399,0,2.798,0,4.197h1.75c0-5.606,0-11.211,0-16.817c2.639,0,5.277,0,7.916,0c3.046,0,6.093,0,9.139,0
								c0,4.207,0,8.413,0,12.62c0,1.399,0,2.798,0,4.197h1.75c0-5.606,0-11.211,0-16.817c5.685,0,11.37,0,17.056,0
								c0,4.207,0,8.413,0,12.62C408.127,437.088,408.127,438.487,408.127,439.886z M370.515,421.319c-5.685,0-11.37,0-17.056,0
								c0-5.685,0-11.371,0-17.056c5.685,0,11.371,0,17.056,0C370.515,409.949,370.515,415.634,370.515,421.319z M370.515,393.374
								c0,3.047,0,6.093,0,9.139c-5.685,0-11.37,0-17.056,0c0-5.685,0-11.37,0-17.056c5.685,0,11.371,0,17.056,0
								C370.515,388.096,370.515,390.735,370.515,393.374z M370.515,383.708c-5.685,0-11.37,0-17.056,0c0-5.685,0-11.371,0-17.056
								c5.685,0,11.371,0,17.056,0C370.515,372.337,370.515,378.022,370.515,383.708z M389.321,421.319c-5.685,0-11.371,0-17.056,0
								c0-5.685,0-11.371,0-17.056c2.639,0,5.277,0,7.916,0c3.046,0,6.093,0,9.139,0
								C389.321,409.949,389.321,415.634,389.321,421.319z M389.321,393.374c0,3.047,0,6.093,0,9.139c-5.685,0-11.371,0-17.056,0
								c0-5.685,0-11.37,0-17.056c2.639,0,5.277,0,7.916,0c3.046,0,6.093,0,9.139,0
								C389.321,388.096,389.321,390.735,389.321,393.374z M389.321,383.708c-5.685,0-11.371,0-17.056,0c0-5.685,0-11.371,0-17.056
								c2.639,0,5.277,0,7.916,0c3.046,0,6.093,0,9.139,0C389.321,372.337,389.321,378.022,389.321,383.708z M391.071,385.458
								c5.685,0,11.37,0,17.056,0c0,2.639,0,5.278,0,7.916c0,3.047,0,6.093,0,9.139c-5.685,0-11.371,0-17.056,0
								C391.071,396.828,391.071,391.143,391.071,385.458z M391.071,421.319c0-5.685,0-11.371,0-17.056c5.685,0,11.37,0,17.056,0
								c0,5.685,0,11.371,0,17.056C402.442,421.319,396.756,421.319,391.071,421.319z"/>
							<path style="fill:none;stroke:#0F110E;stroke-miterlimit:10;" d="M418.459,439.886
								c-6.334-55.883-22.246-100.271-22.246-100.271l-59.077,31.276l19.393,68.995H418.459z"/>
						</g>
						<g>
							<g>
								<path style="fill:#6040D3;stroke:#0F110E;stroke-miterlimit:10;" d="M400.118,346.782c0,0,5.647,6.733,4.344,12.814
									c-1.303,6.081-32.145,21.068-45.611,27.366c-13.466,6.299-26.715,9.339-31.059,2.389S400.118,346.782,400.118,346.782z"/>
								<g>
									<line style="fill:none;stroke:#0F110E;stroke-miterlimit:10;" x1="394.268" y1="349.606" x2="401.761" y2="363.126"/>
									<line style="fill:none;stroke:#0F110E;stroke-miterlimit:10;" x1="387.467" y1="352.375" x2="395.286" y2="367.361"/>
									<line style="fill:none;stroke:#0F110E;stroke-miterlimit:10;" x1="380.137" y1="356.284" x2="388.281" y2="371.597"/>
									<line style="fill:none;stroke:#0F110E;stroke-miterlimit:10;" x1="373.458" y1="359.868" x2="381.44" y2="375.18"/>
									<line style="fill:none;stroke:#0F110E;stroke-miterlimit:10;" x1="366.453" y1="362.963" x2="374.815" y2="379.361"/>
									<line style="fill:none;stroke:#0F110E;stroke-miterlimit:10;" x1="359.123" y1="367.036" x2="367.268" y2="382.836"/>
									<line style="fill:none;stroke:#0F110E;stroke-miterlimit:10;" x1="352.119" y1="371.108" x2="359.938" y2="386.42"/>
									<line style="fill:none;stroke:#0F110E;stroke-miterlimit:10;" x1="346.091" y1="374.203" x2="353.096" y2="389.026"/>
									<line style="fill:none;stroke:#0F110E;stroke-miterlimit:10;" x1="340.39" y1="377.787" x2="346.906" y2="391.307"/>
									<line style="fill:none;stroke:#0F110E;stroke-miterlimit:10;" x1="333.874" y1="382.185" x2="339.779" y2="393.14"/>
								</g>
							</g>
							<g>
								<path style="fill:#FFFFFF;stroke:#0F110E;stroke-miterlimit:10;" d="M306.915,219.534c0,0,7.865-8.158,22.48-1.955
									c11.626,4.934,26.888,19.438,50.416,50.905c53.104,71.022,21.176,85.357,4.561,99.692
									c-16.615,14.335-48.869,23.783-58.317,24.108c-9.448,0.326-37.466-37.792-39.421-74.606c-1.955-36.814,7.493-72,7.493-72
									L306.915,219.534z"/>
								<g>
									<path style="fill:#6040D3;" d="M310.906,345.334c0,2.699-2.188,4.887-4.887,4.887c-2.699,0-4.887-2.188-4.887-4.887
										c0-2.699,2.188-4.887,4.887-4.887C308.718,340.447,310.906,342.635,310.906,345.334z"/>
									<circle style="fill:#6040D3;" cx="321.017" cy="323.916" r="4.887"/>
									<path style="fill:#6040D3;" d="M359.571,318.217c0,2.699-2.188,4.887-4.887,4.887c-2.699,0-4.887-2.188-4.887-4.887
										c0-2.699,2.188-4.887,4.887-4.887C357.383,313.33,359.571,315.518,359.571,318.217z"/>
									<circle style="fill:#6040D3;" cx="364.137" cy="366.859" r="4.887"/>
									<path style="fill:#6040D3;" d="M360.076,339.281c0,2.699-2.188,4.887-4.887,4.887c-2.699,0-4.887-2.188-4.887-4.887
										c0-2.699,2.188-4.887,4.887-4.887C357.888,334.394,360.076,336.582,360.076,339.281z"/>
									<path style="fill:#6040D3;" d="M333.274,380.99c0,2.699-2.188,4.887-4.887,4.887c-2.699,0-4.887-2.188-4.887-4.887
										c0-2.699,2.188-4.887,4.887-4.887C331.086,376.103,333.274,378.291,333.274,380.99z"/>
									<path style="fill:#6040D3;" d="M331.757,354.366c0,2.699-2.188,4.887-4.887,4.887c-2.699,0-4.887-2.188-4.887-4.887
										c0-2.699,2.188-4.887,4.887-4.887C329.569,349.479,331.757,351.667,331.757,354.366z"/>
									<path style="fill:#6040D3;" d="M386.169,350.64c0,2.699-2.188,4.887-4.887,4.887c-2.699,0-4.887-2.188-4.887-4.887
										c0-2.699,2.188-4.887,4.887-4.887C383.981,345.754,386.169,347.941,386.169,350.64z"/>
									<path style="fill:#6040D3;" d="M339.026,304.428c0,2.699-2.188,4.887-4.887,4.887c-2.699,0-4.887-2.188-4.887-4.887
										c0-2.699,2.188-4.887,4.887-4.887C336.838,299.541,339.026,301.729,339.026,304.428z"/>
									<path style="fill:#6040D3;" d="M362.691,292.401c0,2.699-2.188,4.887-4.887,4.887c-2.699,0-4.887-2.188-4.887-4.887
										c0-2.699,2.188-4.887,4.887-4.887C360.503,287.515,362.691,289.703,362.691,292.401z"/>
									<path style="fill:#6040D3;" d="M340.217,278.736c0,2.699-2.188,4.887-4.887,4.887c-2.699,0-4.887-2.188-4.887-4.887
										c0-2.699,2.188-4.887,4.887-4.887C338.029,273.849,340.217,276.037,340.217,278.736z"/>
									<path style="fill:#6040D3;" d="M349.699,254.333c0,2.699-2.188,4.887-4.887,4.887c-2.699,0-4.887-2.188-4.887-4.887
										c0-2.699,2.188-4.887,4.887-4.887C347.511,249.446,349.699,251.634,349.699,254.333z"/>
								</g>
							</g>
						</g>
					</g>
					<g>
						<g>
							<path style="fill:#FFFFFF;stroke:#0F110E;stroke-miterlimit:10;" d="M185.096,339.832c0,0-8.063,1.792-7.412,4.887
								c0.652,3.095,6.027,1.955,11.158,2.362c0,0-0.163,5.783,6.76,8.633c6.923,2.851,16.29,4.724,19.629,3.258
								c3.339-1.466,52.289-24.271,57.665-28.262c5.376-3.991-0.407,0.081-0.407,0.081l-17.186-18.081l-43.249,27.285
								C212.055,339.995,191.368,338.447,185.096,339.832z"/>
							<g>
								<g>
									<path style="fill:#6040D3;stroke:#0F110E;stroke-miterlimit:10;" d="M266.491,301.314c0,0-13.357,3.636-14.565,10.26
										c-1.207,6.624,4.927,23.298,13.393,24.629c6.6,1.037,17.033-1.697,19.915-7.519
										C289.187,320.702,266.491,301.314,266.491,301.314z"/>
									<g>
										<line style="fill:none;stroke:#0F110E;stroke-miterlimit:10;" x1="252.02" y1="313.33" x2="269.843" y2="304.575"/>
										<path style="fill:none;stroke:#0F110E;stroke-miterlimit:10;" d="M252.193,317.832
											c0.415-0.007,20.949-10.007,20.949-10.007"/>
										<line style="fill:none;stroke:#0F110E;stroke-miterlimit:10;" x1="276.833" y1="311.644" x2="253.99" y2="322.962"/>
										<line style="fill:none;stroke:#0F110E;stroke-miterlimit:10;" x1="255.882" y1="328.026" x2="280.284" y2="315.419"/>
										<line style="fill:none;stroke:#0F110E;stroke-miterlimit:10;" x1="282.927" y1="319.544" x2="258.859" y2="332.128"/>
										<line style="fill:none;stroke:#0F110E;stroke-miterlimit:10;" x1="262.216" y1="335.059" x2="284.921" y2="324.047"/>
										<line style="fill:none;stroke:#0F110E;stroke-miterlimit:10;" x1="268.007" y1="336.445" x2="285.32" y2="327.762"/>
										<line style="fill:none;stroke:#0F110E;stroke-miterlimit:10;" x1="267.491" y1="302.49" x2="252.787" y2="309.579"/>
									</g>
								</g>
							</g>
						</g>
						<g>
							<g>
								<path style="fill:#FFFFFF;" d="M187.703,348.846l2.661-4.181v-1.14c0,0-5.647-0.326-7.222-0.271
									c-1.575,0.054-5.158-0.869-5.375-2.715c-0.217-1.846,1.846-2.389,3.801-2.281c1.955,0.109,5.864-0.326,7.005-1.357
									c1.14-1.032,4.018-1.846,5.701-1.792c1.683,0.054,11.62,0.272,21.394,1.032c9.774,0.76,25.303-4.398,25.303-4.398
									s7.548-3.258,8.742-4.235c1.195-0.977,1.195-0.706,1.195-0.706s7.547,5.918,11.728,10.099s4.561,6.027,4.996,7.819
									c0.434,1.792,0.271,2.498,0.271,2.498s-19.656,2.769-24.054,3.312c-4.398,0.543-16.724,1.846-16.724,1.846l-13.14,0.706
									c0,0-8.851,7.004-12.706,8.579c-3.855,1.575-8.959,2.986-12.869,1.303c-3.91-1.683-4.67-2.335-5.321-3.584l-0.713-1.656
									c0,0,0.333-1.439-1.893-2.145c-2.226-0.706-3.855-2.389-3.367-4.778c0.489-2.389,7.765-0.869,8.633-0.869
									C186.617,349.932,187.322,349.769,187.703,348.846z"/>
								<path style="fill:none;stroke:#0F110E;stroke-miterlimit:10;" d="M181.947,355.796c0.977,7.928,10.317,8.796,16.941,6.842
									c6.624-1.955,15.095-9.556,15.095-9.556c24.217-0.543,53.864-5.647,53.864-5.647c0.217-9.557-17.376-20.959-17.376-20.959
									c-1.303,2.28-11.403,5.756-20.199,8.253c-8.796,2.498-18.896,1.412-25.412,0.652c-6.516-0.76-14.118-0.326-16.29,1.52
									c-2.172,1.846-5.43,1.412-8.362,1.629s-3.692,2.932,0,4.235c3.692,1.303,10.534,0.652,10.534,0.652
									s-2.389,6.407-5.538,6.407c-3.149,0-7.819-1.303-8.145,1.737c-0.326,3.041,3.367,5.213,13.357,4.887"/>
							</g>
							<g>
								<g>
									<path style="fill:#6040D3;stroke:#0F110E;stroke-miterlimit:10;" d="M261.006,314.095c0,0-12.489,5.973-12.489,12.706
										c0,6.733,9.025,22.037,17.593,21.828c6.679-0.163,16.453-4.724,18.244-10.968
										C286.811,329.098,261.006,314.095,261.006,314.095z"/>
									<g>
										<line style="fill:none;stroke:#0F110E;stroke-miterlimit:10;" x1="248.924" y1="328.511" x2="264.888" y2="316.701"/>
										<path style="fill:none;stroke:#0F110E;stroke-miterlimit:10;" d="M249.902,332.909
											c0.407-0.081,18.814-13.602,18.814-13.602"/>
										<line style="fill:none;stroke:#0F110E;stroke-miterlimit:10;" x1="273.033" y1="322.402" x2="252.589" y2="337.633"/>
										<line style="fill:none;stroke:#0F110E;stroke-miterlimit:10;" x1="255.359" y1="342.276" x2="277.105" y2="325.497"/>
										<line style="fill:none;stroke:#0F110E;stroke-miterlimit:10;" x1="280.444" y1="329.081" x2="259.024" y2="345.778"/>
										<line style="fill:none;stroke:#0F110E;stroke-miterlimit:10;" x1="262.852" y1="348.058" x2="283.214" y2="333.153"/>
										<line style="fill:none;stroke:#0F110E;stroke-miterlimit:10;" x1="268.797" y1="348.384" x2="284.273" y2="336.737"/>
										<line style="fill:none;stroke:#0F110E;stroke-miterlimit:10;" x1="262.2" y1="315.072" x2="249.006" y2="324.683"/>
									</g>
								</g>
								<path style="fill:#FFFFFF;" d="M315.413,221.678c0,0-1.955-8.471-10.642-0.434c-8.688,8.036-31.276,36.706-41.484,63.855
									c0,0-8.905,15.855-9.122,23.457c-0.217,7.602,2.389,13.9,12.163,23.023c9.774,9.122,21.937,11.62,26.498,7.819
									s18.896-18.027,25.412-27.584c6.516-9.556,10.642-18.244,13.032-26.498c2.389-8.253,1.303-24.543-11.511-38.443
									L315.413,221.678z"/>
								<path style="fill:none;stroke:#0F110E;stroke-miterlimit:10;" d="M321.494,249.588
									c29.973,36.489-12.706,72.651-24.109,86.009c-11.403,13.357-31.928-1.955-40.398-14.335
									c-8.47-12.38,3.977-27.727,15.312-54.733c8.536-20.338,23.68-37.217,32.009-44.959c3.512-3.264,5.946-4.235,5.946-4.235"/>
								<g>
									<path style="fill:#6040D3;" d="M299.883,325.497c0,2.699-2.188,4.887-4.887,4.887c-2.699,0-4.887-2.188-4.887-4.887
										c0-2.699,2.188-4.887,4.887-4.887C297.695,320.61,299.883,322.798,299.883,325.497z"/>
									<path style="fill:#6040D3;" d="M274.786,295.749c0,2.699-2.188,4.887-4.887,4.887c-2.699,0-4.887-2.188-4.887-4.887
										c0-2.699,2.188-4.887,4.887-4.887C272.598,290.862,274.786,293.05,274.786,295.749z"/>
									<path style="fill:#6040D3;" d="M298.068,297.488c0,2.699-2.188,4.887-4.887,4.887c-2.699,0-4.887-2.188-4.887-4.887
										c0-2.699,2.188-4.887,4.887-4.887C295.88,292.602,298.068,294.79,298.068,297.488z"/>
									<path style="fill:#6040D3;" d="M324.712,292.189c0,2.699-2.188,4.887-4.887,4.887c-2.699,0-4.887-2.188-4.887-4.887
										c0-2.699,2.188-4.887,4.887-4.887C322.524,287.302,324.712,289.49,324.712,292.189z"/>
									<path style="fill:#6040D3;" d="M316.69,269.058c0,2.699-2.188,4.887-4.887,4.887c-2.699,0-4.887-2.188-4.887-4.887
										c0-2.699,2.188-4.887,4.887-4.887C314.503,264.171,316.69,266.359,316.69,269.058z"/>
									<circle style="fill:#6040D3;" cx="280.267" cy="272.778" r="4.887"/>
									<circle style="fill:#6040D3;" cx="297.353" cy="249.624" r="4.887"/>
									<path style="fill:#6040D3;" d="M275.006,322.091c0,2.699-2.188,4.887-4.887,4.887s-4.887-2.188-4.887-4.887
										c0-2.699,2.188-4.887,4.887-4.887S275.006,319.392,275.006,322.091z"/>
									<path style="fill:#6040D3;" d="M320.257,233.1c0,2.699-2.188,4.887-4.887,4.887c-2.699,0-4.887-2.188-4.887-4.887
										c0-2.699,2.188-4.887,4.887-4.887C318.069,228.213,320.257,230.401,320.257,233.1z"/>
								</g>
							</g>
						</g>
						<g>
							<path style="fill:#FFFFFF;stroke:#6040D3;stroke-miterlimit:10;" d="M227.481,358.318c0,1.912-1.55,3.463-3.462,3.463
								c-1.912,0-3.463-1.55-3.463-3.463s1.55-3.462,3.463-3.462C225.931,354.856,227.481,356.406,227.481,358.318z"/>
							<path style="fill:#FFFFFF;stroke:#6040D3;stroke-miterlimit:10;" d="M181.9,364.918c0,3.355-2.72,6.074-6.074,6.074
								c-3.355,0-6.075-2.72-6.075-6.074s2.72-6.074,6.075-6.074C179.18,358.844,181.9,361.563,181.9,364.918z"/>
							<path style="fill:#FFFFFF;stroke:#6040D3;stroke-miterlimit:10;" d="M247.379,363.373c0,3.938-3.192,7.131-7.131,7.131
								s-7.131-3.193-7.131-7.131c0-3.938,3.193-7.131,7.131-7.131S247.379,359.435,247.379,363.373z"/>
							<circle style="fill:#FFFFFF;stroke:#6040D3;stroke-miterlimit:10;" cx="201.303" cy="348.322" r="1.614"/>
							<path style="fill:#FFFFFF;stroke:#6040D3;stroke-miterlimit:10;" d="M182.66,352.052c1.241,0,2.248-1.007,2.248-2.248
								c0-1.241-1.006-2.248-2.248-2.248c-1.241,0-2.248,1.006-2.248,2.248C180.413,351.045,181.419,352.052,182.66,352.052z"/>
							<path style="fill:#FFFFFF;stroke:#6040D3;stroke-miterlimit:10;" d="M167.214,351.488c1.799,0,3.258-1.459,3.258-3.258
								c0-1.799-1.459-3.258-3.258-3.258c-1.799,0-3.258,1.459-3.258,3.258C163.957,350.03,165.415,351.488,167.214,351.488z"/>
							<path style="fill:#FFFFFF;stroke:#6040D3;stroke-miterlimit:10;" d="M217.002,358.956c0-1.26-0.884-2.31-2.064-2.575
								c0.025-0.097,0.06-0.191,0.06-0.296c0-0.679-0.551-1.23-1.23-1.23c-0.054,0-0.1,0.024-0.152,0.031
								c-0.631-1.115-1.814-1.876-3.187-1.876c-2.02,0-3.657,1.63-3.673,3.647c-0.43-0.227-0.898-0.393-1.4-0.464
								c0.048-0.241,0.075-0.49,0.075-0.745c0-2.088-1.693-3.781-3.782-3.781c-0.442,0-0.859,0.09-1.253,0.229
								c0.006-0.077,0.023-0.151,0.023-0.229c0-1.661-1.346-3.007-3.007-3.007c-1.561,0-2.829,1.194-2.978,2.716
								c-0.063,0.001-0.122,0.014-0.184,0.018c-0.513-1.331-1.796-2.279-3.308-2.279c-1.963,0-3.554,1.591-3.554,3.554
								c0,0.35,0.066,0.682,0.161,1.001c-0.61-0.4-1.336-0.637-2.12-0.637c-1.095,0-2.08,0.459-2.784,1.19
								c-0.373-0.679-1.087-1.145-1.916-1.145c-1.212,0-2.195,0.983-2.195,2.195s0.983,2.195,2.195,2.195
								c0.308,0,0.601-0.065,0.867-0.179c0.195,1.956,1.826,3.489,3.834,3.489c0.873,0,1.669-0.299,2.317-0.787
								c0.622,1.375,1.999,2.336,3.606,2.336c1.016,0,1.933-0.394,2.634-1.022c0.596,0.295,1.257,0.475,1.967,0.475
								c1.906,0,3.522-1.2,4.162-2.882c0.175,0.078,0.36,0.133,0.547,0.184c-0.147,0.435-0.244,0.892-0.244,1.376
								c0,2.39,1.938,4.328,4.328,4.328c0.985,0,1.883-0.342,2.611-0.896c0.543,1.881,2.258,3.266,4.314,3.266
								c2.491,0,4.51-2.019,4.51-4.51c0-0.546-0.107-1.065-0.285-1.548C216.564,360.618,217.002,359.84,217.002,358.956z"/>
							<path style="fill:#FFFFFF;stroke:#6040D3;stroke-miterlimit:10;" d="M221.239,364.924c0,0.78-0.632,1.412-1.412,1.412
								s-1.412-0.632-1.412-1.412s0.632-1.412,1.412-1.412S221.239,364.145,221.239,364.924z"/>
							<circle style="fill:#FFFFFF;stroke:#6040D3;stroke-miterlimit:10;" cx="196.106" cy="343.587" r="2.369"/>
							<path style="fill:#FFFFFF;stroke:#6040D3;stroke-miterlimit:10;" d="M226.357,333.929c-1.443,0-2.612,1.17-2.612,2.612
								s1.169,2.612,2.612,2.612c1.443,0,2.612-1.169,2.612-2.612S227.8,333.929,226.357,333.929z"/>
							<path style="fill:#FFFFFF;stroke:#6040D3;stroke-miterlimit:10;" d="M222.013,330.426c1.007,0,1.822-0.816,1.822-1.822
								c0-1.007-0.816-1.822-1.822-1.822c-1.006,0-1.822,0.816-1.822,1.822C220.191,329.61,221.007,330.426,222.013,330.426z"/>
							<path style="fill:#FFFFFF;stroke:#6040D3;stroke-miterlimit:10;" d="M220.526,340.368c-0.531,0-1.016,0.181-1.41,0.475
								c-0.045-1.307-0.726-2.448-1.752-3.12c1.613-0.756,2.737-2.382,2.737-4.281c0-2.126-1.41-3.904-3.339-4.504
								c0.917-0.723,1.517-1.831,1.517-3.089c0-2.181-1.768-3.949-3.949-3.949c-1.786,0-3.278,1.194-3.766,2.822
								c-0.538-0.246-1.132-0.392-1.762-0.392c-2.11,0-3.848,1.541-4.182,3.556c-0.719-0.973-1.865-1.612-3.168-1.612
								c-2.181,0-3.949,1.768-3.949,3.949c0,1.048,0.415,1.994,1.081,2.701c-1.422,0.616-2.418,2.029-2.418,3.677
								c0,2.214,1.795,4.009,4.009,4.009c0.488,0,0.949-0.1,1.381-0.259c-0.019,0.146-0.045,0.29-0.045,0.441
								c0,1.912,1.55,3.463,3.463,3.463c0.319,0,0.623-0.057,0.916-0.138c-0.146,0.49-0.248,0.998-0.248,1.535
								c0,2.986,2.421,5.407,5.406,5.407c2.986,0,5.406-2.421,5.406-5.407c0-0.333-0.04-0.656-0.098-0.972
								c0.761-0.23,1.418-0.68,1.903-1.285c0.287,0.986,1.186,1.71,2.265,1.71c1.308,0,2.369-1.061,2.369-2.369
								C222.895,341.428,221.834,340.368,220.526,340.368z"/>
							<path style="fill:#FFFFFF;stroke:#6040D3;stroke-miterlimit:10;" d="M238.309,326.855c0,2.309-1.872,4.181-4.181,4.181
								c-2.309,0-4.181-1.872-4.181-4.181c0-2.309,1.872-4.181,4.181-4.181C236.437,322.674,238.309,324.546,238.309,326.855z"/>
							<path style="fill:#FFFFFF;stroke:#6040D3;stroke-miterlimit:10;" d="M194.924,326.339c0,1.814-1.471,3.285-3.285,3.285
								c-1.814,0-3.285-1.471-3.285-3.285c0-1.814,1.471-3.285,3.285-3.285C193.453,323.054,194.924,324.525,194.924,326.339z"/>
							<path style="fill:#FFFFFF;stroke:#6040D3;stroke-miterlimit:10;" d="M176.697,334.468c0,2.152-1.745,3.897-3.897,3.897
								c-2.152,0-3.897-1.745-3.897-3.897c0-2.152,1.745-3.897,3.897-3.897C174.952,330.571,176.697,332.316,176.697,334.468z"/>
							<path style="fill:#FFFFFF;stroke:#6040D3;stroke-miterlimit:10;" d="M211.268,315.588c0,2.774-2.249,5.023-5.023,5.023
								c-2.774,0-5.023-2.249-5.023-5.023c0-2.774,2.249-5.023,5.023-5.023C209.02,310.565,211.268,312.814,211.268,315.588z"/>
							<circle style="fill:#FFFFFF;stroke:#6040D3;stroke-miterlimit:10;" cx="190.092" cy="296.176" r="11.728"/>
							<circle style="fill:#FFFFFF;stroke:#6040D3;stroke-miterlimit:10;" cx="223.713" cy="304.256" r="9.621"/>
							<path style="fill:#FFFFFF;stroke:#6040D3;stroke-miterlimit:10;" d="M227.539,320.827c0,1.379-1.118,2.498-2.498,2.498
								c-1.38,0-2.498-1.118-2.498-2.498c0-1.379,1.118-2.498,2.498-2.498C226.421,318.33,227.539,319.448,227.539,320.827z"/>
							<path style="fill:#FFFFFF;stroke:#6040D3;stroke-miterlimit:10;" d="M183.141,313.877c0,1.14-0.924,2.063-2.063,2.063
								c-1.14,0-2.063-0.924-2.063-2.063c0-1.139,0.924-2.063,2.063-2.063C182.218,311.814,183.141,312.738,183.141,313.877z"/>
							
								<ellipse transform="matrix(0.7071 -0.7071 0.7071 0.7071 -121.6804 236.0378)" style="fill:#FFFFFF;stroke:#6040D3;stroke-miterlimit:10;" cx="224.083" cy="264.9" rx="16.181" ry="16.181"/>
							<path style="fill:#FFFFFF;stroke:#6040D3;stroke-miterlimit:10;" d="M191.24,255.494c0,3.391-2.749,6.139-6.139,6.139
								c-3.391,0-6.139-2.749-6.139-6.139c0-3.39,2.749-6.139,6.139-6.139C188.492,249.355,191.24,252.104,191.24,255.494z"/>
							<path style="fill:#FFFFFF;stroke:#6040D3;stroke-miterlimit:10;" d="M248.782,289.944c0,2.194-1.779,3.974-3.974,3.974
								c-2.195,0-3.973-1.779-3.973-3.974s1.779-3.974,3.973-3.974C247.003,285.97,248.782,287.75,248.782,289.944z"/>
							<path style="fill:#FFFFFF;stroke:#6040D3;stroke-miterlimit:10;" d="M169.032,277.594c0,2.149-1.742,3.891-3.891,3.891
								c-2.149,0-3.891-1.742-3.891-3.891c0-2.149,1.742-3.891,3.891-3.891C167.29,273.703,169.032,275.445,169.032,277.594z"/>
							<path style="fill:#FFFFFF;stroke:#6040D3;stroke-miterlimit:10;" d="M241.35,233.733c0,1.739-1.41,3.149-3.149,3.149
								c-1.739,0-3.149-1.41-3.149-3.149s1.41-3.149,3.149-3.149C239.94,230.583,241.35,231.993,241.35,233.733z"/>
							<circle style="fill:#FFFFFF;stroke:#6040D3;stroke-miterlimit:10;" cx="195.808" cy="221.175" r="9.379"/>
						</g>
						<g>
							<path style="fill:#FFFFFF;stroke:#0F110E;stroke-miterlimit:10;" d="M198.212,362.902c0,0-0.845,2.534,2.027,2.619
								c2.872,0.084,5.762-3.58,4.9-5.069c-1.133-1.957-4.393,0-5.576,0.929C198.381,362.31,198.212,362.902,198.212,362.902z"/>
							<path style="fill:#FFFFFF;stroke:#0F110E;stroke-miterlimit:10;" d="M187.808,363.643c0,0-2.644,1.803-3.531-1.239
								c-0.793-2.719,0.677-5.899,2.451-5.476c1.145,0.273,1.334,1.393,1.419,3.589C188.23,362.714,187.808,363.643,187.808,363.643
								z"/>
							<path style="fill:#FFFFFF;stroke:#0F110E;stroke-miterlimit:10;" d="M192.582,362.837c0,0,1.279,3.26,4.18,2.521
								c2.902-0.739,4.711-6.544,4.094-8.04s-2.624-2.093-4.643,0.523C195.1,359.285,192.582,362.837,192.582,362.837z"/>
							<path style="fill:#FFFFFF;stroke:#0F110E;stroke-miterlimit:10;" d="M192.729,364.33c-0.708,1.147-4.526,1.743-4.626-1.6
								c-0.125-4.176,2.426-9.077,5.534-7.239C195.684,356.702,193.979,362.305,192.729,364.33z"/>
						</g>
					</g>
				</g>
				<g>
					<g>
						<g>
							<path style="fill:#D58001;" d="M344.951,223.561c0,0,21.502-3.91,28.452-1.303c6.95,2.606,56.47,71.674,64.941,98.389
								c0,0,2.172,17.81-33.231,27.584c0,0-31.059-59.294-34.099-65.375C367.974,276.773,344.951,223.561,344.951,223.561z"/>
							<g>
								<path style="fill:#FFFFFF;" d="M382.722,251.585c-2.408-1.33-4.815-2.661-7.223-3.992c-0.344-0.19-0.687-0.38-1.031-0.57
									c-0.591-0.326-1.364-0.144-1.71,0.448c-0.336,0.574-0.144,1.383,0.448,1.71c2.408,1.33,4.815,2.661,7.223,3.992
									c0.343,0.19,0.687,0.38,1.03,0.57c0.591,0.326,1.364,0.144,1.71-0.449C383.506,252.722,383.315,251.913,382.722,251.585z"/>
								<path style="fill:#FFFFFF;" d="M365.402,230.464c-2.314-1.49-4.627-2.979-6.941-4.468c-0.329-0.212-0.659-0.424-0.988-0.636
									c-0.551-0.355-1.404-0.131-1.71,0.448c-0.328,0.621-0.139,1.332,0.448,1.71c2.314,1.489,4.627,2.979,6.941,4.468
									c0.329,0.212,0.659,0.424,0.988,0.636c0.551,0.355,1.404,0.131,1.71-0.448C366.178,231.553,365.99,230.842,365.402,230.464z
									"/>
								<path style="fill:#FFFFFF;" d="M366.749,242.393c-0.706-0.194-1.293,0.241-1.538,0.873c-0.993,2.567-1.986,5.134-2.979,7.7
									c-0.141,0.365-0.282,0.73-0.423,1.094c-0.244,0.63,0.269,1.372,0.873,1.538c0.706,0.194,1.293-0.241,1.538-0.873
									c0.993-2.567,1.986-5.134,2.979-7.7c0.141-0.365,0.282-0.729,0.423-1.094C367.866,243.3,367.354,242.559,366.749,242.393z"
									/>
								<path style="fill:#FFFFFF;" d="M376.345,264.626c-2.171,1.695-4.342,3.39-6.512,5.085c-0.307,0.24-0.613,0.479-0.92,0.719
									c-0.518,0.404-0.456,1.349,0,1.768c0.549,0.504,1.215,0.431,1.768,0c2.171-1.695,4.342-3.39,6.512-5.085
									c0.307-0.239,0.613-0.479,0.92-0.718c0.518-0.404,0.456-1.349,0-1.768C377.563,264.122,376.897,264.194,376.345,264.626z"/>
								<path style="fill:#FFFFFF;" d="M392.717,264.977c-0.582-0.16-1.447,0.2-1.538,0.873c-0.367,2.728-0.734,5.456-1.101,8.184
									c-0.052,0.387-0.104,0.775-0.156,1.162c-0.09,0.668,0.16,1.342,0.873,1.538c0.582,0.16,1.447-0.2,1.538-0.873
									c0.367-2.728,0.734-5.456,1.101-8.184c0.052-0.387,0.104-0.775,0.156-1.162C393.68,265.846,393.43,265.172,392.717,264.977z
									"/>
								<path style="fill:#FFFFFF;" d="M389.193,290.305c-2.066,1.826-4.132,3.652-6.198,5.478
									c-0.289,0.256-0.578,0.511-0.868,0.767c-0.491,0.434-0.476,1.33,0,1.768c0.524,0.481,1.244,0.463,1.768,0
									c2.066-1.826,4.132-3.652,6.198-5.478c0.289-0.255,0.578-0.511,0.867-0.767c0.492-0.434,0.477-1.33,0-1.768
									C390.436,289.824,389.717,289.842,389.193,290.305z"/>
								<path style="fill:#FFFFFF;" d="M414.582,283.482c-2.4-1.344-4.8-2.689-7.2-4.033c-0.342-0.192-0.685-0.384-1.027-0.575
									c-0.589-0.33-1.365-0.142-1.71,0.448c-0.337,0.576-0.142,1.379,0.448,1.71c2.4,1.344,4.8,2.689,7.2,4.033
									c0.343,0.192,0.685,0.384,1.027,0.575c0.589,0.33,1.365,0.142,1.71-0.448C415.368,284.616,415.173,283.813,414.582,283.482z
									"/>
								<path style="fill:#FFFFFF;" d="M402.7,293.404c-0.129-0.368-0.259-0.736-0.388-1.103c-0.224-0.637-0.854-1.061-1.538-0.873
									c-0.617,0.17-1.098,0.898-0.873,1.538c0.913,2.598,1.826,5.195,2.739,7.793c0.129,0.368,0.259,0.736,0.388,1.104
									c0.224,0.637,0.854,1.061,1.538,0.873c0.617-0.17,1.098-0.898,0.873-1.538C404.526,298.599,403.613,296.002,402.7,293.404z"
									/>
								<path style="fill:#FFFFFF;" d="M371.713,224.435c0.312-0.806,0.624-1.612,0.936-2.418c-0.728-0.201-1.566-0.35-2.492-0.454
									c-0.144,0.371-0.287,0.742-0.431,1.114c-0.141,0.365-0.282,0.73-0.423,1.094c-0.244,0.63,0.269,1.371,0.873,1.538
									C370.882,225.502,371.469,225.067,371.713,224.435z"/>
								<path style="fill:#FFFFFF;" d="M381.702,230.555c-1.394,0.523-2.788,1.046-4.182,1.568
									c-0.366,0.137-0.733,0.275-1.099,0.412c-0.632,0.237-1.064,0.845-0.873,1.538c0.167,0.607,0.902,1.111,1.538,0.873
									c2.097-0.786,4.194-1.573,6.291-2.359C382.8,231.878,382.243,231.203,381.702,230.555z"/>
								<path style="fill:#FFFFFF;" d="M394.069,246.531c-0.298,2.217-0.597,4.435-0.895,6.652
									c-0.052,0.387-0.104,0.775-0.156,1.162c-0.09,0.668,0.16,1.342,0.873,1.538c0.582,0.16,1.447-0.199,1.538-0.873
									c0.25-1.861,0.501-3.721,0.751-5.582C395.468,248.444,394.765,247.48,394.069,246.531z"/>
							</g>
							<path style="fill:none;stroke:#0F110E;stroke-miterlimit:10;" d="M344.951,223.561c0,0,21.502-3.91,28.452-1.303
								c6.95,2.606,56.47,71.674,64.941,98.389c0,0,2.172,17.81-33.231,27.584c0,0-31.059-59.294-34.099-65.375
								C367.974,276.773,344.951,223.561,344.951,223.561z"/>
						</g>
						<path style="fill:#D58001;stroke:#0F110E;stroke-miterlimit:10;" d="M416.625,286.113c0,0,5.864-2.389,10.425,1.955
							c4.561,4.344,15.855,23.457,15.855,26.498c0,3.041-8.688,15.204-10.86,16.29C429.874,331.941,416.625,286.113,416.625,286.113
							z"/>
						<path style="fill:#D58001;stroke:#0F110E;stroke-miterlimit:10;" d="M401.447,256.835c4.94,11.532,10.588,26.193,9.965,31.667
							c-0.979,8.614-11.666,14.582-26.013,22.039c9.343,17.89,19.714,37.69,19.714,37.69c35.403-9.774,33.231-27.584,33.231-27.584
							C433.728,306.085,416.915,278.941,401.447,256.835z"/>
					</g>
					<g>
						<g>
							<path style="fill:#0F110E;" d="M324.969,318.909c0,0,9.991,4.453,18.244,11.403c8.253,6.95,19.004,11.403,25.846,7.819
								l-3.692-8.362c0,0-5.538,7.059-12.923,2.063c-7.385-4.995-16.615-14.443-23.783-16.615
								C321.494,313.045,324.969,318.909,324.969,318.909z"/>
							<path style="fill:#0F110E;" d="M325.512,317.932c0,0,3.149,5.647,0.869,8.036c-2.281,2.389-5.776-1.419-7.839-5.871
								c-2.063-4.453-1.364-7.602,1.242-9.122C322.39,309.454,325.512,317.932,325.512,317.932z"/>
							<polyline style="fill:#0F110E;" points="324.496,315.214 341.91,369.19 351.25,368.241 333.657,318.633 327.576,315.787 
															"/>
						</g>
						<g>
							<g>
								<path style="fill:#D58001;" d="M286.96,240.502c0,0,4.127-13.9,14.335-18.679c10.208-4.778,31.71-4.561,46.262,1.303
									c0,0,54.298,96,57.556,125.104c0,0-31.276-0.869-38.009-10.425c-6.733-9.556-7.602-57.556-18.462-84.054
									S305.856,211.398,286.96,240.502z"/>
								<path style="fill:none;stroke:#0F110E;stroke-miterlimit:10;" d="M286.96,240.502c0,0,4.127-13.9,14.335-18.679
									c10.208-4.778,31.71-4.561,46.262,1.303c0,0,54.298,96,57.556,125.104c0,0-31.276-0.869-38.009-10.425
									c-6.733-9.556-7.602-57.556-18.462-84.054S305.856,211.398,286.96,240.502z"/>
							</g>
							<polyline style="fill:none;stroke:#0F110E;stroke-linecap:round;stroke-miterlimit:10;stroke-dasharray:2;" points="
								364.281,330.638 373.838,332.701 368.408,339 							"/>
						</g>
						<g>
							<path style="fill:#FFFFFF;" d="M318.019,312.176c0,0,7.276,7.928,11.728,6.299c4.453-1.629-1.52-11.837-5.43-15.095
								L318.019,312.176z"/>
							<g>
								<path style="fill:#D58001;" d="M329.93,312.706c-0.587-0.333-1.367-0.139-1.71,0.448c-0.339,0.579-0.14,1.376,0.448,1.71
									c0.878,0.498,1.755,0.996,2.632,1.494c0.099-0.891-0.089-1.976-0.474-3.144C330.527,313.045,330.228,312.876,329.93,312.706
									z"/>
								<path style="fill:#D58001;" d="M325.195,304.194c-0.296,0.681-0.592,1.362-0.887,2.043
									c-0.155,0.356-0.309,0.712-0.464,1.067c-0.269,0.619-0.183,1.341,0.448,1.71c0.529,0.309,1.44,0.174,1.71-0.448
									c0.331-0.761,0.661-1.522,0.992-2.283C326.395,305.498,325.784,304.788,325.195,304.194z"/>
								<path style="fill:#D58001;" d="M324.957,312.308c-1.786,0.476-3.573,0.952-5.359,1.429c0.64,0.594,1.433,1.285,2.32,1.969
									c0.855-0.228,1.709-0.455,2.564-0.683c0.38-0.101,0.76-0.203,1.14-0.304c0.652-0.174,1.051-0.891,0.873-1.538
									C326.314,312.524,325.612,312.134,324.957,312.308z"/>
							</g>
							<path style="fill:none;stroke:#0F110E;stroke-linecap:round;stroke-miterlimit:10;" d="M318.019,312.176
								c0,0,7.276,7.928,11.728,6.299c4.453-1.629-1.52-11.837-5.43-15.095L318.019,312.176z"/>
						</g>
					</g>
				</g>
			</g>
			<g>
				<g>
					<g>
						<g>
							<g>
								<path style="fill:#FFFFFF;" d="M133.225,370.919c0-2.263,12.447-69.781,12.447-69.781l5.469-0.189l15.276,69.027
									L133.225,370.919z"/>
								<g>
									<path style="fill:#6040D3;" d="M133.85,370.919c0.029-2.37,0.815-5.314,1.246-7.81c0.966-5.594,1.966-11.182,2.97-16.769
										c2.202-12.256,4.439-24.507,6.686-36.755c0.507-2.761,1.014-5.521,1.523-8.282c-0.201,0.153-0.402,0.306-0.603,0.459
										c1.823-0.063,3.646-0.126,5.469-0.189c-0.201-0.153-0.402-0.306-0.603-0.459c1.724,7.789,3.447,15.577,5.171,23.366
										c2.744,12.397,5.487,24.794,8.231,37.192c0.625,2.823,1.249,5.646,1.874,8.469c0.201-0.264,0.402-0.527,0.603-0.791
										c-9.693,0.275-19.387,0.551-29.08,0.826c-1.371,0.039-2.742,0.078-4.113,0.117c-0.803,0.023-0.806,1.273,0,1.25
										c9.693-0.275,19.387-0.551,29.08-0.826c1.371-0.039,2.742-0.078,4.113-0.117c0.421-0.012,0.692-0.389,0.603-0.791
										c-1.724-7.789-3.447-15.577-5.171-23.366c-2.744-12.397-5.487-24.795-8.231-37.192c-0.625-2.823-1.249-5.646-1.874-8.469
										c-0.057-0.259-0.34-0.468-0.603-0.459c-1.823,0.063-3.646,0.126-5.469,0.189c-0.255,0.009-0.552,0.186-0.603,0.459
										c-1.414,7.668-2.818,15.338-4.217,23.008c-2.269,12.438-4.542,24.876-6.708,37.332c-0.382,2.195-0.762,4.391-1.118,6.591
										c-0.159,0.981-0.414,2.018-0.427,3.016C132.589,371.724,133.839,371.724,133.85,370.919z"/>
								</g>
							</g>
							<g>
								<g>
									<g>
										<path style="fill:#6040D3;" d="M147.687,311.699c-0.055,4.836-0.11,9.672-0.165,14.508
											c-0.008,0.696-0.016,1.392-0.024,2.089c-0.009,0.805,1.241,0.805,1.25,0c0.055-4.836,0.11-9.672,0.165-14.508
											c0.008-0.696,0.016-1.392,0.024-2.089C148.946,310.895,147.696,310.894,147.687,311.699L147.687,311.699z"/>
									</g>
								</g>
								<g>
									<g>
										<path style="fill:#6040D3;" d="M143.915,327.542c-0.22,4.012-0.44,8.023-0.66,12.035
											c-0.032,0.578-0.063,1.155-0.095,1.733c-0.044,0.804,1.206,0.801,1.25,0c0.22-4.012,0.44-8.023,0.66-12.035
											c0.032-0.578,0.063-1.155,0.095-1.733C145.209,326.738,143.959,326.74,143.915,327.542L143.915,327.542z"/>
									</g>
								</g>
								<g>
									<g>
										<path style="fill:#6040D3;" d="M148.63,336.971c0,5.122,0,10.244,0,15.366c0,0.724,0,1.449,0,2.173
											c0,0.804,1.25,0.806,1.25,0c0-5.122,0-10.244,0-15.366c0-0.724,0-1.449,0-2.173
											C149.88,336.167,148.63,336.166,148.63,336.971L148.63,336.971z"/>
									</g>
								</g>
								<g>
									<g>
										<path style="fill:#6040D3;" d="M153.157,327.919c0.165,2.913,0.33,5.825,0.495,8.738c0.024,0.419,0.047,0.839,0.071,1.258
											c0.045,0.8,1.296,0.805,1.25,0c-0.165-2.913-0.33-5.825-0.495-8.738c-0.024-0.419-0.048-0.839-0.071-1.258
											C154.361,327.119,153.111,327.114,153.157,327.919L153.157,327.919z"/>
									</g>
								</g>
								<g>
									<g>
										<path style="fill:#6040D3;" d="M142.784,350.362c-0.11,4.726-0.22,9.452-0.33,14.178c-0.016,0.68-0.032,1.361-0.048,2.041
											c-0.019,0.805,1.231,0.804,1.25,0c0.11-4.726,0.22-9.452,0.33-14.178c0.016-0.68,0.032-1.361,0.047-2.041
											C144.052,349.557,142.802,349.557,142.784,350.362L142.784,350.362z"/>
									</g>
								</g>
								<g>
									<g>
										<path style="fill:#6040D3;" d="M155.608,354.7c0.165,4.396,0.33,8.793,0.495,13.189c0.024,0.633,0.048,1.266,0.071,1.899
											c0.03,0.802,1.28,0.806,1.25,0c-0.165-4.396-0.33-8.793-0.495-13.189c-0.024-0.633-0.047-1.266-0.071-1.899
											C156.828,353.898,155.578,353.894,155.608,354.7L155.608,354.7z"/>
									</g>
								</g>
							</g>
						</g>
						<g>
							<path style="fill:#A3A0A4;stroke:#0F110E;stroke-miterlimit:10;" d="M112.967,347.013l14.053-11.983
								c1.495-1.275,3.768-0.958,4.858,0.676l1.289,1.934c0.858,1.287,0.7,3-0.379,4.108l-14.605,14.997
								c-1.894,1.945-5.195,0.879-5.595-1.805l-0.737-4.948C111.684,348.873,112.106,347.747,112.967,347.013z"/>
							<g>
								<path style="fill:#A3A0A4;stroke:#0F110E;stroke-miterlimit:10;" d="M151.673,275.394
									c-2.027-4.956-5.589-9.381-10.594-11.57c-2.588-1.132-5.212-1.79-8.059-1.815c-1.216-0.011-2.432,0-3.648,0
									c-4.226,0-8.248,0.483-11.967,2.702c-6.837,4.078-10.391,11.668-10.391,19.465c0,8.113,0,16.226,0,24.339
									c0,12.89,0,25.78,0,38.67c0,7.788-0.104,15.585,0,23.372c0.002,0.123,0,0.247,0,0.37c0,2.612,2.297,5.114,4.993,4.993
									c2.705-0.121,4.993-2.194,4.993-4.993c0-6.215,0-12.431,0-18.646c0-12.413,0-24.825,0-37.238c0-9.545,0-19.09,0-28.635
									c0-0.845-0.001-1.691,0-2.536c0-0.306,0.076-2.866,1.048-5.45c0.04-0.083,0.078-0.168,0.12-0.251
									c0.217-0.434,0.453-0.859,0.707-1.273c0.151-0.246,0.308-0.489,0.471-0.727c0.042-0.061,0.215-0.281,0.302-0.396
									c0.173-0.201,0.34-0.407,0.531-0.591c0.777-0.747,1.836-1.618,2.997-2.259c0.173-0.095,0.363-0.205,0.623-0.311
									c0.527-0.18,1.047-0.319,1.593-0.444c0.174-0.04,0.35-0.07,0.523-0.109c0.426-0.031,0.85-0.062,1.279-0.066
									c0.402-0.004,0.805,0,1.207,0c1.393,0,6.379,0.152,8.084,0.663c1.312,0.393,2.101,1.133,2.257,1.233
									c0.388,0.336,2.05,2.16,2.09,2.219c0.049,0.05,0.062,0.07,0.021,0.031c0.116,0.169,0.895,1.425,1.137,1.9
									c0.091,0.179,0.176,0.361,0.263,0.542c0.038,0.099,0.076,0.197,0.112,0.297c0.348,0.972,0.568,1.962,0.773,2.97
									c0.022,0.263,0.048,0.525,0.061,0.789c0.017,0.328,0.022,0.656,0.025,0.985c0.034,4.965,0,9.931,0,14.896
									c0,0.527,0,1.054,0,1.581c0,2.612,2.296,5.114,4.993,4.993c2.705-0.121,4.993-2.194,4.993-4.993c0-4.954,0-9.907,0-14.861
									C153.211,281.887,152.957,278.533,151.673,275.394z"/>
							</g>
						</g>
					</g>
					<g>
						<path style="fill:#FFFFFF;stroke:#0F110E;stroke-miterlimit:10;" d="M159.997,439.886l-0.306-10.887
							c0,0,94.084-13.79,97.568-36.392l-179.891-3.065v50.344H159.997z"/>
						<path style="fill:#FFFFFF;stroke:#0F110E;stroke-miterlimit:10;" d="M276.052,395.094H72.671
							c-8.603,0-15.577-6.974-15.577-15.576v0c0-8.603,6.974-15.576,15.577-15.576h203.381c8.603,0,15.577,6.974,15.577,15.576v0
							C291.628,388.12,284.654,395.094,276.052,395.094z"/>
					</g>
				</g>
				<g>
					<g>
						<rect x="94.222" y="303.573" style="fill:#FFFFFF;stroke:#0F110E;stroke-miterlimit:10;" width="2.791" height="11.462"/>
						<path style="fill:#FFFFFF;stroke:#0F110E;stroke-miterlimit:10;" d="M108.258,301.316h-0.139h-0.139H92.144
							c-1.115,0-2.019,0.904-2.019,2.019v0c0,1.115,0.904,2.019,2.019,2.019H106.1v0.948c0,1.039,0.842,1.881,1.881,1.881h0.277
							c1.039,0,1.881-0.842,1.881-1.881v-2.967v0v-0.139C110.139,302.158,109.297,301.316,108.258,301.316z"/>
					</g>
					<g>
						<path style="fill:#FFFFFF;stroke:#0F110E;stroke-miterlimit:10;" d="M96.976,324.32h-1.753c-2.234,0-4.045-1.811-4.045-4.045
							v-3.63c0-2.234,1.811-4.045,4.045-4.045h1.753c2.234,0,4.045,1.811,4.045,4.045v3.63
							C101.02,322.509,99.209,324.32,96.976,324.32z"/>
						<g>
							<path style="fill:#FFFFFF;" d="M107.279,325.985c-0.402-2.54-3.32-4.438-6.747-4.389l-4.39,0.063l-4.39-0.063
								c-3.427-0.049-6.345,1.849-6.747,4.389L79.8,358.871c-0.468,2.957,2.628,5.557,6.619,5.557h9.114h1.216h9.114
								c3.991,0,7.087-2.599,6.619-5.557L107.279,325.985z"/>
							<path style="fill:#6040D3;" d="M81.786,362.923c0,0-2.122-1.901-2.122-3.722c0-1.821,2.122-13.066,2.122-13.066
								s4.563-6.335,10.825-4.039c6.261,2.296,7.11,0.317,12.31,0.554c5.2,0.238,4.669,1.188,5.625,4.197
								c0.955,3.009,2.335,11.957,1.91,13.303c-0.424,1.346-0.955,3.247-4.563,3.88c-3.608,0.634-20.376,0.396-20.376,0.396
								S83.696,364.348,81.786,362.923z"/>
							<path style="fill:none;stroke:#0F110E;stroke-miterlimit:10;" d="M107.279,325.985c-0.402-2.54-3.32-4.438-6.747-4.389
								l-4.39,0.063l-4.39-0.063c-3.427-0.049-6.345,1.849-6.747,4.389L79.8,358.871c-0.468,2.957,2.628,5.557,6.619,5.557h9.114
								h1.216h9.114c3.991,0,7.087-2.599,6.619-5.557L107.279,325.985z"/>
						</g>
					</g>
				</g>
			</g>
		</g>
		<g>
			<g>
				<path style="fill:#0F110E;" d="M466.651,439.261c-3.889,0-7.779,0-11.669,0c-10.49,0-20.98,0-31.471,0
					c-15.553,0-31.105,0-46.658,0c-18.975,0-37.95,0-56.925,0c-20.71,0-41.421,0-62.131,0c-21.047,0-42.095,0-63.143,0
					c-19.491,0-38.982,0-58.473,0c-16.53,0-33.06,0-49.59,0c-11.885,0-23.769,0-35.654,0c-5.616,0-11.237-0.07-16.852,0
					c-0.246,0.003-0.491,0-0.737,0c-0.804,0-0.806,1.25,0,1.25c3.889,0,7.779,0,11.669,0c10.49,0,20.98,0,31.471,0
					c15.553,0,31.105,0,46.658,0c18.975,0,37.95,0,56.925,0c20.71,0,41.421,0,62.131,0c21.048,0,42.095,0,63.143,0
					c19.491,0,38.982,0,58.473,0c16.53,0,33.06,0,49.591,0c11.884,0,23.769,0,35.654,0c5.616,0,11.237,0.07,16.852,0
					c0.245-0.003,0.491,0,0.737,0C467.455,440.511,467.457,439.261,466.651,439.261L466.651,439.261z"/>
			</g>
		</g>
	</g>
</g>
</svg>
