<?xml version="1.0" standalone="no"?>
<!DOCTYPE svg PUBLIC "-//W3C//DTD SVG 20010904//EN"
 "http://www.w3.org/TR/2001/REC-SVG-20010904/DTD/svg10.dtd">
<svg version="1.0" xmlns="http://www.w3.org/2000/svg"
 width="2000.000000pt" height="2000.000000pt" viewBox="0 0 2000.000000 2000.000000"
 preserveAspectRatio="xMidYMid meet">

<g transform="translate(0.000000,2000.000000) scale(0.100000,-0.100000)"
fill="#000000" stroke="none">
<path d="M6623 15583 c-93 -86 -194 -181 -226 -212 -50 -49 -60 -54 -76 -44
-18 11 -149 -108 -1328 -1207 -1205 -1123 -1315 -1228 -1401 -1339 l-92 -120
747 -553 c412 -305 1127 -834 1591 -1178 463 -343 839 -627 835 -630 -5 -4
-77 -33 -161 -65 l-153 -59 -111 -129 -110 -129 58 -131 c31 -73 58 -133 59
-135 2 -1 36 8 76 22 112 37 216 50 300 36 110 -17 167 -41 348 -149 157 -94
325 -181 350 -181 22 0 10 -19 -45 -66 -31 -26 -188 -187 -349 -358 -403 -428
-520 -538 -691 -652 -144 -96 -196 -114 -654 -228 -615 -152 -1312 -334 -1320
-343 -3 -4 -47 -55 -96 -113 -518 -604 -735 -862 -732 -868 2 -4 45 -87 96
-184 l92 -176 598 199 c3301 1098 4073 1353 4124 1358 l56 7 -17 -26 c-84
-120 -28 -290 109 -331 l40 -12 -39 -18 c-46 -20 -71 -61 -71 -117 0 -24 -5
-42 -14 -45 -7 -3 -82 -115 -166 -249 -148 -234 -154 -245 -155 -298 -1 -48
-5 -59 -34 -88 -28 -28 -32 -38 -29 -70 4 -29 -1 -46 -22 -77 -110 -162 -249
-558 -339 -965 -57 -257 -132 -703 -130 -772 l1 -33 8 35 c4 19 18 107 31 195
12 87 24 154 27 147 2 -6 -3 -58 -12 -114 -20 -139 -30 -267 -18 -248 5 8 13
51 18 95 4 44 9 73 11 64 2 -8 0 -48 -5 -88 -5 -39 -5 -74 0 -77 4 -3 8 -3 8
-1 0 24 56 419 75 533 88 510 182 849 294 1059 37 68 35 63 -24 -95 -135 -362
-226 -736 -294 -1200 -34 -238 -45 -355 -31 -325 7 16 50 335 50 377 0 6 3 9
6 5 3 -3 -5 -94 -17 -201 -18 -151 -20 -199 -11 -208 6 -6 14 -10 16 -7 2 2 9
49 16 104 19 164 61 449 67 455 3 3 3 -13 0 -35 -6 -37 -52 -404 -61 -487 -2
-21 0 -38 4 -38 15 0 28 61 71 329 24 145 45 259 46 254 2 -6 -12 -114 -31
-239 -49 -320 -49 -324 -39 -324 5 0 26 114 46 253 57 381 120 763 124 751 2
-6 -19 -155 -46 -330 -42 -270 -59 -389 -96 -672 -2 -17 0 -32 6 -32 5 0 9 6
9 13 1 53 123 884 128 869 1 -5 -11 -106 -27 -223 -34 -238 -81 -612 -81 -641
0 -10 4 -18 8 -18 4 0 18 87 30 193 43 360 197 1435 208 1446 8 8 4 -26 -26
-220 -81 -531 -190 -1334 -190 -1396 0 -13 6 -23 14 -23 10 0 23 51 49 188 20
103 38 196 40 207 l5 20 1 -20 c0 -11 -12 -104 -27 -207 -16 -104 -25 -188
-20 -188 11 0 14 17 58 325 38 271 74 581 102 870 7 77 14 129 16 116 9 -57
-67 -715 -127 -1116 -16 -104 -26 -194 -23 -200 4 -5 9 1 13 15 7 25 7 25 8 2
3 -63 21 7 52 200 19 117 35 204 37 193 1 -11 -8 -112 -22 -225 -23 -185 -25
-222 -12 -209 3 3 16 90 29 194 14 105 25 172 26 150 0 -22 -8 -103 -19 -180
-24 -166 -25 -184 -8 -167 16 16 28 15 28 -3 0 -8 8 -15 19 -15 14 0 20 10 24
38 7 42 52 454 66 607 l10 100 -5 -130 c-4 -114 -14 -236 -40 -535 -4 -50 -3
-72 3 -65 10 10 31 226 54 545 12 165 16 805 6 980 -4 81 -4 92 3 50 30 -182
27 -891 -5 -1180 -2 -19 -7 -73 -11 -120 -3 -47 -8 -93 -10 -103 -1 -9 -6 -52
-9 -95 -7 -72 -6 -78 13 -79 18 -1 20 11 36 180 55 605 59 1124 9 1536 -14
124 -14 136 1 162 9 15 16 39 16 53 0 21 7 27 38 35 21 6 51 25 68 43 39 42
281 426 302 479 10 25 23 41 38 45 12 3 35 19 50 35 41 43 40 112 -3 173 l-31
44 24 13 c13 7 25 10 27 8 2 -2 15 -23 29 -45 31 -48 112 -94 167 -94 88 0
163 46 203 123 16 32 19 54 16 109 -2 37 -3 68 -3 68 0 0 18 -9 40 -20 102
-52 238 -3 288 103 52 109 -10 254 -125 293 l-49 16 42 21 c28 13 52 37 71 68
l30 47 2740 -2029 c1747 -1293 2745 -2026 2752 -2021 6 5 61 46 121 92 61 46
112 85 113 86 2 1 17 263 33 581 l28 578 -32 30 c-125 114 -874 778 -1013 898
-95 82 -191 174 -214 205 -116 156 -187 382 -255 809 -75 474 -106 651 -129
742 l-24 93 31 -6 c154 -31 214 -36 457 -36 286 0 358 -9 508 -62 152 -53 299
-135 437 -243 44 -35 91 -74 104 -89 14 -14 28 -26 33 -26 5 0 56 37 114 81
101 80 104 83 105 123 0 23 6 158 13 301 8 143 13 260 12 261 -8 7 -1176 888
-1335 1008 l-214 161 1207 401 c664 220 1214 404 1221 410 10 7 46 400 150
1648 75 901 134 1644 132 1650 -11 26 -139 166 -152 166 -9 0 -43 -11 -77 -25
-34 -14 -63 -24 -64 -22 -1 1 3 49 10 107 12 97 11 108 -6 149 -11 26 -23 41
-31 38 -7 -3 -49 -15 -92 -27 -44 -12 -87 -26 -95 -30 -11 -7 -65 -367 -236
-1580 -122 -864 -223 -1573 -226 -1575 -2 -3 -1303 -428 -2891 -945 l-2886
-941 -98 81 c-54 45 -137 108 -185 141 l-87 59 16 46 c19 55 13 118 -15 172
l-21 40 73 4 c57 2 81 9 109 28 102 70 125 209 50 308 l-25 33 29 -8 c49 -13
121 -6 168 17 55 27 90 75 106 146 10 44 9 60 -5 104 -9 29 -15 54 -14 56 2 2
22 -1 43 -7 56 -16 136 4 181 43 50 44 74 97 74 163 0 71 -19 116 -67 160
l-38 35 46 0 c168 0 264 210 157 343 l-30 39 46 -7 c130 -20 246 79 246 210 0
65 -27 123 -79 167 l-42 35 33 7 c51 10 104 51 134 102 22 38 28 60 28 108 0
75 -26 127 -85 171 l-40 30 43 18 c85 36 130 104 130 197 0 114 -85 209 -189
211 -34 0 -36 2 -19 12 88 55 134 138 122 223 -15 115 -97 187 -212 187 -50 0
-72 -6 -108 -27 -112 -66 -139 -225 -53 -323 35 -40 97 -72 140 -73 28 0 28 0
-14 -32 -118 -91 -120 -269 -3 -351 l44 -31 -35 -12 c-85 -29 -136 -93 -143
-180 -6 -74 18 -133 74 -183 l44 -39 -27 -7 c-84 -20 -153 -93 -167 -178 -9
-50 16 -138 49 -168 34 -33 31 -38 -12 -28 -81 18 -167 -17 -217 -89 -24 -34
-31 -56 -34 -106 -5 -73 10 -110 66 -168 l36 -38 -39 0 c-75 -1 -169 -65 -194
-133 -15 -40 -13 -137 4 -167 20 -36 18 -41 -11 -30 -40 16 -115 11 -159 -9
-49 -22 -99 -77 -115 -127 -18 -53 -7 -138 24 -184 l24 -37 -67 5 c-54 3 -75
1 -107 -16 -113 -58 -154 -179 -99 -288 14 -27 25 -49 25 -50 0 -1 -22 1 -49
4 -131 12 -239 -94 -230 -227 l4 -50 -115 -41 c-63 -23 -122 -44 -130 -46 -9
-3 -23 3 -32 13 -26 27 -78 90 -78 94 0 2 22 2 50 1 62 -5 112 12 157 51 90
79 97 224 17 308 l-25 26 51 5 c64 6 126 48 159 106 28 53 31 142 6 196 -20
42 -88 106 -112 106 -11 0 -2 13 27 37 101 87 107 226 14 319 -29 30 -55 45
-91 53 l-50 12 24 46 c73 146 -33 313 -200 313 l-36 0 16 37 c22 55 14 150
-17 197 -39 58 -93 89 -159 94 l-57 4 -1 54 c-2 69 -38 134 -95 172 -35 23
-52 27 -110 27 l-68 0 0 50 c-1 124 -110 227 -227 213 -33 -4 -33 -3 -33 37 0
67 -19 114 -63 159 -40 39 -98 66 -143 66 -18 0 -19 6 -16 70 3 57 0 78 -18
115 -24 50 -87 103 -133 112 -21 4 -26 10 -21 22 4 9 9 40 12 68 4 43 0 63
-22 108 -15 30 -39 64 -53 75 l-26 20 20 23 c68 74 77 191 21 270 -11 15 -19
29 -17 31 2 1 19 13 36 25 68 46 100 142 79 237 -6 28 -4 31 31 43 118 42 176
172 128 288 -8 19 -15 37 -15 38 0 1 21 -8 47 -21 57 -29 131 -31 189 -5 78
36 132 130 121 213 l-5 38 41 -35 c74 -64 170 -71 254 -19 43 27 78 76 99 139
6 17 8 15 18 -15 14 -47 85 -116 132 -129 57 -16 114 -13 159 8 40 18 105 81
106 104 0 7 9 -11 20 -40 56 -145 217 -186 346 -87 l33 25 0 -33 c0 -18 11
-57 25 -85 40 -88 139 -136 234 -114 31 7 43 6 45 -2 25 -99 54 -140 123 -174
44 -21 63 -25 106 -20 28 3 63 9 76 13 22 7 23 6 10 -17 -7 -13 -12 -50 -12
-81 0 -122 86 -212 203 -213 l57 0 -20 -38 c-82 -159 40 -334 218 -313 146 17
228 189 152 318 -35 59 -96 97 -170 105 l-55 6 20 45 c29 65 22 156 -16 211
-41 59 -119 95 -189 88 -28 -3 -62 -9 -75 -12 -21 -7 -22 -6 -12 20 14 36 15
123 2 156 -15 37 -69 97 -105 116 -34 17 -129 23 -164 10 -17 -6 -23 -5 -23 5
0 35 -24 92 -53 125 -79 90 -224 98 -308 17 l-27 -25 -7 48 c-10 69 -47 127
-103 160 -39 23 -59 28 -114 28 -58 0 -72 -4 -109 -30 -24 -17 -54 -45 -66
-63 l-21 -32 -13 37 c-18 56 -45 90 -97 120 -125 74 -283 2 -317 -142 l-7 -30
-12 36 c-7 20 -22 50 -34 67 -27 37 -114 82 -160 82 -129 0 -232 -109 -220
-232 2 -21 3 -38 1 -38 -1 0 -15 12 -30 26 -46 43 -84 57 -150 58 -85 0 -145
-37 -186 -114 -25 -47 -28 -63 -24 -111 3 -31 12 -71 22 -89 l17 -33 -29 21
c-104 74 -255 35 -315 -81 -17 -35 -20 -53 -15 -118 l5 -77 -32 -6 c-44 -8
-105 -61 -127 -110 -33 -73 -21 -171 27 -227 12 -13 8 -19 -30 -46 -106 -75
-116 -226 -19 -325 l35 -36 -22 -24 c-79 -84 -77 -212 5 -294 25 -24 60 -48
83 -55 37 -11 40 -14 31 -36 -5 -13 -9 -48 -9 -77 0 -103 74 -190 175 -204 26
-4 48 -10 47 -15 0 -4 -4 -27 -7 -50 -9 -55 7 -113 44 -164 35 -49 88 -75 162
-81 l55 -4 1 -47 c2 -123 110 -222 228 -209 l45 6 0 -55 c0 -59 22 -113 62
-150 33 -31 107 -63 148 -63 35 0 35 0 36 -48 3 -98 74 -182 169 -202 28 -6
60 -8 70 -4 16 6 17 4 11 -17 -32 -105 -29 -155 14 -222 28 -44 111 -97 151
-97 16 0 15 -6 -8 -56 -45 -98 -18 -198 70 -264 l46 -34 -39 -33 c-79 -68 -94
-200 -32 -288 30 -42 30 -45 10 -45 -46 0 -105 -26 -143 -65 -81 -81 -86 -207
-12 -292 30 -35 31 -36 7 -28 -32 10 -4522 3475 -4518 3487 2 4 631 587 1398
1294 767 707 1396 1289 1397 1293 3 6 -70 61 -81 61 -3 0 -81 -71 -173 -157z
m2088 -1250 c-18 23 -4 22 37 -3 18 -11 37 -31 42 -45 10 -27 4 -55 -12 -55
-6 0 -5 6 2 15 18 22 6 18 -14 -4 -13 -14 -14 -21 -5 -27 8 -4 10 -3 5 4 -4 7
-5 12 -2 12 3 0 7 -4 11 -10 9 -15 -54 -42 -88 -37 -44 7 -68 17 -61 28 3 5
10 6 16 3 7 -4 8 -2 4 5 -4 6 -11 9 -16 6 -4 -3 -12 1 -18 8 -28 34 23 122 55
95 8 -6 13 -7 12 -2 -4 23 3 26 23 8 19 -15 20 -16 9 -1z m-382 -31 c73 -69
-4 -164 -106 -131 -18 6 -33 16 -33 22 0 8 4 7 12 -1 7 -7 16 -12 22 -12 5 0
1 6 -9 14 -11 8 -23 12 -27 10 -4 -3 -12 5 -19 17 -15 29 1 63 43 89 46 28 83
25 117 -8z m807 -24 c5 -7 2 -8 -7 -3 -8 5 -10 4 -6 0 10 -12 38 -15 31 -4
-11 18 9 9 30 -14 11 -13 22 -35 24 -50 4 -31 -14 -60 -31 -50 -5 3 -7 1 -3
-5 10 -16 -13 -25 -30 -11 -12 10 -13 9 -8 -5 4 -12 0 -16 -16 -16 -11 0 -19
4 -16 8 3 5 -5 8 -17 7 -32 -3 -53 10 -67 44 -11 27 -9 34 10 61 30 42 91 63
106 38z m-1232 -135 c4 -5 11 -8 14 -8 4 0 17 -9 30 -20 23 -21 31 -52 10 -39
-9 6 -9 3 0 -9 31 -37 -16 -82 -91 -86 -28 -1 -37 2 -31 10 5 8 3 9 -6 4 -19
-12 -51 34 -39 57 8 14 6 16 -8 12 -12 -4 -10 1 7 15 20 17 21 20 5 14 -18 -6
-19 -5 -5 12 26 32 96 55 114 38z m1644 -29 c12 -8 22 -12 22 -8 0 5 5 3 11
-3 21 -21 20 -76 -2 -103 -11 -14 -18 -18 -14 -10 4 8 0 7 -9 -4 -20 -24 -62
-29 -98 -10 -22 12 -28 20 -24 37 3 12 3 16 0 10 -10 -23 -21 -14 -22 20 -2
40 6 52 38 61 20 6 22 5 10 -4 -13 -10 -13 -11 0 -7 8 2 14 11 12 21 -4 21 45
22 76 0z m324 -200 c13 -10 24 -19 26 -20 9 -5 10 -64 1 -64 -6 0 -8 -4 -4 -9
3 -5 -7 -19 -21 -30 -30 -24 -48 -27 -41 -8 2 6 10 12 18 12 7 0 15 8 17 18 2
9 -1 17 -7 17 -6 0 -7 -7 -4 -17 4 -10 2 -14 -5 -9 -6 3 -17 -3 -25 -15 -16
-22 -54 -22 -49 0 1 7 -2 10 -8 6 -12 -7 -53 19 -43 28 3 4 1 7 -5 7 -18 0
-14 31 6 47 11 9 12 12 2 8 -8 -4 -2 5 13 19 16 15 33 24 38 21 5 -4 9 -2 9 3
0 16 59 6 82 -14z m-2318 -63 c3 -5 14 -7 24 -4 10 2 27 -7 42 -23 14 -15 19
-24 13 -20 -9 5 -13 1 -13 -11 0 -15 -2 -16 -10 -3 -6 9 -10 10 -10 3 0 -16
17 -26 25 -13 8 13 25 3 25 -15 0 -8 -6 -12 -14 -9 -8 3 -17 0 -21 -6 -3 -6
-3 -10 2 -9 25 4 23 -4 -7 -26 -44 -32 -90 -30 -130 6 -17 16 -30 38 -30 51 1
31 25 62 44 55 10 -4 13 -1 10 8 -5 11 7 19 38 24 4 0 9 -3 12 -8z m2588 -230
c-2 -11 0 -12 11 -3 11 9 17 8 29 -6 24 -28 28 -50 15 -82 -11 -24 -16 -28
-27 -17 -7 6 -10 7 -7 2 10 -19 -9 -35 -46 -40 -25 -3 -39 0 -44 9 -4 8 -15
16 -23 18 -8 2 -21 11 -28 21 -11 14 -11 21 -1 33 6 8 9 17 5 21 -3 3 -6 0 -6
-7 0 -7 -3 -10 -7 -7 -4 4 8 23 27 42 27 28 40 34 69 32 25 -2 35 -7 33 -16z
m-2711 -86 c28 -15 49 -49 49 -80 0 -8 -11 -26 -24 -42 -19 -22 -33 -28 -70
-29 -25 -1 -49 3 -53 9 -4 6 -1 7 7 2 8 -5 11 -4 6 3 -4 6 -13 9 -21 5 -21 -7
-19 3 5 27 25 25 19 38 -16 38 -17 0 -22 -3 -13 -8 6 -5 18 -6 26 -3 18 7 17
-2 -3 -21 -20 -21 -35 -20 -27 1 4 10 2 14 -4 10 -16 -10 -11 27 6 40 13 9 21
8 41 -3 l25 -15 -22 20 c-27 23 -29 37 -7 45 10 4 13 2 8 -7 -4 -6 2 -4 12 6
23 21 37 21 75 2z m-130 -38 c-10 -9 -11 -8 -5 6 3 10 9 15 12 12 3 -3 0 -11
-7 -18z m3060 -229 c10 -13 18 -17 19 -10 0 6 -5 12 -12 12 -6 0 -8 3 -5 6 9
9 38 -16 32 -26 -3 -4 2 -10 10 -14 17 -6 20 -52 4 -62 -6 -3 -16 -1 -22 5 -6
6 -15 11 -20 11 -5 0 1 -8 13 -18 20 -16 21 -19 6 -31 -11 -9 -16 -10 -16 -2
0 6 6 11 13 11 6 0 4 5 -6 11 -9 5 -22 7 -28 3 -6 -3 -16 0 -21 7 -8 11 -9 10
-4 -3 3 -10 1 -18 -4 -18 -6 0 -10 -4 -10 -8 0 -5 7 -9 15 -9 8 0 12 4 10 8
-3 4 2 10 11 13 22 9 23 8 17 -14 -5 -17 -11 -20 -46 -16 -39 5 -91 41 -82 57
3 4 -1 9 -7 12 -10 3 -10 7 1 20 7 10 10 17 6 17 -13 0 28 42 50 51 34 14 56
10 76 -13z m-3024 -81 c10 4 14 2 10 -4 -5 -7 1 -9 15 -5 18 4 20 2 14 -14 -4
-10 -4 -15 0 -11 12 12 34 -14 34 -40 0 -13 -4 -21 -10 -18 -5 3 -7 0 -4 -8
10 -27 -35 -56 -82 -55 -27 0 -41 4 -37 11 3 6 1 7 -5 3 -7 -4 -22 2 -34 13
-12 12 -18 21 -14 21 5 0 4 6 -1 13 -6 6 -9 20 -7 31 3 21 39 58 48 49 3 -4 6
-1 6 5 0 12 43 21 48 10 2 -4 10 -4 19 -1z m3091 -343 c12 -8 22 -12 22 -8 0
4 9 -1 20 -11 28 -26 22 -89 -11 -113 -28 -20 -41 -22 -51 -7 -5 6 -8 6 -8 -2
0 -7 -5 -13 -11 -13 -5 0 -8 4 -4 9 3 5 0 13 -6 17 -7 4 -9 3 -5 -4 11 -18
-16 -26 -29 -9 -7 9 -15 14 -18 10 -8 -8 -37 59 -30 70 2 4 10 4 16 0 9 -5 8
-2 0 8 -10 13 -7 19 17 38 20 14 30 17 30 9 0 -8 5 -6 11 5 12 21 28 22 57 1z
m-3063 -21 c0 -6 4 -15 9 -20 5 -4 6 -3 2 4 -3 6 -2 14 4 18 5 3 10 1 10 -6 0
-7 3 -9 7 -5 4 3 15 -9 24 -29 16 -32 16 -38 2 -66 -13 -26 -17 -28 -31 -17
-10 7 -14 8 -10 4 4 -5 3 -15 -3 -23 -13 -15 -75 -18 -84 -3 -4 6 -10 8 -15 5
-12 -7 -30 19 -36 52 -4 25 -3 26 9 11 8 -10 17 -15 20 -11 4 3 -2 12 -13 20
-17 12 -18 17 -7 35 21 36 112 61 112 31z m196 -316 c27 -20 41 -56 34 -87 -4
-16 -12 -28 -18 -27 -7 1 -11 -4 -9 -10 1 -7 -1 -12 -5 -11 -5 1 -21 -4 -37
-11 -19 -7 -33 -8 -39 -2 -5 5 -15 7 -21 5 -14 -5 -66 43 -66 60 0 27 13 55
23 49 7 -4 8 0 3 12 -5 15 -4 16 8 6 11 -9 16 -9 22 0 5 8 3 9 -7 4 -11 -7
-12 -6 -2 6 16 19 92 23 114 6z m2949 -82 c8 0 21 -6 28 -15 12 -13 13 -13 7
0 -4 8 2 4 13 -9 28 -35 17 -116 -14 -104 -7 3 -16 -2 -20 -10 -5 -15 -84 -20
-84 -4 0 4 -5 6 -11 5 -6 -2 -14 3 -16 10 -3 8 2 10 14 6 14 -5 15 -4 4 4 -8
6 -20 8 -26 5 -7 -2 -15 7 -19 22 -12 48 48 111 80 84 8 -7 14 -8 13 -3 -3 19
1 29 9 19 4 -6 14 -10 22 -10z m-2770 -216 c0 -5 6 -6 14 -3 8 3 23 -5 35 -17
23 -25 28 -44 9 -34 -7 4 -4 -1 7 -10 17 -14 18 -17 5 -25 -8 -5 -11 -10 -7
-10 4 0 3 -9 -3 -20 -6 -11 -15 -18 -20 -15 -4 3 -10 0 -12 -6 -2 -5 -22 -13
-45 -16 -32 -4 -45 -1 -61 15 -11 11 -24 17 -28 14 -4 -4 -4 -1 0 6 4 6 3 12
-1 12 -5 0 -9 9 -10 20 -1 13 2 18 10 13 7 -4 7 -1 -1 10 -12 14 -11 19 5 35
10 10 27 24 37 29 23 13 66 14 66 2z m2701 -201 c0 -10 2 -10 6 -1 6 17 58 -9
73 -36 15 -29 13 -71 -4 -71 -21 0 -29 17 -11 24 22 8 18 23 -7 29 -21 5 -21
5 -6 -7 17 -12 16 -14 -5 -24 -14 -7 -17 -11 -7 -12 11 -1 9 -4 -5 -11 l-20
-9 20 1 c39 2 40 -1 7 -21 -39 -24 -92 -27 -92 -5 0 8 -5 15 -11 15 -5 0 -7
-6 -4 -12 4 -7 -5 0 -19 15 -27 30 -33 52 -16 62 6 4 8 10 5 15 -3 5 0 12 6
16 7 4 9 3 6 -3 -4 -6 -1 -13 6 -16 9 -3 13 4 13 22 -1 22 3 26 26 26 14 -1
24 3 22 7 -3 4 0 8 5 8 6 0 11 -6 12 -12z m-2403 -70 c34 -21 45 -36 14 -19
-14 8 -18 5 -19 -12 -2 -14 1 -17 6 -9 11 18 41 4 41 -20 0 -10 -4 -17 -9 -14
-5 4 -7 -4 -3 -16 4 -17 2 -20 -11 -15 -9 3 -19 1 -23 -5 -4 -7 -3 -8 4 -4 7
4 12 3 12 -2 0 -10 -44 -32 -66 -32 -8 0 -12 5 -9 10 3 6 2 10 -4 10 -5 0 -11
-6 -13 -12 -3 -9 -16 -4 -41 15 -30 23 -37 34 -35 59 3 33 42 83 58 73 6 -3
10 -2 10 3 0 17 54 11 88 -10z m247 -248 c4 -6 10 -8 14 -5 5 2 19 -7 31 -20
23 -24 23 -26 5 -39 -17 -12 -17 -16 -6 -30 19 -23 -1 -45 -23 -26 -9 7 -13
17 -10 22 4 6 -2 6 -13 -1 -11 -6 -23 -7 -27 -4 -3 3 -6 4 -6 1 0 -3 8 -12 17
-19 11 -10 14 -10 9 -1 -10 17 9 15 24 -3 10 -13 8 -21 -3 -12 -2 1 -10 -3
-18 -9 -18 -14 -54 -12 -54 3 0 6 -4 15 -9 20 -5 5 -6 3 -2 -5 5 -8 0 -11 -16
-9 -13 2 -29 16 -37 32 -12 25 -12 32 4 62 10 18 20 31 23 28 3 -2 14 2 26 10
24 17 62 20 71 5z m65 -80 c0 -5 -4 -10 -10 -10 -5 0 -10 5 -10 10 0 6 5 10
10 10 6 0 10 -4 10 -10z m2047 -19 c17 -1 53 -42 47 -53 -3 -5 -12 -4 -20 3
-7 6 -12 15 -9 18 2 4 -2 8 -10 8 -12 0 -12 -3 -2 -15 6 -8 12 -18 12 -21 0
-3 3 -5 8 -3 4 1 7 -5 7 -13 0 -9 -6 -12 -17 -9 -15 5 -16 4 -3 -5 12 -8 19
-5 32 12 10 13 16 16 14 7 -5 -25 -25 -70 -31 -70 -4 0 -4 4 0 9 3 5 0 13 -6
17 -7 4 -9 3 -5 -4 10 -16 -22 -42 -52 -42 -15 0 -37 7 -48 15 -12 8 -25 11
-29 7 -5 -4 -5 -1 -1 6 5 9 12 10 20 3 8 -7 12 -4 13 12 1 12 -1 17 -5 12 -4
-6 -13 -10 -19 -9 -7 1 -17 2 -23 3 -15 2 -3 71 16 92 16 18 43 26 79 23 11
-1 25 -3 32 -3z m-1834 -174 c22 -15 25 -22 16 -33 -6 -8 -14 -12 -18 -10 -4
3 -7 -4 -7 -15 0 -18 2 -18 12 -5 6 9 15 12 19 8 5 -4 5 -1 1 6 -4 6 -2 12 4
12 16 0 6 -55 -11 -56 -8 -1 -21 -2 -29 -3 -12 -1 -12 -3 -2 -10 10 -6 10 -10
-3 -21 -12 -10 -15 -10 -15 1 0 9 -4 7 -12 -4 -21 -28 -80 -6 -104 38 -17 33
-18 37 -2 63 32 53 96 66 151 29z m1602 -197 c0 -1 8 -3 18 -5 9 -2 26 -14 37
-27 33 -40 25 -77 -24 -107 -40 -25 -85 -24 -118 3 -28 22 -53 86 -28 71 8 -5
11 -3 8 6 -6 16 39 62 52 54 5 -3 11 -1 14 4 5 7 41 8 41 1z m-1384 -126 c20
-10 29 -21 25 -30 -3 -8 -2 -13 3 -10 5 3 11 -3 14 -14 3 -11 0 -23 -5 -27 -6
-3 -8 -1 -4 5 3 6 3 13 -2 16 -4 2 -8 -6 -8 -19 0 -13 4 -21 9 -18 5 3 4 -4
-2 -16 -11 -19 -23 -25 -43 -22 -5 0 -8 -5 -8 -11 0 -9 -4 -8 -10 2 -6 9 -10
10 -10 3 0 -17 -42 -12 -58 7 -11 13 -12 13 -6 0 4 -8 -5 -4 -19 9 -30 27 -33
77 -4 75 9 -1 13 4 10 12 -3 8 -10 11 -16 7 -6 -3 -7 -1 -3 6 8 13 47 5 57
-11 3 -5 9 -3 12 6 4 9 3 15 -1 15 -22 -4 -42 2 -42 12 0 6 7 9 15 6 8 -4 17
-2 20 3 9 15 42 12 76 -6z m1238 -289 c10 -5 12 -4 7 3 -13 22 9 12 42 -19 39
-37 42 -71 6 -104 -21 -19 -30 -22 -45 -14 -16 8 -17 13 -8 32 12 22 12 22 -8
2 -19 -20 -19 -20 0 -36 17 -13 18 -16 4 -16 -10 0 -17 5 -17 11 0 6 -4 5 -9
-3 -7 -10 -13 -11 -30 -2 -12 7 -19 16 -16 21 3 6 0 7 -8 4 -18 -6 -27 7 -33
44 -4 31 0 40 38 68 27 21 53 24 77 9z m-1096 -72 c11 -10 17 -12 13 -5 -7 11
-4 11 13 0 11 -7 25 -25 30 -41 6 -15 6 -25 2 -22 -5 3 -12 -2 -15 -11 -3 -8
-2 -12 4 -9 6 3 10 1 10 -4 0 -17 -40 -52 -50 -46 -6 4 -10 1 -10 -4 0 -6 -7
-11 -16 -11 -8 0 -13 4 -9 9 3 5 1 13 -5 16 -6 4 -9 1 -8 -6 2 -7 -6 -15 -16
-17 -14 -3 -17 0 -13 13 4 9 3 14 -2 10 -5 -3 -11 -2 -14 2 -2 5 -2 2 -1 -5 3
-10 -1 -10 -17 -1 -12 6 -18 17 -15 25 3 9 1 12 -4 9 -16 -10 -6 47 14 78 18
26 44 39 30 15 -4 -7 2 -5 12 5 10 9 25 17 33 17 8 0 23 -8 34 -17z m803 -245
c-5 8 0 12 14 12 11 0 23 -6 26 -14 3 -8 12 -12 19 -10 30 12 44 -73 17 -103
-30 -33 -78 -47 -112 -33 -32 13 -37 28 -17 50 10 12 9 12 -4 2 -9 -6 -20 -8
-24 -4 -5 4 -5 0 -1 -8 4 -8 0 -6 -8 4 -9 11 -16 24 -16 29 0 18 21 47 30 42
6 -4 7 1 3 11 -5 14 -3 16 11 11 9 -4 14 -3 11 2 -8 14 28 19 44 7 11 -8 13
-8 7 2z m-758 -166 c6 -9 12 -12 12 -8 0 4 5 4 10 1 7 -4 6 -14 -2 -28 -10
-20 -10 -21 5 -9 14 12 15 10 12 -19 -9 -71 -105 -105 -159 -56 -28 24 -46 77
-26 77 6 0 9 4 6 8 -7 11 35 49 61 55 28 6 66 -4 81 -21z m580 -199 c14 -9 21
-20 18 -29 -3 -9 -1 -12 4 -9 13 8 13 -41 -1 -67 -15 -27 -71 -49 -108 -42
-26 5 -87 54 -67 54 4 0 2 8 -3 18 -10 19 5 53 36 78 19 16 94 14 121 -3z
m-728 -190 c45 -37 40 -91 -12 -127 -30 -21 -41 -20 -28 3 7 15 7 22 -2 27 -7
4 -10 4 -6 -1 12 -13 -11 -45 -30 -42 -24 5 -72 29 -72 37 0 3 5 11 12 18 7 7
8 12 3 12 -6 0 -3 5 5 11 12 8 10 9 -7 4 -17 -5 -23 -2 -23 10 0 10 5 13 12 9
7 -4 8 -3 4 5 -9 14 10 40 39 52 28 12 79 4 105 -18z m505 -174 c42 -39 21
-133 -22 -98 -15 13 -15 12 -4 -10 7 -13 8 -21 3 -17 -6 3 -13 2 -17 -4 -15
-25 -121 10 -111 36 3 8 2 13 -3 10 -14 -9 -21 22 -11 49 23 59 117 79 165 34z
m-732 -191 c32 -17 49 -36 42 -48 -3 -5 -1 -10 4 -10 17 0 13 -25 -9 -53 -14
-17 -26 -23 -40 -20 -12 3 -20 0 -20 -6 0 -7 5 -9 12 -5 7 4 8 3 4 -4 -12 -19
-36 -14 -30 6 5 14 4 14 -4 3 -13 -18 -45 -24 -39 -7 3 7 -1 13 -9 13 -7 0
-10 -5 -7 -11 3 -6 -4 -2 -16 10 -23 22 -36 72 -23 89 11 16 56 51 49 40 -7
-13 37 -14 49 -2 5 4 1 5 -8 2 -9 -4 -19 -2 -23 4 -9 15 40 14 68 -1z m589
-241 c-7 -8 -7 -18 -2 -27 7 -11 11 -12 25 0 9 7 14 19 11 26 -3 7 -2 15 2 17
4 2 1 2 -5 1 -7 -2 -13 1 -13 6 0 6 14 10 31 10 16 0 28 -4 25 -9 -3 -5 2 -8
12 -7 10 0 16 -6 16 -16 -1 -10 3 -16 8 -15 6 1 13 -4 16 -12 2 -8 0 -11 -6
-7 -6 3 -14 2 -17 -4 -4 -6 -1 -9 7 -8 20 5 21 -37 0 -55 -30 -27 -99 -40 -94
-18 3 12 0 12 -12 2 -13 -11 -20 -8 -41 15 -39 43 -31 95 20 122 23 12 33 -1
17 -21z m28 -5 c0 -13 -12 -22 -22 -16 -10 6 -1 24 13 24 5 0 9 -4 9 -8z
m-785 -152 c4 -6 10 -8 15 -5 5 3 20 -6 35 -21 22 -22 24 -28 13 -42 -11 -13
-11 -14 2 -7 13 8 13 7 1 -8 -7 -9 -10 -17 -7 -17 4 0 2 -9 -4 -21 -7 -12 -18
-18 -26 -15 -8 3 -13 2 -10 -3 3 -5 -1 -12 -10 -15 -23 -9 -26 -8 -18 7 6 9 4
9 -8 -1 -12 -10 -17 -10 -20 -1 -2 7 -12 13 -21 15 -9 1 -15 -2 -11 -7 3 -5
10 -7 15 -4 5 4 9 1 9 -4 0 -19 -19 -12 -52 18 -27 24 -31 32 -20 42 6 7 12
20 11 29 0 10 -3 9 -9 -5 -5 -11 -9 -14 -9 -7 -3 49 101 109 124 72z m861
-252 c-11 18 2 15 35 -9 31 -22 38 -55 17 -78 -10 -11 -10 -12 -1 -7 23 13 3
-22 -22 -38 -29 -19 -101 -17 -97 3 3 12 0 12 -12 2 -12 -10 -17 -8 -27 11 -7
13 -12 26 -11 31 1 4 -3 7 -9 7 -5 0 -7 5 -4 10 4 6 12 7 18 3 7 -4 6 1 -2 11
-13 15 -11 20 14 42 21 18 36 23 53 19 18 -4 22 -2 16 7 -4 7 3 4 16 -7 13
-11 20 -14 16 -7z m-948 -157 c7 0 10 -5 7 -11 -3 -5 0 -7 8 -4 8 3 21 -8 32
-29 18 -34 18 -35 -4 -66 -29 -40 -53 -52 -94 -48 -42 5 -59 15 -51 29 4 6 2
8 -4 4 -13 -8 -22 5 -28 40 -3 19 -1 24 8 18 10 -6 11 -5 1 7 -11 13 -9 19 10
36 31 29 44 31 115 24z m888 -269 c-3 -5 1 -9 9 -9 8 0 12 4 9 9 -10 16 54 8
76 -10 24 -19 40 -92 20 -92 -6 0 -8 5 -4 12 4 6 3 8 -4 4 -5 -3 -13 0 -16 6
-3 7 -3 3 0 -9 4 -18 1 -21 -16 -18 -11 2 -18 0 -15 -5 3 -5 18 -6 32 -4 l27
5 -23 -20 c-28 -25 -41 -27 -41 -7 0 21 -17 29 -36 18 -15 -8 -15 -10 0 -15
10 -4 15 -3 11 3 -3 6 -1 10 5 10 6 0 10 -8 8 -17 -8 -40 -90 -6 -109 44 -12
32 -1 57 17 42 17 -14 19 2 3 18 -8 8 -4 15 17 27 34 18 37 19 30 8z m-863
-159 c12 -11 17 -12 12 -4 -6 11 -5 12 6 5 8 -5 19 -9 24 -9 6 0 9 -9 7 -19
-2 -10 1 -15 6 -12 10 6 22 -15 22 -39 0 -18 -45 -67 -53 -58 -4 3 -7 2 -7 -4
0 -13 -32 -13 -49 1 -11 8 -13 8 -7 -1 4 -8 2 -13 -7 -13 -14 0 -32 26 -29 41
1 4 -9 6 -21 5 -18 -1 -22 5 -23 33 -1 34 22 65 61 81 29 13 36 12 58 -7z
m-83 -128 c11 -13 10 -14 -4 -9 -9 3 -16 10 -16 15 0 13 6 11 20 -6z m804 -20
c7 -20 95 -75 118 -75 24 0 23 -17 -1 -25 -10 -3 -35 -22 -55 -42 -57 -57 -78
-154 -50 -228 4 -8 -12 -4 -42 11 -79 40 -178 27 -240 -32 l-34 -31 0 37 c0
112 -76 198 -192 216 -41 7 -33 11 217 95 143 48 263 88 266 88 4 1 9 -6 13
-14z m258 -120 c48 -19 65 -61 44 -104 -19 -36 -38 -46 -87 -50 -27 -2 -44 5
-67 24 -40 34 -43 75 -7 111 24 24 52 25 39 1 -4 -7 -3 -8 2 -4 5 5 10 13 10
18 1 5 2 11 3 14 2 9 28 5 63 -10z m-756 -90 c4 -8 10 -15 16 -15 5 0 6 6 2
13 -4 6 2 4 14 -7 12 -10 19 -22 17 -27 -3 -4 0 -11 6 -15 8 -4 9 -3 5 4 -4 7
-2 12 3 12 6 0 11 -7 11 -15 0 -8 -6 -15 -12 -15 -10 0 -9 -3 1 -9 20 -13 4
-49 -29 -66 -45 -23 -80 -19 -109 13 -14 15 -20 21 -13 12 17 -23 15 -35 -3
-20 -24 20 -29 50 -9 64 13 10 14 15 4 21 -9 6 -11 4 -5 -6 6 -11 5 -12 -5 -2
-17 16 2 40 45 59 40 17 54 17 61 -1z m427 -173 c42 -18 54 -54 33 -98 -11
-25 -21 -34 -32 -30 -8 3 -13 2 -10 -3 3 -5 -1 -12 -10 -15 -23 -9 -26 -8 -18
7 6 9 4 9 -7 1 -36 -29 -124 31 -96 65 9 12 9 13 0 7 -16 -9 -17 8 -3 34 23
43 84 56 143 32z m-269 -167 c-1 -36 -7 -49 -27 -65 -35 -28 -47 -25 -47 10 0
22 10 39 38 65 20 19 37 35 37 35 0 0 -1 -20 -1 -45z m-94 -50 c0 -17 -4 -18
-39 -8 -23 6 -23 7 -5 14 30 12 44 10 44 -6z m-64 -52 c-5 -15 -4 -15 9 1 8
11 18 16 22 12 13 -12 10 -30 -7 -43 -13 -10 -13 -12 2 -18 10 -4 14 -13 11
-22 -3 -8 8 -1 26 16 35 34 46 39 38 17 -4 -11 -1 -13 11 -9 14 6 15 4 4 -9
-10 -13 -10 -18 -1 -24 8 -5 9 -3 4 6 -6 9 -4 11 4 6 17 -11 -15 -45 -37 -41
-9 2 -22 4 -29 4 -6 1 -19 9 -29 19 -10 9 -21 17 -26 17 -25 0 -38 69 -15 78
19 8 19 8 13 -10z m-97 -222 c20 -13 21 -52 2 -71 -10 -8 -10 -10 -2 -5 12 9
12 7 2 -12 -6 -13 -17 -23 -23 -23 -6 0 -8 -3 -5 -7 4 -3 -3 -17 -15 -30 -12
-13 -18 -23 -15 -23 4 0 0 -11 -9 -25 -11 -17 -22 -24 -34 -20 -10 3 -21 1
-25 -4 -3 -6 0 -8 8 -5 25 9 29 -14 7 -36 -11 -11 -25 -32 -30 -45 -6 -17 -15
-23 -30 -20 -11 2 -18 0 -15 -6 4 -5 11 -7 16 -4 11 8 12 -6 0 -24 -7 -10 -13
-11 -32 -1 -21 10 -22 10 -6 -3 9 -8 17 -18 17 -22 0 -14 -42 -65 -50 -60 -4
3 -6 -4 -3 -14 6 -24 -24 -42 -54 -30 -23 9 -41 48 -25 58 5 3 12 16 16 29 4
12 13 22 20 22 22 0 27 -13 11 -30 -13 -15 -13 -17 0 -17 8 0 13 3 10 5 -3 3
3 14 12 25 10 11 13 18 8 14 -6 -3 -16 3 -23 13 -9 14 -8 19 4 24 8 3 13 10
10 15 -3 5 2 19 12 32 10 13 42 63 72 111 29 49 64 100 79 115 14 14 19 23 11
18 -13 -8 -13 -7 0 11 26 33 50 45 50 23 0 -5 -5 -7 -11 -4 -6 4 -5 -2 2 -14
9 -13 16 -16 20 -9 4 6 13 7 20 4 9 -5 9 -3 -1 6 -8 7 -21 21 -29 31 -11 14
-11 17 0 17 8 0 20 -4 28 -9z m-311 -786 c0 -16 -2 -15 -8 5 -4 14 -8 34 -8
45 0 16 2 15 8 -5 4 -14 8 -34 8 -45z m-40 -200 c-1 -94 -2 -102 -8 -55 -5 30
-8 100 -8 155 0 81 2 92 9 55 4 -25 7 -94 7 -155z m-158 -6 c-11 -46 -33 -124
-50 -174 -45 -133 -105 -358 -144 -540 -19 -88 -35 -152 -35 -143 -1 25 64
349 94 470 54 212 141 486 151 475 3 -2 -5 -42 -16 -88z m-115 -80 c-24 -68
-44 -119 -44 -113 -1 5 12 48 28 95 44 128 53 150 57 146 2 -2 -16 -59 -41
-128z m300 -609 c-9 -103 -12 -127 -10 -65 3 55 8 231 12 390 l8 290 2 -225
c2 -134 -3 -292 -12 -390z m-119 373 c-17 -214 -171 -1154 -175 -1067 -1 11 3
45 8 75 6 30 13 77 16 104 20 159 148 975 153 975 3 0 2 -39 -2 -87z m94 -8
c-6 -67 -7 -71 -9 -29 -1 48 8 118 14 112 2 -2 0 -39 -5 -83z m-203 -87 c-3
-7 -5 -2 -5 12 0 14 2 19 5 13 2 -7 2 -19 0 -25z m141 -253 c-34 -278 -118
-828 -125 -821 -3 2 14 132 36 288 39 273 89 697 93 775 0 21 4 7 7 -32 4 -44
0 -123 -11 -210z m-151 198 c-3 -10 -5 -4 -5 12 0 17 2 24 5 18 2 -7 2 -21 0
-30z m-101 -309 c-24 -137 -48 -271 -52 -299 -4 -27 -9 -45 -11 -38 -8 22 94
599 104 590 2 -3 -16 -117 -41 -253z m11 -71 c-3 -10 -5 -4 -5 12 0 17 2 24 5
18 2 -7 2 -21 0 -30z m310 -105 c-2 -18 -4 -4 -4 32 0 36 2 50 4 33 2 -18 2
-48 0 -65z m-320 45 c-3 -10 -5 -4 -5 12 0 17 2 24 5 18 2 -7 2 -21 0 -30z
m-80 -10 c-3 -10 -5 -4 -5 12 0 17 2 24 5 18 2 -7 2 -21 0 -30z m20 -20 c-3
-10 -5 -4 -5 12 0 17 2 24 5 18 2 -7 2 -21 0 -30z m-140 -45 c-3 -8 -6 -5 -6
6 -1 11 2 17 5 13 3 -3 4 -12 1 -19z m510 -85 c-2 -16 -4 -3 -4 27 0 30 2 43
4 28 2 -16 2 -40 0 -55z m-520 10 c-3 -10 -5 -4 -5 12 0 17 2 24 5 18 2 -7 2
-21 0 -30z m80 -20 c-3 -10 -5 -2 -5 17 0 19 2 27 5 18 2 -10 2 -26 0 -35z
m260 -20 c-3 -10 -5 -4 -5 12 0 17 2 24 5 18 2 -7 2 -21 0 -30z m90 15 c-3 -8
-6 -5 -6 6 -1 11 2 17 5 13 3 -3 4 -12 1 -19z m20 -65 c-2 -16 -4 -5 -4 22 0
28 2 40 4 28 2 -13 2 -35 0 -50z m60 -25 c-2 -13 -4 -3 -4 22 0 25 2 35 4 23
2 -13 2 -33 0 -45z m-500 0 c-3 -8 -6 -5 -6 6 -1 11 2 17 5 13 3 -3 4 -12 1
-19z m-10 -85 c-3 -10 -5 -2 -5 17 0 19 2 27 5 18 2 -10 2 -26 0 -35z"/>
<path d="M8731 14325 c0 -5 6 -18 14 -29 13 -18 14 -18 12 2 0 11 -4 19 -8 16
-4 -2 -10 2 -12 8 -3 7 -6 9 -6 3z"/>
<path d="M8720 14270 c0 -11 4 -20 8 -20 4 0 8 9 8 20 0 11 -4 20 -8 20 -4 0
-8 -9 -8 -20z"/>
<path d="M8616 14253 c-6 -14 -5 -15 5 -6 7 7 10 15 7 18 -3 3 -9 -2 -12 -12z"/>
<path d="M8714 14204 c-18 -14 -18 -15 4 -4 12 6 22 13 22 15 0 8 -5 6 -26
-11z"/>
<path d="M8215 14297 c-14 -11 -15 -16 -5 -22 9 -6 11 -4 5 5 -6 9 -4 12 7 8
9 -4 15 0 15 8 0 17 1 17 -22 1z"/>
<path d="M8180 14271 c0 -6 4 -13 10 -16 6 -3 7 1 4 9 -7 18 -14 21 -14 7z"/>
<path d="M8324 14269 c-3 -6 -1 -16 5 -22 9 -9 10 -7 5 7 -6 15 -4 17 6 11 9
-5 11 -4 6 3 -9 15 -13 15 -22 1z"/>
<path d="M8216 14228 c3 -5 10 -6 15 -3 13 9 11 12 -6 12 -8 0 -12 -4 -9 -9z"/>
<path d="M8296 14232 c-2 -4 4 -8 14 -8 10 0 16 4 14 8 -3 4 -9 8 -14 8 -5 0
-11 -4 -14 -8z"/>
<path d="M9086 14263 c-6 -14 -5 -15 5 -6 7 7 10 15 7 18 -3 3 -9 -2 -12 -12z"/>
<path d="M7914 14103 c2 -10 6 -17 10 -16 15 3 16 11 2 22 -12 10 -14 9 -12
-6z"/>
<path d="M7824 14092 c4 -3 14 -7 22 -8 9 -1 13 0 10 4 -4 3 -14 7 -22 8 -9 1
-13 0 -10 -4z"/>
<path d="M7810 14052 c0 -5 7 -9 15 -9 8 0 12 4 9 9 -3 4 -9 8 -15 8 -5 0 -9
-4 -9 -8z"/>
<path d="M7935 14051 c-3 -5 -2 -12 3 -15 5 -3 9 1 9 9 0 17 -3 19 -12 6z"/>
<path d="M9495 14110 c3 -5 8 -10 11 -10 2 0 4 5 4 10 0 6 -5 10 -11 10 -5 0
-7 -4 -4 -10z"/>
<path d="M9554 14038 l-19 -23 23 19 c12 11 22 21 22 23 0 8 -8 2 -26 -19z"/>
<path d="M9510 13996 c0 -2 7 -7 16 -10 8 -3 12 -2 9 4 -6 10 -25 14 -25 6z"/>
<path d="M9849 13853 c-13 -16 -12 -17 4 -4 16 13 21 21 13 21 -2 0 -10 -8
-17 -17z"/>
<path d="M7465 13800 c-3 -5 4 -7 15 -5 16 3 19 -1 16 -18 -2 -12 1 -28 6 -34
7 -9 7 -13 -2 -13 -8 0 -11 -2 -8 -5 3 -3 13 -3 22 1 15 6 15 7 -1 20 -15 11
-15 13 -3 14 9 0 11 3 5 8 -5 4 -10 13 -10 21 0 16 -32 24 -40 11z"/>
<path d="M10160 13616 c0 -2 8 -10 18 -17 15 -13 16 -12 3 4 -13 16 -21 21
-21 13z"/>
<path d="M10046 13532 c-3 -5 1 -9 9 -9 8 0 12 4 9 9 -3 4 -7 8 -9 8 -2 0 -6
-4 -9 -8z"/>
<path d="M10088 13503 c7 -3 16 -2 19 1 4 3 -2 6 -13 5 -11 0 -14 -3 -6 -6z"/>
<path d="M7385 13530 c-3 -5 -1 -10 4 -10 6 0 11 5 11 10 0 6 -2 10 -4 10 -3
0 -8 -4 -11 -10z"/>
<path d="M7455 13461 c-3 -5 -2 -12 3 -15 5 -3 9 1 9 9 0 17 -3 19 -12 6z"/>
<path d="M7380 13430 c12 -8 12 -10 1 -10 -8 0 -12 -2 -9 -5 3 -3 13 -2 22 1
14 5 15 9 4 15 -7 5 -17 9 -23 9 -5 0 -3 -5 5 -10z"/>
<path d="M10305 13249 c-8 -11 22 -49 39 -49 6 0 0 7 -12 16 -13 9 -21 22 -18
30 6 16 0 19 -9 3z"/>
<path d="M10285 13221 c3 -5 -5 -17 -17 -25 -12 -9 -17 -16 -11 -16 17 0 44
30 38 41 -4 5 -8 9 -11 9 -3 0 -3 -4 1 -9z"/>
<path d="M10270 13170 c-8 -5 -10 -10 -5 -10 6 0 17 5 25 10 8 5 11 10 5 10
-5 0 -17 -5 -25 -10z"/>
<path d="M7300 13170 c8 -5 20 -10 25 -10 6 0 3 5 -5 10 -8 5 -19 10 -25 10
-5 0 -3 -5 5 -10z"/>
<path d="M7242 13118 c2 -7 -3 -12 -10 -10 -8 1 -11 -2 -7 -8 3 -5 10 -10 15
-10 12 0 20 29 9 35 -5 4 -8 1 -7 -7z"/>
<path d="M7266 13075 c-3 -8 -1 -15 4 -15 6 0 10 7 10 15 0 8 -2 15 -4 15 -2
0 -6 -7 -10 -15z"/>
<path d="M10383 12837 c0 -8 6 -14 14 -14 9 0 10 4 2 14 -6 7 -12 13 -14 13
-1 0 -2 -6 -2 -13z"/>
<path d="M10350 12816 c0 -2 7 -7 16 -10 8 -3 12 -2 9 4 -6 10 -25 14 -25 6z"/>
<path d="M10426 12708 c3 -5 10 -6 15 -3 13 9 11 12 -6 12 -8 0 -12 -4 -9 -9z"/>
<path d="M7306 12707 c3 -10 9 -15 12 -12 3 3 0 11 -7 18 -10 9 -11 8 -5 -6z"/>
<path d="M7542 12490 c0 -14 2 -19 5 -12 2 6 2 18 0 25 -3 6 -5 1 -5 -13z"/>
<path d="M7574 12449 c-3 -6 -2 -15 3 -20 5 -5 9 -1 9 11 0 23 -2 24 -12 9z"/>
<path d="M10456 12311 c-7 -11 14 -28 36 -28 13 0 15 4 7 19 -5 10 -12 18 -15
18 -3 0 -2 -4 1 -10 3 -5 -1 -10 -10 -10 -9 0 -13 5 -10 10 3 6 4 10 1 10 -3
0 -7 -4 -10 -9z"/>
<path d="M7662 12191 c-11 -7 -10 -9 3 -14 9 -4 14 -3 10 2 -3 5 1 12 7 14 7
3 9 6 3 6 -5 0 -16 -3 -23 -8z"/>
<path d="M7723 12187 c0 -8 6 -14 14 -14 9 0 10 4 2 14 -6 7 -12 13 -14 13 -1
0 -2 -6 -2 -13z"/>
<path d="M10347 11943 c-3 -5 -1 -17 4 -28 6 -17 7 -16 6 8 -1 28 -3 32 -10
20z"/>
<path d="M10374 11902 c4 -3 14 -7 22 -8 9 -1 13 0 10 4 -4 3 -14 7 -22 8 -9
1 -13 0 -10 -4z"/>
<path d="M7990 11930 c0 -5 5 -10 11 -10 5 0 7 5 4 10 -3 6 -8 10 -11 10 -2 0
-4 -4 -4 -10z"/>
<path d="M8226 11591 c-3 -5 1 -14 9 -21 8 -7 13 -16 10 -19 -2 -4 3 -8 11 -8
11 0 10 5 -6 22 -11 12 -17 25 -13 28 3 4 4 7 0 7 -3 0 -8 -4 -11 -9z"/>
<path d="M8171 11583 c-1 -17 16 -25 25 -12 4 7 3 9 -4 5 -5 -3 -13 0 -15 6
-4 9 -6 10 -6 1z"/>
<path d="M10301 11571 c-9 -6 -10 -11 -2 -15 6 -4 11 -2 11 4 0 6 5 8 12 4 7
-4 8 -3 4 4 -8 14 -7 14 -25 3z"/>
<path d="M10290 11500 c-9 -6 -10 -10 -3 -10 6 0 15 5 18 10 8 12 4 12 -15 0z"/>
<path d="M8545 11400 c-3 -6 1 -7 9 -4 18 7 21 14 7 14 -6 0 -13 -4 -16 -10z"/>
<path d="M8480 11375 c-10 -12 -16 -13 -28 -3 -13 11 -14 11 -7 -2 13 -20 13
-33 0 -43 -6 -6 -5 -7 3 -5 8 2 13 8 13 13 0 6 10 20 21 33 12 12 19 22 16 22
-3 0 -11 -7 -18 -15z"/>
<path d="M10205 11180 c10 -11 20 -20 23 -20 3 0 -3 9 -13 20 -10 11 -20 20
-23 20 -3 0 3 -9 13 -20z"/>
<path d="M10167 11174 c-4 -4 -7 -12 -7 -18 0 -6 5 -4 10 4 9 13 11 13 21 0 9
-12 10 -12 7 -1 -5 17 -21 25 -31 15z"/>
<path d="M10206 11132 c-3 -5 1 -9 9 -9 8 0 12 4 9 9 -3 4 -7 8 -9 8 -2 0 -6
-4 -9 -8z"/>
<path d="M10093 11098 c11 -10 24 -18 31 -17 7 0 6 2 -2 6 -6 2 -10 9 -7 13 3
5 0 12 -6 16 -8 4 -9 3 -5 -4 8 -13 -5 -16 -20 -4 -5 4 -1 -1 9 -10z"/>
<path d="M8727 11089 c7 -7 15 -10 18 -7 3 3 -2 9 -12 12 -14 6 -15 5 -6 -5z"/>
<path d="M8755 11061 c-9 -15 15 -25 28 -12 9 9 7 10 -7 5 -13 -5 -17 -4 -12
4 4 7 5 12 2 12 -3 0 -7 -4 -11 -9z"/>
<path d="M8688 11012 c9 -10 19 -17 21 -16 6 5 -20 34 -30 34 -5 0 -1 -8 9
-18z"/>
<path d="M8640 10996 c0 -2 8 -10 18 -17 15 -13 16 -12 3 4 -13 16 -21 21 -21
13z"/>
<path d="M9954 10758 l-19 -23 23 19 c21 18 27 26 19 26 -2 0 -12 -10 -23 -22z"/>
<path d="M9913 10745 c0 -8 4 -12 9 -9 5 3 6 10 3 15 -9 13 -12 11 -12 -6z"/>
<path d="M9924 10708 c10 -6 22 -6 26 -2 5 5 -3 10 -18 11 -22 1 -24 0 -8 -9z"/>
<path d="M10049 10683 c-13 -16 -12 -17 4 -4 9 7 17 15 17 17 0 8 -8 3 -21
-13z"/>
<path d="M8903 10625 c0 -8 4 -12 9 -9 5 3 6 10 3 15 -9 13 -12 11 -12 -6z"/>
<path d="M9773 10437 c-4 -6 -1 -7 7 -2 10 6 12 4 7 -8 -4 -10 -2 -14 7 -11 7
3 13 11 13 18 0 15 -25 17 -34 3z"/>
<path d="M9635 10429 c-4 -5 -4 -13 -1 -16 3 -4 6 0 6 8 0 11 2 11 10 -1 6 -9
10 -10 10 -3 0 17 -17 25 -25 12z"/>
<path d="M8859 10258 c-7 -21 -3 -45 8 -45 15 0 17 13 3 22 -6 4 -8 11 -5 16
4 5 4 9 1 9 -3 0 -6 -1 -7 -2z"/>
<path d="M8903 10213 c9 -2 17 -9 17 -14 0 -6 5 -7 11 -3 14 8 -8 24 -31 23
-11 -1 -10 -3 3 -6z"/>
<path d="M9448 10123 c7 -3 16 -2 19 1 4 3 -2 6 -13 5 -11 0 -14 -3 -6 -6z"/>
<path d="M8765 9941 c-3 -5 -2 -12 3 -15 5 -3 9 1 9 9 0 17 -3 19 -12 6z"/>
<path d="M8805 9871 c-6 -11 13 -26 22 -17 4 3 0 6 -8 6 -11 0 -11 2 1 10 9 6
10 10 3 10 -6 0 -14 -4 -18 -9z"/>
<path d="M8710 9826 c7 -7 13 -7 20 0 6 6 3 10 -10 10 -13 0 -16 -4 -10 -10z"/>
<path d="M9180 9740 c-6 -11 -8 -20 -6 -20 3 0 10 9 16 20 6 11 8 20 6 20 -3
0 -10 -9 -16 -20z"/>
<path d="M9295 9709 c-4 -6 -5 -12 -2 -15 2 -3 7 2 10 11 7 17 1 20 -8 4z"/>
<path d="M9317 9706 c-4 -10 -1 -13 8 -9 8 3 12 9 9 14 -7 12 -11 11 -17 -5z"/>
<path d="M9267 9649 c7 -7 15 -10 18 -7 3 3 -2 9 -12 12 -14 6 -15 5 -6 -5z"/>
<path d="M8572 9547 c-8 -10 -6 -13 9 -14 19 -2 26 11 10 21 -5 3 -14 0 -19
-7z"/>
<path d="M8510 9536 c0 -2 7 -7 16 -10 8 -3 12 -2 9 4 -6 10 -25 14 -25 6z"/>
<path d="M8597 9509 c7 -7 15 -10 18 -7 3 3 -2 9 -12 12 -14 6 -15 5 -6 -5z"/>
<path d="M8460 9500 c0 -5 5 -10 11 -10 5 0 7 5 4 10 -3 6 -8 10 -11 10 -2 0
-4 -4 -4 -10z"/>
<path d="M8596 9474 c-5 -14 -4 -15 9 -4 17 14 19 20 6 20 -5 0 -12 -7 -15
-16z"/>
<path d="M8560 9460 c0 -5 5 -10 11 -10 5 0 7 5 4 10 -3 6 -8 10 -11 10 -2 0
-4 -4 -4 -10z"/>
<path d="M9215 9260 c3 -5 8 -10 11 -10 2 0 4 5 4 10 0 6 -5 10 -11 10 -5 0
-7 -4 -4 -10z"/>
<path d="M9170 9245 c6 -8 18 -11 26 -8 18 7 13 12 -16 18 -18 3 -20 2 -10
-10z"/>
<path d="M9240 9240 c-8 -5 -12 -12 -9 -15 4 -3 12 1 19 10 14 17 11 19 -10 5z"/>
<path d="M9150 9226 c0 -2 7 -7 16 -10 8 -3 12 -2 9 4 -6 10 -25 14 -25 6z"/>
<path d="M8330 9138 c-13 -8 -12 -9 1 -5 9 3 22 0 29 -6 10 -9 14 -9 17 0 3 9
10 10 22 3 13 -6 18 -5 18 4 0 13 -31 15 -43 3 -4 -4 -12 -3 -18 3 -7 5 -17 5
-26 -2z"/>
<path d="M9285 8870 c-3 -5 -1 -10 4 -10 6 0 11 5 11 10 0 6 -2 10 -4 10 -3 0
-8 -4 -11 -10z"/>
<path d="M8232 8738 c-7 -7 -12 -16 -12 -21 0 -5 7 -1 16 8 9 9 14 18 12 20
-2 3 -10 -1 -16 -7z"/>
<path d="M8330 8721 c0 -10 19 -25 25 -20 1 2 -3 10 -11 17 -8 7 -14 8 -14 3z"/>
<path d="M8340 8656 c0 -2 7 -7 16 -10 8 -3 12 -2 9 4 -6 10 -25 14 -25 6z"/>
<path d="M9310 8462 c0 -5 6 -16 13 -26 12 -16 14 -16 14 -2 0 9 -4 16 -9 16
-5 0 -6 5 -3 10 3 6 1 10 -4 10 -6 0 -11 -4 -11 -8z"/>
<path d="M9176 8392 c-3 -5 1 -9 9 -9 8 0 12 4 9 9 -3 4 -7 8 -9 8 -2 0 -6 -4
-9 -8z"/>
<path d="M8298 8323 c6 -2 18 -2 25 0 6 3 1 5 -13 5 -14 0 -19 -2 -12 -5z"/>
<path d="M8280 8301 c0 -6 4 -13 10 -16 6 -3 7 1 4 9 -7 18 -14 21 -14 7z"/>
<path d="M8400 8265 c0 -2 6 -8 13 -14 10 -8 14 -7 14 2 0 8 -6 14 -14 14 -7
0 -13 -1 -13 -2z"/>
<path d="M8284 8249 c-4 -7 -3 -9 4 -5 5 3 12 0 15 -6 2 -7 7 -10 11 -7 4 3 0
12 -8 18 -11 9 -16 9 -22 0z"/>
<path d="M8385 8220 c-3 -5 -1 -10 4 -10 6 0 11 5 11 10 0 6 -2 10 -4 10 -3 0
-8 -4 -11 -10z"/>
<path d="M9216 8013 c-6 -14 -5 -15 5 -6 7 7 10 15 7 18 -3 3 -9 -2 -12 -12z"/>
<path d="M9215 7980 c-3 -6 1 -7 9 -4 18 7 21 14 7 14 -6 0 -13 -4 -16 -10z"/>
<path d="M9249 7973 c-7 -10 -9 -15 -5 -11 5 4 15 3 22 -3 9 -7 12 -6 10 5 -3
25 -12 28 -27 9z"/>
<path d="M8545 7970 c-3 -6 1 -7 9 -4 18 7 21 14 7 14 -6 0 -13 -4 -16 -10z"/>
<path d="M8519 7943 c0 -5 -2 -16 -4 -25 -2 -12 2 -15 13 -10 10 3 11 7 5 9
-7 3 -9 11 -6 19 3 8 2 14 -1 14 -3 0 -6 -3 -7 -7z"/>
<path d="M8546 7883 c-6 -14 -5 -15 5 -6 7 7 10 15 7 18 -3 3 -9 -2 -12 -12z"/>
<path d="M8500 7886 c0 -2 7 -9 15 -16 9 -7 15 -8 15 -2 0 5 -7 12 -15 16 -8
3 -15 4 -15 2z"/>
<path d="M8924 7789 c1 -7 10 -13 19 -15 9 -1 15 2 11 7 -3 5 -9 7 -14 4 -4
-3 -11 0 -13 5 -3 6 -4 5 -3 -1z"/>
<path d="M8986 7781 c-4 -5 -2 -12 3 -15 5 -4 12 -2 15 3 4 5 2 12 -3 15 -5 4
-12 2 -15 -3z"/>
<path d="M8575 7501 c-3 -5 -2 -12 3 -15 5 -3 9 1 9 9 0 17 -3 19 -12 6z"/>
<path d="M8649 7453 c-13 -16 -12 -17 4 -4 9 7 17 15 17 17 0 8 -8 3 -21 -13z"/>
<path d="M8433 7244 c-3 -8 -2 -19 3 -24 5 -5 9 1 9 16 0 28 -3 30 -12 8z"/>
<path d="M8419 7209 c-1 -2 -2 -16 -3 -31 -2 -21 0 -25 10 -18 12 11 13 34 1
46 -4 4 -7 5 -8 3z"/>
<path d="M8385 7181 c-3 -5 -2 -12 3 -15 5 -3 9 1 9 9 0 17 -3 19 -12 6z"/>
<path d="M8372 7136 c7 -15 14 -23 16 -17 2 6 9 8 14 5 7 -5 8 -2 4 5 -5 7
-10 10 -14 7 -3 -3 -11 2 -19 12 -11 15 -12 13 -1 -12z"/>
<path d="M8375 7069 c-4 -6 -5 -12 -2 -15 2 -3 7 2 10 11 7 17 1 20 -8 4z"/>
<path d="M8283 7035 c0 -8 4 -12 9 -9 5 3 6 10 3 15 -9 13 -12 11 -12 -6z"/>
<path d="M8306 7021 c-4 -5 3 -7 14 -4 23 6 26 13 6 13 -8 0 -17 -4 -20 -9z"/>
<path d="M8257 6993 c5 -12 3 -14 -8 -8 -8 5 -11 4 -6 0 4 -5 14 -10 22 -11
12 -2 12 2 5 17 -13 23 -22 25 -13 2z"/>
<path d="M8190 6836 c0 -2 7 -7 16 -10 8 -3 12 -2 9 4 -6 10 -25 14 -25 6z"/>
</g>
</svg>
